<?xml version="1.0" standalone="no"?>
<!DOCTYPE svg PUBLIC "-//W3C//DTD SVG 1.1//EN" "http://www.w3.org/Graphics/SVG/1.1/DTD/svg11.dtd" >
<svg xmlns="http://www.w3.org/2000/svg" xmlns:xlink="http://www.w3.org/1999/xlink" version="1.1">
<metadata>
Created by FontForge 20170731 at Thu Feb 10 18:10:41 2005
 By Aleksey,,,
Font software Copyright 1994 Adobe Systems Incorporated. Typeface designs Copyright 1994 The Monotype Corporation. All rights reserved.
</metadata>
<defs>
<font id="BaskervilleMTStd-Bold" horiz-adv-x="333" >
  <font-face 
    font-family="Baskerville MT Std"
    font-weight="700"
    font-stretch="normal"
    units-per-em="1000"
    panose-1="2 2 9 3 5 4 5 2 3 4"
    ascent="682"
    descent="-318"
    x-height="400"
    cap-height="662"
    bbox="-157 -255 1295 890"
    underline-thickness="50"
    underline-position="-200"
    unicode-range="U+0020-FB04"
  />
<missing-glyph horiz-adv-x="500" 
d="M12 0v665h475v-665h-475zM88 618l162 -243l161 243h-323zM60 575v-484l40 61l80 120l41 61zM440 575l-162 -242l162 -243v485zM411 48l-161 242l-162 -242h323z" />
    <glyph glyph-name="f_f" unicode="ff" horiz-adv-x="677" 
d="M258 347v-230q0 -38 11.5 -51t56.5 -13v-53h-304v53h16q22 0 35 4t19 14.5t7 19t1 26.5v230h-78v53h78v49q0 111 64.5 168t175.5 57q98 0 162 -46q62 46 161 46q72 0 110 -26t38 -67q0 -31 -21 -51.5t-47 -20.5q-22 0 -39.5 14t-23.5 26t-8 20q-4 17 -7 25t-11.5 16.5
t-21.5 8.5q-26 0 -36 -25t-9 -79l1 -115h79v-53h-79v-230q0 -17 1 -25.5t6.5 -19t19 -15t36.5 -4.5h26v-53h-315v53q44 0 56 13.5t12 50.5v230h-172zM258 513v-113h172v31q0 54 5 72q-11 3 -17 6.5t-14.5 16t-13.5 33.5q-3 11 -6 19t-10.5 19.5t-21 17.5t-32.5 6
q-17 0 -29 -6t-18.5 -14.5t-10 -24t-4 -28.5t-0.5 -35z" />
    <glyph glyph-name="fi" unicode="fi" horiz-adv-x="656" 
d="M253 348v-232q0 -18 1 -26t6.5 -18.5t19.5 -15t37 -4.5v-52h-297v52q48 0 61.5 12t13.5 52v232h-75v52h75v32q0 80 25 133q51 109 240 109q98 0 147.5 -30.5t49.5 -69.5q0 -26 -21.5 -48t-55.5 -22q-16 0 -28.5 5.5t-20.5 16.5t-12 18.5t-9 21.5q-10 26 -25.5 40.5
t-46.5 14.5q-52 0 -68.5 -35.5t-16.5 -105.5v-80h130q113 0 191 12v-296q0 -40 13 -52t63 -12v-52h-295v52q22 0 35 4t18.5 14.5t6.5 19.5t1 26v172q0 38 -15 49t-56 11h-92z" />
    <glyph glyph-name="fl" unicode="fl" horiz-adv-x="656" 
d="M415 348h-161v-232q0 -18 1 -26.5t6.5 -19t19.5 -14.5t37 -4v-52h-297v52q48 0 61.5 12t13.5 52v232h-75v52h75v43q0 231 259 231q34 0 59 -4t37.5 -7.5t15.5 -3.5q39 0 106 15v-558q0 -37 13 -50.5t62 -13.5v-52h-293v52q36 0 48 14t12 50v232zM254 400h161v151
q-24 69 -80 69q-48 0 -64.5 -34.5t-16.5 -95.5v-90z" />
    <glyph glyph-name="f_f_i" unicode="ffi" horiz-adv-x="979" 
d="M261 347v-230q0 -18 1.5 -27.5t7.5 -19t20 -13.5t37 -4v-53h-307v53h20q23 0 36 4t19 14t7 19t1 27v230h-83v53h83v34q0 87 25 134q57 106 204 106q100 0 167 -49q66 49 182 49q23 0 48 -2.5t64.5 -11t64.5 -31.5t25 -57q0 -29 -24 -48.5t-50 -19.5q-49 0 -70 59
q-19 56 -74 56q-52 0 -68 -32t-16 -97v-90h106q134 0 215 11v-294q0 -40 13 -52t62 -12v-53h-296v53q42 0 52.5 15t10.5 49v164q0 46 -15 56t-59 10h-89v-230q0 -17 1.5 -26t7 -19.5t19 -14.5t36.5 -4v-53h-282v53q22 0 34.5 4.5t18 15t6.5 19t1 25.5v230h-162zM261 482v-82
h162q0 79 5 103q-22 16 -27 58q-2 12 -4 19t-8 18t-20.5 16.5t-36.5 5.5q-21 0 -34.5 -7t-21 -15.5t-11 -30t-4 -37t-0.5 -48.5z" />
    <glyph glyph-name="f_f_l" unicode="ffl" horiz-adv-x="979" 
d="M261 347v-230q0 -17 1.5 -26t7 -19t19 -14.5t36.5 -4.5v-53h-305v53h20q22 0 35.5 4t19 14.5t7 19t1.5 26.5v230h-83v53h83v31q0 95 30 144q61 99 200 99q96 0 165 -49q67 49 181 49q45 0 84 -7q2 0 10 -2t14.5 -3.5t7.5 -1.5q46 0 107 14v-557q0 -40 12.5 -52t61.5 -12
v-53h-294v53q40 0 51 14.5t11 49.5v230h-162v-230q0 -18 1 -26.5t6.5 -19t19.5 -14.5t37 -4v-53h-283v53q22 0 35 4.5t18.5 15t6.5 19t1 25.5v230h-163zM261 486v-86h163q0 55 5 103q-13 10 -19 22.5t-10 43.5q-8 51 -68 51q-21 0 -35 -7.5t-21 -16.5t-10.5 -30t-4 -35.5
t-0.5 -44.5zM582 477v-77h162v151q-7 11 -12 25q-15 41 -66 41q-24 0 -41 -8.5t-25 -19.5t-12.5 -33t-5 -36.5t-0.5 -42.5z" />
    <glyph glyph-name=".notdef" horiz-adv-x="500" 
d="M12 0v665h475v-665h-475zM88 618l162 -243l161 243h-323zM60 575v-484l40 61l80 120l41 61zM440 575l-162 -242l162 -243v485zM411 48l-161 242l-162 -242h323z" />
    <glyph glyph-name=".null" horiz-adv-x="0" 
 />
    <glyph glyph-name="nonmarkingreturn" 
 />
    <glyph glyph-name="space" unicode=" " horiz-adv-x="271" 
 />
    <glyph glyph-name="exclam" unicode="!" 
d="M78 73q0 37 26 62.5t63 25.5q36 0 62 -25.5t26 -62.5t-26 -63t-62 -26t-62.5 26t-26.5 63zM139 218l-43 298q-8 56 -8 83q0 14 1.5 23.5t8 23t24 21t44.5 7.5q26 0 43 -7.5t23.5 -21t8.5 -23t2 -23.5q0 -10 -9 -73l-41 -308h-54z" />
    <glyph glyph-name="quotedbl" unicode="&#x22;" horiz-adv-x="552" 
d="M406 349h-24l-51 187q-10 38 -10 63q0 32 21 53.5t51 21.5q33 0 53 -21.5t20 -51.5q0 -17 -12 -65zM171 349h-24l-51 187q-10 38 -10 63q0 32 21 53.5t51 21.5q33 0 53 -21.5t20 -51.5q0 -17 -12 -65z" />
    <glyph glyph-name="numbersign" unicode="#" horiz-adv-x="667" 
d="M38 497h151l40 187h92l-40 -187h173l40 187h92l-40 -187h83v-93h-100l-30 -147h130v-93h-149l-40 -185h-92l40 185h-175l-39 -185h-92l39 185h-83v93h102l31 147h-133v93zM436 404h-173l-31 -147h175z" />
    <glyph glyph-name="dollar" unicode="$" horiz-adv-x="521" 
d="M219 43v222l-22 11q-69 34 -95 57q-56 50 -56 130q0 13 2.5 28.5t12.5 41t27 46t51.5 39t79.5 24.5v46h57v-44q85 -3 133.5 -41.5t48.5 -79.5q0 -24 -16.5 -40t-36.5 -16q-42 0 -65 69q-7 22 -21 35t-43 19v-185q48 -20 80 -37.5t63.5 -43.5t47 -60t15.5 -77
q0 -66 -49 -126t-157 -73v-90h-57v88q-84 5 -131.5 36t-47.5 71q0 20 13.5 38t42.5 18q26 0 38 -13t26 -44q18 -42 59 -49zM219 429v160q-30 -6 -47.5 -25.5t-17.5 -48.5q0 -53 65 -86zM276 238v-196q30 4 50 16.5t27.5 29.5t9.5 26.5t2 18.5q0 39 -22 60.5t-67 44.5z" />
    <glyph glyph-name="percent" unicode="%" horiz-adv-x="990" 
d="M704 163q0 -74 7.5 -108.5t33.5 -34.5q38 0 38 121q0 70 -6.5 107t-14.5 44.5t-21 7.5q-23 0 -30 -29t-7 -108zM579 157q0 82 43 129.5t119 47.5q45 0 78 -15.5t49.5 -36.5t26 -48.5t11.5 -43.5t2 -30q0 -69 -40.5 -121.5t-124.5 -52.5q-47 0 -81.5 18t-51 46t-24 54.5
t-7.5 52.5zM297 0l339 662h71l-340 -662h-70zM82 497q0 82 43 129.5t119 47.5q45 0 78 -15.5t49.5 -36.5t26 -48.5t11.5 -43.5t2 -30q0 -69 -40.5 -121.5t-124.5 -52.5q-47 0 -81.5 18t-51 46t-24 54.5t-7.5 52.5zM207 503q0 -74 7.5 -108.5t33.5 -34.5q38 0 38 121
q0 70 -6.5 107t-14.5 44.5t-21 7.5q-23 0 -30 -29t-7 -108z" />
    <glyph glyph-name="ampersand" unicode="&#x26;" horiz-adv-x="771" 
d="M359 385l135 -176q53 77 53 108q0 34 -43 34v52h199v-52q-31 -7 -51.5 -23.5t-55.5 -72.5q-34 -54 -65 -94q38 -48 59.5 -66.5t44.5 -18.5q48 0 55 68h55q0 -47 -16.5 -80.5t-42.5 -49t-49.5 -21.5t-47.5 -6q-84 0 -157 73q-100 -74 -191 -74q-81 0 -138.5 53t-57.5 124
q0 64 45.5 115t107.5 83q-18 30 -26 45.5t-15.5 41t-7.5 52.5q0 69 45.5 109t118.5 40q70 0 110.5 -33t40.5 -87q0 -88 -105 -144zM389 104l-157 205q-48 -28 -48 -77q0 -46 39 -101t94 -55q39 0 72 28zM321 436q59 40 59 87q0 30 -16 51t-48 21q-23 0 -37 -15t-14 -36
q0 -42 56 -108z" />
    <glyph glyph-name="quotesingle" unicode="'" horiz-adv-x="281" 
d="M153 349h-24l-51 187q-10 38 -10 63q0 32 21 53.5t51 21.5q33 0 53 -21.5t20 -51.5q0 -17 -12 -65z" />
    <glyph glyph-name="parenleft" unicode="(" horiz-adv-x="344" 
d="M320 -243h-76q-149 197 -149 456q0 114 34.5 238t114.5 223h76q-30 -45 -47 -76t-44 -91t-40.5 -134t-13.5 -159q0 -81 13.5 -153.5t39 -131t42 -89.5t42.5 -71z" />
    <glyph glyph-name="parenright" unicode=")" horiz-adv-x="344" 
d="M24 674h76q149 -197 149 -456q0 -114 -34.5 -238t-114.5 -223h-76q30 45 47 76t44 91t40.5 134t13.5 159q0 81 -13.5 154t-38 130.5t-42.5 90.5t-43 70z" />
    <glyph glyph-name="asterisk" unicode="*" horiz-adv-x="531" 
d="M265 395q-24 -51 -41 -122q-16 -67 -63 -67q-27 0 -50 20.5t-23 45.5q0 17 11.5 32.5t24 24t34.5 20.5q39 21 82 63q-36 6 -67 6q-6 0 -37.5 -2.5t-36.5 -2.5q-73 0 -73 61q0 27 17.5 49t42.5 22q19 0 33.5 -8.5t50.5 -39.5q26 -22 79 -54q-8 56 -26 102q-23 57 -23 71
q0 22 15.5 40t48.5 18q30 0 47 -16.5t17 -40.5q0 -21 -19 -67q-17 -39 -28 -107q33 16 79 56q20 18 25.5 23t17.5 13.5t20 10.5t19 2q28 0 45.5 -23t17.5 -50q0 -30 -20.5 -45t-44.5 -15q-6 0 -37.5 2t-36.5 2q-34 0 -76 -6q35 -32 50.5 -43.5t57.5 -35.5q44 -25 44 -61
q0 -26 -23.5 -46.5t-49.5 -20.5q-22 0 -37 16.5t-20 31.5t-10 39q-11 52 -37 102z" />
    <glyph glyph-name="plus" unicode="+" horiz-adv-x="667" 
d="M62 381h220v220h102v-220h220v-102h-220v-220h-102v220h-220v102z" />
    <glyph glyph-name="comma" unicode="," 
d="M74 -194v58q60 5 92.5 35.5t32.5 64.5q0 25 -20 25l-18 -3q-12 -4 -21 -4q-27 0 -51 22t-24 60q0 35 23.5 63t68.5 28q52 0 82.5 -39.5t30.5 -106.5q0 -53 -19 -94t-49.5 -63.5t-62.5 -33.5t-65 -12z" />
    <glyph glyph-name="hyphen" unicode="-" horiz-adv-x="344" 
d="M28 133v132h289v-132h-289z" />
    <glyph glyph-name="period" unicode="." 
d="M78 73q0 37 26 62.5t63 25.5q36 0 62 -25.5t26 -62.5t-26 -63t-62 -26t-62.5 26t-26.5 63z" />
    <glyph glyph-name="slash" unicode="/" horiz-adv-x="625" 
d="M418 662h139l-349 -678h-140z" />
    <glyph glyph-name="zero" unicode="0" horiz-adv-x="542" 
d="M39 336q0 170 66.5 253t164.5 83q31 0 60.5 -8t61.5 -31.5t55.5 -60t39 -99t15.5 -143.5q0 -176 -64.5 -260t-167.5 -84q-16 0 -32.5 2t-40.5 10.5t-44.5 23t-42 41t-36.5 62t-25 90t-10 121.5zM203 334q0 -163 13 -227.5t58 -64.5q40 0 52 57t12 209q0 180 -12.5 244
t-56.5 64q-15 0 -26.5 -9t-18.5 -29.5t-11.5 -42.5t-6.5 -58.5t-2.5 -66t-0.5 -76.5z" />
    <glyph glyph-name="one" unicode="1" horiz-adv-x="542" 
d="M113 0v54h25q37 0 49 13.5t12 45.5v369q0 54 -15 66.5t-80 12.5v52q129 7 202 59h51v-556q0 -17 1 -25t6 -18.5t18 -14.5t34 -4h25v-54h-328z" />
    <glyph glyph-name="two" unicode="2" horiz-adv-x="542" 
d="M59 0v46q125 114 192 223q71 116 71 220q0 51 -21.5 88t-65.5 37q-33 0 -56 -24t-23 -54q0 -20 10 -46q1 -3 4 -8.5t5.5 -10.5t2.5 -6q0 -5 -4.5 -7.5t-24.5 -10.5l-35 -14q-20 -8 -26 -8q-11 0 -21 29t-10 56q0 74 63.5 118t150.5 44q93 0 154 -48.5t61 -128.5
q0 -31 -7.5 -58t-27.5 -58t-35 -50t-48 -58q-83 -98 -155 -171h279l-25 -140h-51q6 27 -1 33.5t-33 6.5h-323z" />
    <glyph glyph-name="three" unicode="3" horiz-adv-x="542" 
d="M324 389q61 3 110 -38.5t49 -125.5q0 -109 -84.5 -174t-199.5 -65q-77 0 -123 29t-46 72q0 29 20 46t43 17q28 0 42 -17t23 -45q16 -46 58 -46q40 0 75 35q28 29 28 124q0 57 -7 87t-16.5 37.5t-26.5 7.5q-19 0 -39 -17q-3 -3 -8 -7.5t-6.5 -6t-5 -4t-5.5 -3.5t-5.5 -1.5
t-6.5 -0.5q-12 0 -19.5 10.5t-7.5 20.5q0 13 8 20.5t54 38.5q86 58 86 141q0 48 -24.5 68.5t-51.5 20.5q-29 0 -53 -19t-24 -47q0 -23 15 -40q10 -12 10 -15q0 -5 -42.5 -23t-52.5 -18q-15 0 -24.5 24.5t-9.5 45.5q0 66 69.5 108.5t153.5 42.5q43 0 83 -11t71.5 -39.5
t31.5 -70.5q0 -27 -13.5 -53.5t-31.5 -44t-40 -32.5t-35.5 -22t-21.5 -10z" />
    <glyph glyph-name="four" unicode="4" horiz-adv-x="542" 
d="M258 226h-224v74l299 369h83v-375h86v-68h-86v-104q0 -18 1 -25.5t6.5 -20t20 -17.5t38.5 -5h21v-54h-334v54h25q44 0 54 15t10 55v102zM97 294h161v200z" />
    <glyph glyph-name="five" unicode="5" horiz-adv-x="542" 
d="M88 333l11 331h330l-31 -69q-9 -19 -21 -26t-41 -7h-187l-4 -156q19 18 51 29q33 11 66 11t68.5 -11.5t70.5 -35t57 -68t22 -102.5q0 -51 -17.5 -93t-45.5 -69.5t-64.5 -46t-73.5 -26.5t-74 -8q-70 0 -124 28t-54 76q0 23 18.5 40t41.5 17q25 0 39 -15.5t29 -46.5
q7 -15 25 -28.5t43 -13.5q26 0 44 13.5t26.5 30.5t13.5 47t5.5 47.5t0.5 47.5q0 25 -0.5 39.5t-5 39.5t-13 39t-26.5 25.5t-43 11.5q-22 0 -38 -9t-22.5 -17.5t-15.5 -24.5h-61z" />
    <glyph glyph-name="six" unicode="6" horiz-adv-x="542" 
d="M210 398q48 24 90 24q29 0 60 -9.5t64 -31t54 -65t21 -103.5q0 -108 -68.5 -167.5t-154.5 -59.5q-40 0 -78.5 15t-74.5 46t-58 90t-22 138q0 100 27 179t72 125t98 69.5t111 23.5q59 0 96 -23t37 -55q0 -21 -16 -39t-40 -18q-17 0 -30.5 9.5t-32.5 35.5q-23 31 -54 31
q-29 0 -49 -21.5t-30.5 -61t-14.5 -66.5t-7 -66zM201 206q0 -82 17 -123t56 -41q37 0 49 35t12 109q0 45 -2 73.5t-9 55t-21 39t-36 12.5q-24 0 -38 -12.5t-20 -40t-7 -48t-1 -59.5z" />
    <glyph glyph-name="seven" unicode="7" horiz-adv-x="542" 
d="M398 541h-227q-18 0 -26 -1t-18 -5.5t-16 -15.5t-11 -30h-53l65 201h54q-5 -14 -0.5 -20t26.5 -6h307l-185 -588q-16 -49 -33.5 -69.5t-49.5 -20.5q-29 0 -49.5 16t-20.5 42q0 24 34 92z" />
    <glyph glyph-name="eight" unicode="8" horiz-adv-x="542" 
d="M205 351q-20 4 -32 7.5t-37.5 15t-40.5 26t-27.5 41.5t-12.5 61q0 48 20.5 83t54 53t68.5 26t72 8q40 0 76.5 -9t69 -27.5t52 -53t19.5 -80.5q0 -39 -16 -69t-42.5 -46.5t-46 -24t-39.5 -11.5q19 -4 31 -7t34 -10.5t36.5 -19.5t30 -29.5t23 -45t7.5 -61.5q0 -51 -21 -90
t-56 -60.5t-74 -31.5t-81 -10q-37 0 -73.5 8t-75 27.5t-62.5 59.5t-24 95q0 150 167 175zM202 191q0 -29 0.5 -41.5t2 -34.5t6 -32t12 -22t20 -16.5t29.5 -4.5q20 0 33.5 8.5t20.5 19.5t10.5 32.5t4 35t0.5 39.5q0 83 -13 114.5t-59 31.5q-20 0 -33 -8t-20 -17.5t-10 -30.5
t-3.5 -33.5t-0.5 -40.5zM210 508q0 -25 0.5 -37t2 -31t5.5 -28t10.5 -19t17.5 -14t26 -4q36 0 48 30.5t12 99.5q0 34 -3 55.5t-17.5 39.5t-41.5 18q-14 0 -25 -4.5t-17.5 -14t-10 -18t-5 -23.5t-2 -24t-0.5 -26z" />
    <glyph glyph-name="nine" unicode="9" horiz-adv-x="542" 
d="M332 260q-48 -24 -90 -24q-29 0 -60 9.5t-64 31t-54 65t-21 103.5q0 108 68.5 167.5t154.5 59.5q40 0 78.5 -15t74.5 -46t58 -90t22 -138q0 -100 -27 -179t-72 -125t-98 -69.5t-111 -23.5q-59 0 -96 23t-37 55q0 21 16 39t40 18q17 0 30.5 -9.5t32.5 -35.5q23 -31 54 -31
q29 0 49 21.5t30.5 61t14.5 66.5t7 66zM341 452q0 82 -17 123t-56 41q-37 0 -49 -35t-12 -109q0 -45 2 -73.5t9 -55t21 -39t36 -12.5q24 0 38 12.5t20 40t7 48t1 59.5z" />
    <glyph glyph-name="colon" unicode=":" 
d="M78 328q0 37 26 62.5t63 25.5q36 0 62 -25.5t26 -62.5t-26 -63t-62 -26t-62.5 26t-26.5 63zM78 73q0 37 26 62.5t63 25.5q36 0 62 -25.5t26 -62.5t-26 -63t-62 -26t-62.5 26t-26.5 63z" />
    <glyph glyph-name="semicolon" unicode=";" 
d="M74 -194v58q60 5 92.5 35.5t32.5 64.5q0 25 -20 25l-18 -3q-12 -4 -21 -4q-27 0 -51 22t-24 60q0 35 23.5 63t68.5 28q52 0 82.5 -39.5t30.5 -106.5q0 -53 -19 -94t-49.5 -63.5t-62.5 -33.5t-65 -12zM78 328q0 37 26 62.5t63 25.5q36 0 62 -25.5t26 -62.5t-26 -63
t-62 -26t-62.5 26t-26.5 63z" />
    <glyph glyph-name="less" unicode="&#x3c;" horiz-adv-x="667" 
d="M605 57l-543 226v93l543 226v-110l-403 -162l403 -162v-111z" />
    <glyph glyph-name="equal" unicode="=" horiz-adv-x="667" 
d="M62 497h542v-102h-542v102zM62 265h542v-102h-542v102z" />
    <glyph glyph-name="greater" unicode="&#x3e;" horiz-adv-x="667" 
d="M62 602l543 -226v-93l-543 -226v110l403 162l-403 162v111z" />
    <glyph glyph-name="question" unicode="?" horiz-adv-x="479" 
d="M142 220v162h47q13 -17 34 -17q20 0 33 12.5t18 32.5t6 31t1 22q0 156 -77 156q-41 0 -52 -44q-10 -39 -28 -50q-12 -7 -30 -7q-19 0 -36.5 13.5t-17.5 34.5q0 39 49 73.5t129 34.5q104 0 161.5 -57.5t57.5 -142.5t-53.5 -130t-117.5 -45q-30 0 -63 11v-90h-61zM84 73
q0 37 26 62.5t63 25.5q36 0 62 -25.5t26 -62.5t-26 -63t-62 -26t-62.5 26t-26.5 63z" />
    <glyph glyph-name="at" unicode="@" horiz-adv-x="927" 
d="M576 449l119 5l-93 -317q-11 -40 -11 -65q0 -16 11 -28t29 -12q25 0 60 21t69 58t57.5 97t23.5 127q0 82 -34.5 151t-107 113.5t-171.5 44.5q-133 0 -233.5 -66.5t-149.5 -167.5t-49 -217q0 -174 109.5 -279.5t272.5 -105.5q75 0 148.5 24.5t145 88t106.5 157.5h30
q-28 -69 -67.5 -122t-83 -83.5t-83.5 -50.5t-83 -28t-66.5 -10.5t-46.5 -2.5q-186 0 -309.5 119.5t-123.5 309.5q0 122 54 226t163.5 171t254.5 67q89 0 158 -28t110 -75t62 -105t21 -122q0 -136 -80.5 -241.5t-211.5 -105.5q-100 0 -100 87q0 10 12 70q-19 -33 -29.5 -49
t-35 -47t-50.5 -46t-54 -15q-43 0 -62.5 32.5t-19.5 77.5q0 70 27 138.5t66 115.5t82.5 76.5t76.5 29.5q63 0 70 -80zM503 432q-34 0 -68 -65t-53 -134.5t-19 -100.5q0 -23 9 -34.5t20 -11.5q26 0 60 45t59.5 112.5t25.5 122.5q0 34 -11 50t-23 16z" />
    <glyph glyph-name="A" unicode="A" horiz-adv-x="631" 
d="M153 179l-12 -31q-14 -35 -14 -51q0 -20 13 -30t24.5 -11.5t31.5 -1.5v-54h-219v54q37 0 64 35.5t41 71.5l204 513h57l207 -513q10 -25 17 -39t19.5 -32.5t29.5 -27t38 -8.5v-54h-328v54q20 0 31 1t22.5 8t11.5 21q0 8 -2.5 15.5t-7 16.5t-5.5 13l-19 50h-204zM253 433
l-79 -198h161z" />
    <glyph glyph-name="B" unicode="B" horiz-adv-x="688" 
d="M372 0h-347v54q55 0 70.5 17.5t15.5 63.5v389q0 44 -15 62t-71 18v54q216 8 254 8q129 0 182 -10q69 -13 110 -50.5t41 -98.5q0 -32 -14 -58.5t-32.5 -42t-45 -28t-42.5 -17.5t-33 -9q20 -3 40.5 -8t50.5 -18t52 -31.5t38 -50t16 -71.5q0 -173 -270 -173zM284 610v-230
h34q56 0 81 27t25 86q0 34 -9.5 57.5t-22 35t-34 17.5t-36 6.5t-38.5 0.5zM316 321h-32v-188q0 -15 1.5 -24t7.5 -22.5t22 -20.5t42 -7q94 0 94 130q0 27 -4.5 48.5t-11 35.5t-18.5 23.5t-21.5 14t-26.5 7t-26 3t-27 0.5z" />
    <glyph glyph-name="C" unicode="C" horiz-adv-x="750" 
d="M685 255v-249h-55q-10 38 -28 64q-16 -17 -38 -32.5t-72 -33.5t-106 -18q-83 0 -150 30.5t-107.5 80t-62 108.5t-21.5 120q0 49 13 97.5t41 94t68 80.5t97.5 56t125.5 21q119 0 205 -80q13 34 20 59h54l6 -244h-53q-3 24 -16 55t-36.5 65.5t-64.5 57.5t-91 23
q-46 0 -79.5 -19.5t-50.5 -47.5t-27 -72.5t-12 -79t-2 -83.5q0 -126 41 -192t136 -66q71 0 129 51.5t81 153.5h55z" />
    <glyph glyph-name="D" unicode="D" horiz-adv-x="802" 
d="M29 0v54q55 0 71 18t16 63v392q0 46 -15.5 63.5t-71.5 17.5v54q2 1 50.5 2t113.5 2.5t104 1.5q121 0 190.5 -13t127.5 -54q136 -97 136 -274q0 -107 -53.5 -185.5t-144.5 -114.5q-40 -16 -97.5 -21.5t-187.5 -5.5h-239zM289 611v-457q0 -24 0.5 -34.5t4.5 -25t12.5 -20.5
t24 -10.5t39.5 -4.5q183 0 183 269q0 58 -10.5 104.5t-26 75.5t-41 50t-45.5 31t-51 15.5t-47 6t-43 0.5z" />
    <glyph glyph-name="E" unicode="E" horiz-adv-x="667" 
d="M287 317v-164q0 -31 1.5 -43.5t11.5 -27t32 -19t61 -4.5q25 0 39 1t40 9t42.5 23.5t34.5 47.5t29 77h54l-4 -217h-605v54q57 0 74 16.5t17 64.5v392q0 48 -16.5 64.5t-74.5 16.5v54h563l10 -171h-54q-13 41 -27 65t-32.5 33.5t-31.5 11.5t-40 2h-124v-227h62q20 0 30.5 2
t22.5 9t17 24.5t5 45.5h55v-224h-55q0 54 -17 69t-56 15h-64z" />
    <glyph glyph-name="F" unicode="F" horiz-adv-x="583" 
d="M287 317v-182q0 -42 15 -61.5t66 -19.5h13v-54h-356v54q56 0 72.5 17t16.5 64v392q0 48 -16.5 64.5t-74.5 16.5v54h555l5 -175h-56q-9 34 -21.5 57t-23.5 34.5t-29 17.5t-28 6.5t-31 0.5h-107v-227h52q37 0 51.5 15t18.5 65h54v-227h-54q-3 49 -16 68.5t-55 19.5h-51z
" />
    <glyph glyph-name="G" unicode="G" horiz-adv-x="792" 
d="M461 252v54h310v-54q-39 -7 -49 -23.5t-10 -62.5v-138q-58 3 -146 -15q-5 -1 -37 -8t-47.5 -9.5t-44 -6t-53.5 -3.5q-102 0 -180.5 49.5t-117.5 125.5t-39 161q0 90 41.5 169.5t121.5 131t181 51.5q113 0 207 -76q15 31 19 69h52l6 -231h-53q-53 168 -197 168
q-41 0 -72.5 -13t-50.5 -37.5t-31 -51t-17.5 -63t-7 -62.5t-1.5 -60q0 -43 2 -73t11.5 -70t26 -64.5t49 -42t78.5 -17.5q36 0 61.5 9t38 21t19 30.5t7.5 29t1 25.5v24q0 33 -20 47t-58 16z" />
    <glyph glyph-name="H" unicode="H" horiz-adv-x="844" 
d="M286 317v-182q0 -44 15 -62.5t70 -18.5v-54h-345v54q55 0 71 18t16 63v392q0 45 -15.5 63t-71.5 18v54h345v-54q-55 0 -70 -18.5t-15 -62.5v-148h272v148q0 22 -2 33.5t-9.5 24t-25.5 18t-47 5.5v54h344v-54q-56 0 -71.5 -17.5t-15.5 -63.5v-392q0 -45 15.5 -63t71.5 -18
v-54h-344v54q54 0 69 18.5t15 62.5v182h-272z" />
    <glyph glyph-name="I" unicode="I" horiz-adv-x="406" 
d="M27 608v54h351v-54q-57 0 -73.5 -17t-16.5 -64v-392q0 -47 16 -64t74 -17v-54h-351v54q56 0 72 17.5t16 63.5v392q0 45 -15.5 63t-72.5 18z" />
    <glyph glyph-name="J" unicode="J" horiz-adv-x="385" 
d="M12 608v54h357v-54q-56 0 -72 -17.5t-16 -63.5v-471v-13q1 -25 0.5 -41t-5.5 -48.5t-14 -54.5t-29 -49.5t-47.5 -44.5t-72 -29t-100.5 -12q-74 0 -122 27.5t-48 71.5q0 29 24 50t62 21q32 0 52.5 -15t20.5 -45q0 -8 -3 -19t-3 -14q0 -23 37 -23q25 0 40.5 11.5t23 38
t9.5 57t2 82.5v520q0 20 -1.5 30.5t-8 24.5t-24 20t-45.5 6h-17z" />
    <glyph glyph-name="K" unicode="K" horiz-adv-x="764" 
d="M284 262v-127q0 -47 15.5 -64t66.5 -17v-54h-345v54q56 0 73 15.5t17 65.5v392q0 49 -16.5 65t-73.5 16v54h353v-54q-26 0 -44 -5t-27 -11t-13.5 -19.5t-5 -21.5t-0.5 -27v-182l179 165q47 44 47 71q0 30 -59 30v54h293v-54q-37 0 -76 -18.5t-65.5 -39.5t-67.5 -58
l-60 -55l182 -271q44 -65 74.5 -88.5t81.5 -23.5v-54h-380v54q74 0 74 30q0 6 -0.5 10t-3 9t-5 8t-9 12.5t-12.5 17.5l-126 183z" />
    <glyph glyph-name="L" unicode="L" horiz-adv-x="635" 
d="M628 220l-3 -220h-603v54q54 0 71.5 14t17.5 67v392q0 47 -16 64t-73 17v54h355v-54q-58 0 -75.5 -16t-17.5 -65v-378q0 -29 1.5 -41t11 -26t31 -18.5t59.5 -4.5q20 0 34 1t41 9.5t46 24t38.5 48t29.5 78.5h52z" />
    <glyph glyph-name="M" unicode="M" horiz-adv-x="990" 
d="M415 0l-246 520v-346q0 -20 1 -34t6.5 -31.5t15 -28.5t27 -18.5t42.5 -7.5v-54h-238v54q14 0 25.5 2.5t20 6.5t15.5 11t11 13t7.5 15.5t5 15.5t2 17t0.5 15v14v11v350q0 23 -1.5 34t-9 24.5t-26.5 19t-50 5.5v54h266l204 -435l206 435h266v-54h-14q-28 0 -45 -6
t-24 -19.5t-8.5 -24t-1.5 -31.5v-392q0 -20 1.5 -30.5t8 -24.5t24 -20t45.5 -6h16v-54h-361v54q58 0 75.5 16t17.5 65v394l-246 -529h-38z" />
    <glyph glyph-name="N" unicode="N" horiz-adv-x="781" 
d="M181 474v-305q0 -19 0.5 -29.5t5.5 -29t14.5 -29t28.5 -19t46 -8.5v-54h-249v54q95 0 92 111v4v338q0 101 -95 101v54h223l364 -405v242q0 109 -92 109v54h238v-54q-84 0 -84 -110v-509h-63z" />
    <glyph glyph-name="O" unicode="O" horiz-adv-x="833" 
d="M46 333q0 58 22 116.5t65 109.5t116 83t164 32q79 0 144.5 -22t107 -57.5t70 -82t40.5 -92.5t12 -92q0 -62 -22 -121t-65.5 -109.5t-116.5 -81t-165 -30.5q-172 0 -272 97.5t-100 249.5zM248 338q0 -288 165 -288q89 0 130 64.5t41 214.5q0 153 -43.5 217t-125.5 64
q-167 0 -167 -272z" />
    <glyph glyph-name="P" unicode="P" horiz-adv-x="635" 
d="M283 293v-158q0 -20 1.5 -30.5t8.5 -24.5t24 -20t46 -6h15v-54h-359v54q57 0 74 16.5t17 64.5v392q0 20 -1.5 30.5t-8 24.5t-24 20t-45.5 6h-16v54l268 6q133 3 196 -13q46 -11 78 -32.5t47.5 -47.5t21.5 -49t6 -47q0 -59 -35 -103.5t-101 -65.5q-53 -17 -164 -17h-49z
M283 609v-257h33q19 0 32.5 1t33.5 8t32.5 19.5t21.5 37t9 58.5q0 38 -11 64.5t-24.5 40t-39.5 20t-41.5 7.5t-45.5 1z" />
    <glyph glyph-name="Q" unicode="Q" horiz-adv-x="833" 
d="M524 -2l-80 -47q50 10 157 -37q95 -42 169 -42q82 0 126 58h53q-13 -83 -68 -134t-150 -51q-32 0 -61 7t-44.5 12t-40.5 24t-29.5 23.5t-30.5 28.5q-63 59 -117 59q-43 0 -79 -36l-15.5 -15.5t-11.5 -9.5t-13.5 -8t-12.5 -2q-14 0 -22.5 10t-8.5 23q0 37 118 103
q19 11 40 24q-77 2 -139.5 25t-102 57.5t-66.5 79t-38 89t-11 88.5q0 64 23 124.5t67 111t117 81t164 30.5q74 0 136.5 -20.5t105 -55t72 -79.5t43 -93.5t13.5 -97.5q0 -48 -14 -95.5t-43 -95t-82 -84.5t-124 -55zM248 338q0 -288 165 -288q89 0 130 64.5t41 214.5
q0 153 -43.5 217t-125.5 64q-167 0 -167 -272z" />
    <glyph glyph-name="R" unicode="R" horiz-adv-x="750" 
d="M285 292v-157q0 -47 16.5 -64t74.5 -17v-54h-357v54q58 0 75.5 16t17.5 65v392q0 48 -17 64.5t-76 16.5v54h355q84 0 122 -10q79 -21 111 -69.5t32 -98.5q0 -117 -134 -160q25 -19 42 -40.5t48 -68.5l67 -100q40 -61 92 -61v-54h-207q-34 44 -122 203q-35 64 -56 76
t-84 13zM285 603v-251q27 -4 57 -1t56 11t43 38t17 79q0 35 -9.5 59.5t-23.5 37.5t-38.5 19.5t-46 7.5t-55.5 0z" />
    <glyph glyph-name="S" unicode="S" horiz-adv-x="563" 
d="M55 11v227h59q7 -32 19.5 -62.5t33.5 -60t53.5 -47.5t71.5 -18q44 0 68 25.5t24 57.5q0 57 -89 101q-50 25 -74 37.5t-58 32.5t-49 35t-31.5 37t-22 46t-5.5 54q0 84 62 141t141 57q85 0 143 -57q14 23 17 45h55v-195h-55q-17 74 -59.5 111t-87.5 37t-64.5 -24t-19.5 -50
q0 -41 29 -63t131 -70q88 -41 135 -90t47 -127q0 -91 -66.5 -148t-153.5 -57q-45 0 -94 19t-85 60q-11 -24 -16 -54h-59z" />
    <glyph glyph-name="T" unicode="T" horiz-adv-x="719" 
d="M273 603h-58q-21 0 -33 -1t-32 -7.5t-31.5 -19t-22 -38.5t-13.5 -63h-55v188h663v-188h-55q-8 36 -19 61t-22.5 38t-28.5 20t-30 8.5t-35 1.5h-55v-468q0 -21 1.5 -31t8 -24t23.5 -20t46 -6h17v-54h-365v54h16q28 0 45 6t24.5 19.5t9 24.5t1.5 31v468z" />
    <glyph glyph-name="U" unicode="U" horiz-adv-x="771" 
d="M17 608v54h350v-54q-57 0 -73.5 -17t-16.5 -64v-261q0 -86 18 -127q17 -40 55.5 -62t84.5 -22q49 0 92.5 24t59.5 64q19 47 19 141v222q0 102 -98 102v54h245v-54q-85 0 -85 -100v-226q0 -48 -2 -74.5t-15.5 -66t-40.5 -70.5q-35 -40 -95 -62.5t-125 -22.5q-32 0 -66 6
t-72 19.5t-70.5 41t-50.5 66.5q-13 27 -19 54t-7 43.5t-1 49.5v261q0 45 -15.5 63t-71.5 18z" />
    <glyph glyph-name="V" unicode="V" horiz-adv-x="708" 
d="M332 -14l-225 505q-35 77 -45 91q-27 25 -76 26v54h352v-54q-22 0 -37 -3.5t-22 -7.5t-10.5 -10.5t-3.5 -8.5v-6q0 -18 15 -53l141 -314l121 283q21 48 21 74q0 46 -74 46v54h233v-54q-43 0 -65.5 -27t-63.5 -124l-201 -471h-60z" />
    <glyph glyph-name="W" unicode="W" horiz-adv-x="938" 
d="M237 -14l-161 525q-19 63 -34 80t-53 17v54h301v-54q-54 0 -54 -33q0 -21 11 -56l90 -288l139 431h76l168 -430l64 233q18 68 18 86q0 30 -19 43.5t-46 13.5v54h212v-54q-40 0 -60 -31.5t-43 -114.5l-133 -476h-76l-173 448l-148 -448h-79z" />
    <glyph glyph-name="X" unicode="X" horiz-adv-x="792" 
d="M357 256l-103 -113q-27 -30 -27 -49q0 -40 77 -40v-54h-291v54q45 0 80.5 22.5t79.5 69.5l147 158l-149 192q-33 43 -46 58.5t-32.5 31.5t-36 19t-44.5 3v54h374v-54q-21 0 -30.5 -1t-18 -6.5t-8.5 -17.5q0 -19 23 -48l85 -109l92 102q29 32 29 51q0 29 -64 29v54h265
v-54q-40 -3 -70 -17.5t-47 -31t-54 -56.5l-113 -124l155 -203q38 -49 55.5 -69t47.5 -36.5t66 -16.5v-54h-404v54q43 0 61.5 6.5t18.5 27.5q0 7 -10 26t-20 31z" />
    <glyph glyph-name="Y" unicode="Y" horiz-adv-x="688" 
d="M257 271l-150 250q-30 50 -50.5 68.5t-55.5 18.5v54h332v-54q-54 0 -54 -29q0 -17 20 -49l109 -180l91 152q24 41 24 61q0 45 -64 45v54h227v-54q-28 0 -52.5 -20t-56.5 -70l-147 -236v-147q0 -46 16 -63.5t75 -17.5v-54h-355v54q60 0 75.5 18t15.5 62v137z" />
    <glyph glyph-name="Z" unicode="Z" horiz-adv-x="677" 
d="M34 0v43l371 560h-107q-96 0 -134.5 -20t-57.5 -97h-54l10 176h558v-44l-375 -559h152q30 0 46.5 1.5t41 8.5t40 21t32 41t28.5 66h55l-11 -197h-595z" />
    <glyph glyph-name="bracketleft" unicode="[" horiz-adv-x="427" 
d="M124 -233v895h282v-52h-77q-22 0 -35.5 -4t-19 -14t-6.5 -17.5t-1 -23.5v-680q0 -13 1.5 -20.5t7.5 -16t20.5 -12t37.5 -3.5h72v-52h-282z" />
    <glyph glyph-name="backslash" unicode="\" horiz-adv-x="625" 
d="M207 662l350 -678h-140l-349 678h139z" />
    <glyph glyph-name="bracketright" unicode="]" horiz-adv-x="427" 
d="M303 -233h-282v52h72q23 0 37.5 3.5t20.5 11.5t7.5 15.5t1.5 20.5v682q0 16 -1 23.5t-6.5 17t-19 13.5t-35.5 4h-77v52h282v-895z" />
    <glyph glyph-name="asciicircum" unicode="^" horiz-adv-x="583" 
d="M67 311l200 351h52l198 -351h-119l-106 191l-109 -191h-116z" />
    <glyph glyph-name="underscore" unicode="_" horiz-adv-x="500" 
d="M-6 -75h512v-50h-512v50z" />
    <glyph glyph-name="grave" unicode="`" 
d="M259 482h-42l-227 155v2h198z" />
    <glyph glyph-name="a" unicode="a" horiz-adv-x="563" 
d="M307 264v36v4v8t-0.5 8.5t-2 9.5t-4.5 9.5t-7.5 9.5t-11 7t-16 5t-20.5 2q-22 0 -36.5 -5t-20.5 -15t-8 -14.5t-3 -13.5q-9 -58 -65 -58q-30 0 -45.5 15.5t-15.5 34.5q0 46 59 77.5t169 31.5q62 0 102 -10t57 -30.5t22 -39t5 -47.5v-185q0 -43 26 -43q22 0 27 28h41
q-3 -56 -46 -80q-31 -18 -76 -18q-85 0 -121 51q-72 -51 -155 -51q-64 0 -88.5 28t-24.5 60q0 23 8.5 42.5t28.5 36.5t39 29.5t54.5 27.5t60 24t68.5 25zM307 95v114q-54 -23 -81.5 -45.5t-27.5 -52.5q0 -18 11.5 -33.5t33.5 -15.5q33 0 64 33z" />
    <glyph glyph-name="b" unicode="b" horiz-adv-x="615" 
d="M207 60l-87 -71h-41v534q0 19 -1.5 28.5t-7.5 19.5t-20 13.5t-37 3.5v52l224 34v-308q65 50 139 50q85 0 144 -58.5t59 -154.5q0 -99 -61.5 -157t-145.5 -58q-93 0 -165 72zM237 299v-189q42 -54 90 -54q84 0 84 145q0 146 -82 146q-51 0 -92 -48z" />
    <glyph glyph-name="c" unicode="c" horiz-adv-x="490" 
d="M418 123l50 -22q-15 -39 -43.5 -65t-62 -36t-54.5 -13t-41 -3q-100 0 -167 56.5t-67 150.5q0 102 75 163.5t188 61.5q27 0 53 -4.5t51.5 -14.5t41.5 -30t16 -48q0 -25 -16 -44t-44 -19q-54 0 -69 75q-8 33 -43 33q-86 0 -86 -139q0 -94 26 -135.5t82 -41.5q26 0 47 8.5
t34.5 24.5t18 22.5t10.5 19.5z" />
    <glyph glyph-name="d" unicode="d" horiz-adv-x="615" 
d="M373 363v158q0 18 -1.5 27.5t-7.5 19.5t-20 14t-37 4v52l224 36v-546q0 -19 1.5 -29t8 -19.5t20.5 -13.5t37 -4v-55q-133 -4 -214 -19q-11 25 -11 64q-22 -19 -35.5 -29t-47 -22.5t-71.5 -12.5q-88 0 -135.5 58.5t-47.5 148.5q0 59 17.5 102.5t40.5 65.5t54 35t49.5 15.5
t36.5 2.5q88 0 139 -53zM373 120v185q-38 38 -85 38q-27 0 -45 -11t-26 -32.5t-11 -42.5t-3 -50q0 -146 77 -146q22 0 49 13.5t44 45.5z" />
    <glyph glyph-name="e" unicode="e" horiz-adv-x="525" 
d="M429 103l46 -27q-30 -42 -81.5 -67t-113.5 -25q-100 0 -167 60.5t-67 157.5q0 99 66.5 156.5t161.5 57.5q35 0 69 -9.5t68.5 -31t55.5 -65.5t21 -105h-275q0 -160 111 -160q58 0 105 58zM213 254h125q-3 108 -63 108q-62 0 -62 -108z" />
    <glyph glyph-name="f" unicode="f" horiz-adv-x="354" 
d="M257 348v-231q0 -18 1 -26.5t6.5 -19t19 -15t36.5 -4.5h26v-52h-327v52h17q42 0 52.5 15t10.5 50v231h-80v52h80q0 109 14 150q13 38 40 65t60 38.5t60 16t53 4.5q62 0 109 -22t47 -71q0 -29 -21 -50.5t-51 -21.5q-27 0 -47 18t-27 48q-4 14 -6.5 21.5t-11 15.5t-20.5 8
q-41 0 -41 -102v-118h89v-52h-89z" />
    <glyph glyph-name="g" unicode="g" horiz-adv-x="542" 
d="M164 142v2q-37 10 -62 29t-34.5 41t-12.5 35.5t-3 25.5q0 66 56 103t157 37q100 0 155 -42q52 43 86 43q22 0 35 -13t13 -35q0 -39 -33 -39q-15 0 -28 13q-12 12 -22 12t-22 -12q19 -31 19 -68q0 -45 -20.5 -75.5t-57 -44.5t-67.5 -19.5t-71 -7.5q-23 -1 -31.5 -2
t-26 -4.5t-25 -11.5t-7.5 -20q0 -26 64 -26q13 0 53 1.5t58 1.5q37 0 65.5 -5t59 -18.5t47 -43.5t16.5 -74q0 -72 -63.5 -122.5t-202.5 -50.5q-21 0 -39 0.5t-54.5 6.5t-61.5 16t-45 31.5t-20 51.5q0 25 17 41t38 16q20 0 42 -11q-7 -19 -7 -32q0 -68 137 -68q169 0 169 83
q0 26 -21.5 37.5t-87.5 11.5q-41 0 -62.5 0.5t-54 2.5t-50 5.5t-39 11t-32 18.5t-18 27.5t-7.5 38.5q0 79 101 102zM204 278q0 -94 58 -94q29 0 43 22t14 73q0 84 -58 84q-57 0 -57 -85z" />
    <glyph glyph-name="h" unicode="h" horiz-adv-x="604" 
d="M241 270v-153q0 -65 49 -65v-52h-272v52q43 0 54 14.5t11 50.5v402q0 18 -1.5 26.5t-7 19t-19.5 14.5t-37 4v52l223 39v-329q63 71 146 71q65 0 105 -36.5t40 -105.5v-157q0 -35 14 -50t49 -15v-52h-272v52q30 0 40.5 16t10.5 50v153q0 62 -48 62q-37 0 -85 -63z" />
    <glyph glyph-name="i" unicode="i" 
d="M250 416v-299q0 -25 3 -36.5t17.5 -20t45.5 -8.5v-52h-298v52q47 0 60.5 12t13.5 53v145q0 40 -13 52.5t-61 12.5v52zM85 586q0 36 26 62t62 26q37 0 62.5 -26t25.5 -62q0 -39 -26 -63.5t-62 -24.5q-39 0 -63.5 27.5t-24.5 60.5z" />
    <glyph glyph-name="j" unicode="j" horiz-adv-x="323" 
d="M267 416v-398q0 -60 -2 -88t-13.5 -60.5t-35.5 -54.5q-66 -60 -178 -60q-53 0 -88.5 18.5t-35.5 52.5q0 25 17.5 42t43.5 17q43 0 59 -45q4 -9 6 -14t9.5 -10.5t17.5 -5.5q15 0 24 9.5t12.5 31.5t4.5 38.5t1 49.5v322q0 18 -1 26.5t-6.5 19t-19 15t-36.5 4.5h-15v52z
M95 586q0 36 26 62t62 26q37 0 62.5 -26t25.5 -62q0 -39 -26 -63.5t-62 -24.5q-39 0 -63.5 27.5t-24.5 60.5z" />
    <glyph glyph-name="k" unicode="k" horiz-adv-x="604" 
d="M241 159v-42q0 -16 1 -24.5t5.5 -19t16 -15.5t30.5 -6v-52h-278v52q44 0 55.5 13.5t11.5 51.5v405q0 25 -3 37t-18 20t-46 8v52l225 35v-451l100 73q34 24 34 36q0 6 -2.5 9.5t-9.5 4.5t-12 1.5t-17 0.5v52h223v-52q-33 0 -59 -10.5t-63 -37.5l-38 -28l102 -136
q23 -31 34 -44.5t27.5 -26.5t31.5 -13v-52h-258v52q32 0 32 18q0 8 -21 35l-62 84z" />
    <glyph glyph-name="l" unicode="l" horiz-adv-x="313" 
d="M237 674v-557q0 -37 11.5 -51t56.5 -14v-52h-297v52q46 0 58.5 13t12.5 52v404q0 39 -12.5 52t-58.5 13v52z" />
    <glyph glyph-name="m" unicode="m" horiz-adv-x="958" 
d="M240 269v-153q0 -17 1 -25.5t6.5 -19t18.5 -15t35 -4.5v-52h-295v52q49 0 62.5 11.5t13.5 52.5v137q0 19 -1.5 28.5t-7.5 19t-20 13t-38 3.5v52l216 36q9 -23 9 -64q65 75 168 75q111 0 144 -85q60 85 166 85q39 0 76.5 -15t58.5 -43q14 -18 20.5 -38.5t7.5 -34t1 -40.5
v-129q0 -38 12.5 -51t58.5 -13v-52h-288v52q28 0 41.5 10t15.5 21t2 33v140q0 82 -61 82q-26 0 -49 -14.5t-31.5 -25t-21.5 -29.5v-153q0 -17 1 -25.5t6.5 -19t18.5 -15t35 -4.5v-52h-278v52q21 0 34 4.5t18 15t6 19t1 25.5v139q0 81 -60 81q-54 0 -103 -67z" />
    <glyph glyph-name="n" unicode="n" horiz-adv-x="604" 
d="M237 275v-159q0 -18 2.5 -30t14 -23t33.5 -11v-52h-274v52q44 0 55 13.5t11 50.5v137q0 19 -1.5 28t-7.5 19t-20 13.5t-37 3.5v52l217 36q8 -22 10 -59q66 70 141 70q70 0 108.5 -39t38.5 -102v-159q0 -18 1 -26.5t6.5 -19t19.5 -14.5t37 -4v-52h-272v52q23 0 34.5 11
t13.5 22t2 31v146q0 70 -45 70q-41 0 -88 -57z" />
    <glyph glyph-name="o" unicode="o" horiz-adv-x="563" 
d="M37 201q0 45 15 82.5t39.5 61.5t57 40.5t65.5 23.5t66 7q38 0 77.5 -10.5t78.5 -33.5t64 -67.5t25 -103.5q0 -71 -38 -122t-92 -73t-114 -22q-25 0 -53 4.5t-63.5 19t-62.5 37t-46 63.5t-19 93zM204 206q0 -29 0.5 -45t4.5 -43t11.5 -42t23.5 -26.5t38 -11.5
q26 0 42.5 14.5t23.5 43t8.5 50t1.5 54.5q0 23 -0.5 36t-2.5 35.5t-7 35.5t-13 27.5t-21.5 21t-32.5 6.5q-22 0 -37.5 -11.5t-23 -26t-11.5 -40t-4.5 -40t-0.5 -38.5z" />
    <glyph glyph-name="p" unicode="p" horiz-adv-x="615" 
d="M238 40v-159q0 -18 1 -26.5t6.5 -19t19 -15t36.5 -4.5h16v-52h-304v52q43 0 55 14t12 51v383q0 19 -1.5 28.5t-8 19t-20.5 13.5t-37 4v51l212 36q10 -38 10 -70q67 70 153 70q77 0 134 -57t57 -154q0 -100 -60 -160.5t-141 -60.5q-73 0 -140 56zM238 280v-181
q39 -42 86 -42q88 0 88 140q0 146 -82 146q-28 0 -53 -18t-39 -45z" />
    <glyph glyph-name="q" unicode="q" horiz-adv-x="615" 
d="M402 346l89 70h42v-535q0 -37 11.5 -51t56.5 -14v-52h-303v52h14q42 0 52.5 15t10.5 50v155q-67 -52 -140 -52q-89 0 -144 58t-55 152q0 109 61 165t144 56q40 0 75.5 -14t50.5 -25t35 -30zM375 101v192q-44 56 -90 56q-82 0 -82 -149q0 -146 80 -146q49 0 92 47z" />
    <glyph glyph-name="r" unicode="r" horiz-adv-x="479" 
d="M248 160v-43q0 -39 13 -52t60 -13v-52h-296v52q43 0 54 14.5t11 50.5v139q0 37 -11.5 51t-54.5 14v52l202 43q15 -45 15 -104q60 104 145 104q43 0 63.5 -26.5t20.5 -56.5q0 -27 -16 -48.5t-49 -21.5q-12 0 -22.5 5t-15.5 10t-17 18q-17 20 -38 20q-64 0 -64 -156z" />
    <glyph glyph-name="s" unicode="s" horiz-adv-x="479" 
d="M50 -16l-3 133h47q38 -83 140 -83q41 0 69.5 14.5t28.5 33.5q0 18 -18.5 26.5t-66.5 17.5q-38 7 -61 12.5t-55.5 18t-51 27t-32 39.5t-13.5 56q0 61 49 99t136 38q61 0 130 -25q14 14 18 25h41l4 -121h-39q-19 38 -60 56.5t-90 18.5q-35 0 -59 -11.5t-24 -31.5
q0 -11 5 -18.5t22 -13.5t32 -9.5t51 -10.5t55 -11.5t50 -16t47 -25.5t29 -38t13 -55q0 -67 -58.5 -106t-136.5 -39q-62 0 -136 27q-13 -10 -19 -27h-44z" />
    <glyph glyph-name="t" unicode="t" horiz-adv-x="365" 
d="M236 348v-209q0 -49 6.5 -68t28.5 -19q34 0 52 41l48 -16q-21 -52 -66 -72.5t-90 -20.5q-137 0 -137 130v234h-58v52q70 -3 112.5 36.5t51.5 96.5h52v-133h120v-52h-120z" />
    <glyph glyph-name="u" unicode="u" horiz-adv-x="604" 
d="M77 130v153q0 17 -1 25.5t-6 19.5t-18 15.5t-35 4.5v52h218v-261q0 -14 1 -22.5t5 -21.5t15 -20t28 -7q38 0 84 62v153q0 18 -1.5 27t-7 19.5t-19.5 14.5t-38 4v52h224v-283q0 -19 1.5 -28.5t7.5 -19.5t20 -13.5t38 -3.5v-52q-121 0 -225 -16v71q-65 -71 -148 -71
q-25 0 -48 6.5t-45.5 21.5t-36 45t-13.5 73z" />
    <glyph glyph-name="v" unicode="v" horiz-adv-x="510" 
d="M210 -8l-139 278q-27 54 -40 66t-37 12v52h261v-52q-45 0 -45 -19q0 -10 23 -51l74 -149l74 148q22 44 22 51q0 20 -41 20v52h153v-52q-25 0 -39 -16.5t-43 -75.5l-133 -264h-90z" />
    <glyph glyph-name="w" unicode="w" horiz-adv-x="781" 
d="M189 -8l-126 290q-19 43 -31 54.5t-39 11.5v52h268v-52q-13 0 -19 -0.5t-14.5 -2t-12.5 -5.5t-4 -11q0 -10 10 -35l63 -150l117 256h83l119 -256l50 123q18 47 18 56q0 25 -57 25v52h174v-52q-26 0 -40 -15.5t-29 -51.5l-122 -289h-86l-121 255l-115 -255h-86z" />
    <glyph glyph-name="x" unicode="x" horiz-adv-x="531" 
d="M229 139l-47 -41q-29 -24 -29 -33t8.5 -11t30.5 -2v-52h-184v52q57 11 113 58l74 64l-94 101q-68 73 -95 73v52h278v-52q-35 0 -35 -13q0 -5 19 -26l36 -40l41 36q23 21 23 31q0 12 -26 12h-8v52h168v-52q-14 0 -33.5 -10t-32.5 -20.5t-42 -33.5l-60 -50l120 -129
q32 -34 44 -42t27 -11v-52h-284v52q47 0 47 15q0 5 -16 23z" />
    <glyph glyph-name="y" unicode="y" horiz-adv-x="531" 
d="M321 138l59 125q23 46 23 60q0 10 -10 18t-32 7v52h160v-52q-25 -2 -39 -16.5t-42 -73.5l-170 -354q-22 -46 -33 -67t-29 -45t-37 -32.5t-45 -8.5q-33 0 -53 19.5t-20 46.5q0 47 66 63q22 5 32.5 8t27 10.5t27.5 19t20 29.5l18 35l-176 302q-29 50 -36 56q-11 7 -33 8v52
h260v-52q-14 -1 -20.5 -2t-12.5 -5.5t-6 -12.5q0 -6 16 -35z" />
    <glyph glyph-name="z" unicode="z" horiz-adv-x="490" 
d="M28 0v41l224 307h-92q-22 0 -32.5 -11t-32.5 -60h-53l10 123h400v-46l-223 -302h89q18 0 28.5 3t27 22.5t32.5 59.5h53l-13 -137h-418z" />
    <glyph glyph-name="braceleft" unicode="{" horiz-adv-x="396" 
d="M334 674v-23q-95 -19 -95 -97q0 -26 11.5 -86t11.5 -86q0 -54 -39.5 -103.5t-123.5 -65.5q73 -18 118.5 -61.5t45.5 -108.5q0 -22 -12 -79t-12 -88q0 -85 95 -101v-24q-52 -1 -93 15t-63.5 42t-34 54t-11.5 53q0 26 13.5 86.5t13.5 88.5q0 30 -11 52t-28.5 33t-30.5 15.5
t-26 6.5v31q33 6 54.5 21t29.5 36t10 32t2 23q0 29 -13 86.5t-13 81.5q0 9 2 21.5t13 39t30.5 47.5t60 38.5t95.5 19.5z" />
    <glyph glyph-name="bar" unicode="|" horiz-adv-x="625" 
d="M248 662h129v-898h-129v898z" />
    <glyph glyph-name="braceright" unicode="}" horiz-adv-x="396" 
d="M62 -249v23q95 19 95 97q0 26 -11.5 86t-11.5 86q0 54 39.5 103.5t123.5 65.5q-73 18 -118.5 61.5t-45.5 108.5q0 22 12 79t12 88q0 85 -95 101v24q52 1 93 -15t63.5 -42t34 -54t11.5 -53q0 -26 -13.5 -86.5t-13.5 -88.5q0 -30 11 -52t28.5 -33t30.5 -15.5t26 -6.5v-31
q-33 -6 -54.5 -21t-29.5 -36t-10 -32t-2 -23q0 -29 13 -86.5t13 -81.5q0 -9 -2 -21.5t-13 -39t-30.5 -47.5t-60 -38.5t-95.5 -19.5z" />
    <glyph glyph-name="asciitilde" unicode="~" horiz-adv-x="667" 
d="M570 426h39q0 -79 -38.5 -136.5t-113.5 -57.5q-35 0 -71 11.5t-114 45.5q-62 27 -96 27q-68 0 -79 -84h-39q10 194 150 194q62 0 187 -55q68 -30 96 -30q33 0 54 22t25 63z" />
    <glyph glyph-name="uni00A0" unicode="&#xa0;" horiz-adv-x="271" 
 />
    <glyph glyph-name="exclamdown" unicode="&#xa1;" 
d="M255 357q0 -37 -26 -62.5t-63 -25.5q-36 0 -62 25.5t-26 62.5t26 63t62 26t62.5 -26t26.5 -63zM194 212l43 -298q8 -56 8 -83q0 -14 -1.5 -23.5t-8 -23t-24 -21t-44.5 -7.5q-26 0 -43 7.5t-23.5 21t-8.5 23t-2 23.5q0 10 9 73l41 308h54z" />
    <glyph glyph-name="cent" unicode="&#xa2;" horiz-adv-x="490" 
d="M254 -16l-34 -173h-53l36 180q-85 19 -127.5 74t-42.5 126q0 91 65.5 155.5t188.5 69.5l39 193h53l-40 -196q40 -6 67 -19t38 -29t14.5 -26.5t3.5 -19.5q0 -26 -18.5 -44.5t-45.5 -18.5q-20 0 -34.5 8.5t-22 26t-10 27.5t-6.5 29l-57 -292q21 -6 40 -6q78 0 111 74
l51 -22q-22 -55 -78 -87.5t-138 -29.5zM224 93l53 270q-77 -10 -77 -138q0 -93 24 -132z" />
    <glyph glyph-name="sterling" unicode="&#xa3;" horiz-adv-x="719" 
d="M182 93h-147l20 76h144q2 10 16.5 87.5t17.5 91.5q39 162 114 243t191 81q69 0 113 -27t44 -66q0 -24 -18 -41.5t-42 -17.5q-39 0 -68 51q-23 42 -63 42q-42 0 -62 -38.5t-37 -128.5q-37 -197 -70 -277h158l-18 -76h-172q-27 -58 -65 -112q27 12 53 12q28 0 55.5 -12.5
t45 -26t45.5 -39.5q63 -57 99 -57q24 0 36 13.5t12 28.5q0 9 -11 36.5t-11 47.5q0 27 14.5 43t39.5 16q31 0 48.5 -21.5t17.5 -50.5q0 -72 -65 -133t-151 -61q-36 0 -68.5 13.5t-49 26t-41.5 36.5q-55 51 -83 51q-13 0 -27 -7q-2 -4 -8.5 -19t-10 -23t-11 -22t-14 -22
t-15.5 -17t-19.5 -13t-22.5 -4q-21 0 -42.5 15t-21.5 39q0 54 107 116q27 69 43 146z" />
    <glyph glyph-name="currency" unicode="&#xa4;" horiz-adv-x="471" 
d="M461 176l-42 -44l-68 65q-62 -37 -117 -37t-116 37l-68 -65l-42 44l65 63q-36 65 -36 115q0 51 36 115l-65 64l42 44l68 -65q63 37 116 37q55 0 117 -37l68 65l42 -44l-65 -64q37 -64 37 -115q0 -48 -37 -115zM371 355q0 56 -41.5 95t-95.5 39q-56 0 -95 -39.5t-39 -94.5
t39.5 -95t94.5 -40q56 0 96.5 40t40.5 95z" />
    <glyph glyph-name="yen" unicode="&#xa5;" horiz-adv-x="521" 
d="M149 331l-102 190q-15 28 -22 39.5t-19 25t-24 18t-30 4.5v54h298v-54q-48 0 -48 -29q0 -17 18 -49l98 -180l85 160q18 33 18 54q0 44 -57 44v54h204v-54q-49 0 -97 -88l-105 -189h166v-49h-193v-68h193v-49h-193v-30q0 -47 14 -64t66 -17v-54h-319v54q51 0 66 17.5
t15 63.5v30h-190v49h190v57l-5 11h-185v49h158z" />
    <glyph glyph-name="brokenbar" unicode="&#xa6;" horiz-adv-x="625" 
d="M248 150h129v-386h-129v386zM248 662h129v-386h-129v386z" />
    <glyph glyph-name="section" unicode="&#xa7;" horiz-adv-x="510" 
d="M191 -119q11 -38 26.5 -54.5t48.5 -16.5q29 0 50 16t21 41q0 14 -4.5 26t-10.5 21t-22 21.5t-28 20.5t-40 26.5t-48 32.5q-84 58 -119.5 106.5t-35.5 105.5q0 18 4 36t15.5 40t37 40t62.5 26q-84 60 -84 143q0 74 61 117t145 43q77 0 127.5 -35.5t50.5 -79.5
q0 -29 -20.5 -46.5t-45.5 -17.5q-20 0 -33 10t-18 20.5t-12 32.5q-10 31 -25.5 46.5t-48.5 15.5q-34 0 -54.5 -17.5t-20.5 -40.5q0 -31 25.5 -54t96.5 -68q102 -64 145 -111.5t43 -124.5q0 -39 -11 -67t-31.5 -44t-34 -22.5t-35.5 -13.5q38 -28 58 -66.5t20 -77.5
q0 -73 -62 -114.5t-141 -41.5q-73 0 -125.5 33.5t-52.5 84.5q0 33 20.5 49t42.5 16q47 0 63 -57zM383 149q0 41 -79 110.5t-127 69.5q-25 0 -38.5 -15.5t-13.5 -33.5q0 -39 77 -109t131 -70q22 0 36 16t14 32z" />
    <glyph glyph-name="dieresis" unicode="&#xa8;" 
d="M-6 564q0 28 20 48.5t49 20.5t49 -20t20 -49t-20 -49t-49 -20q-28 0 -48.5 20.5t-20.5 48.5zM202 564q0 29 20 49t49 20t49 -20.5t20 -48.5t-20 -48.5t-49 -20.5q-28 0 -48.5 20t-20.5 49z" />
    <glyph glyph-name="copyright" unicode="&#xa9;" horiz-adv-x="750" 
d="M539 537v-129h-19q-6 33 -21.5 55.5t-35 32.5t-35 14t-28.5 4q-39 0 -66 -18.5t-39 -48.5t-16.5 -56.5t-4.5 -54.5q0 -96 28 -132q39 -51 96 -51q74 0 127 68v-35q-59 -62 -155 -62q-84 0 -145 52t-61 147q0 96 62.5 155.5t152.5 59.5q36 0 75.5 -13t43.5 -13q18 0 22 25
h19zM375 674q143 0 245 -101t102 -245q0 -143 -102 -244.5t-245 -101.5t-244.5 101.5t-101.5 244.5q0 144 102 245t244 101zM375 631q-124 0 -213 -88.5t-89 -214.5q0 -125 88.5 -214t213.5 -89t214 89t89 214q0 126 -89 214.5t-214 88.5z" />
    <glyph glyph-name="ordfeminine" unicode="&#xaa;" horiz-adv-x="365" 
d="M200 583v22q0 37 -41 37q-19 0 -29 -5t-12 -10t-4 -16q-5 -32 -42 -32q-17 0 -28 8.5t-11 21.5q0 9 6.5 18.5t21 21t46.5 18.5t76 7q72 0 95.5 -19.5t23.5 -56.5v-111q0 -26 17 -26q14 0 18 17h26q-5 -59 -81 -59q-54 0 -76 31q-47 -31 -101 -31q-74 0 -74 54
q0 14 6.5 26t22.5 23t28 18.5t37.5 17t36 13t38.5 12.5zM200 482v68q-23 -10 -35 -15.5t-24 -17.5t-12 -26q0 -29 28 -29q23 0 43 20z" />
    <glyph glyph-name="guillemotleft" unicode="&#xab;" horiz-adv-x="562" 
d="M196 215l78 -215h-56l-194 215l193 215h56zM460 215l77 -215h-55l-195 215l193 215h57z" />
    <glyph glyph-name="logicalnot" unicode="&#xac;" horiz-adv-x="667" 
d="M62 497h542v-334h-102v232h-440v102z" />
    <glyph glyph-name="uni00AD" unicode="&#xad;" horiz-adv-x="344" 
d="M28 133v132h289v-132h-289z" />
    <glyph glyph-name="registered" unicode="&#xae;" horiz-adv-x="750" 
d="M190 529h177h5q168 3 168 -107q0 -77 -87 -101l67 -122q23 -43 51 -48v-17h-118l-100 180h-23v-97q0 -40 10.5 -52.5t48.5 -13.5v-17h-207v17q28 -1 39.5 10.5t11.5 55.5v231q0 38 -7.5 50t-35.5 14v17zM330 508v-169q14 -2 26 -2q31 0 55 22.5t24 64.5q0 84 -86 84h-19z
M375 674q143 0 245 -101t102 -245q0 -143 -102 -244.5t-245 -101.5t-244.5 101.5t-101.5 244.5q0 144 102 245t244 101zM375 631q-124 0 -213 -88.5t-89 -214.5q0 -125 88.5 -214t213.5 -89t214 89t89 214q0 126 -89 214.5t-214 88.5z" />
    <glyph glyph-name="macron" unicode="&#xaf;" 
d="M-11 511v111h354v-111h-354z" />
    <glyph glyph-name="degree" unicode="&#xb0;" horiz-adv-x="396" 
d="M198 600q43 0 73 -30t30 -73t-30 -73t-73 -30t-73 30t-30 73t30 73t73 30zM198 676q-74 0 -126.5 -52.5t-52.5 -126.5t52.5 -126.5t126.5 -52.5t126.5 52.5t52.5 126.5t-52.5 126.5t-126.5 52.5z" />
    <glyph glyph-name="plusminus" unicode="&#xb1;" horiz-adv-x="667" 
d="M62 102h542v-102h-542v102zM62 497h220v220h102v-220h220v-102h-220v-220h-102v220h-220v102z" />
    <glyph glyph-name="two.superior" unicode="&#xb2;" 
d="M35 323v27q71 59 113 113.5t42 111.5q0 26 -12 43t-34 17q-20 0 -30 -11.5t-10 -25.5q0 -8 6 -21t6 -14q0 -3 -13 -8l-28 -11q-12 -4 -18 -4q-11 0 -17.5 16.5t-6.5 31.5q0 33 37 58.5t95 25.5q55 0 94 -25t39 -69q0 -28 -17 -53.5t-61 -68.5q-18 -17 -31.5 -30.5
l-18.5 -18.5t-11 -10l-18 -17h162l-16 -77h-43q4 14 2 17t-15 3h-196z" />
    <glyph glyph-name="three.superior" unicode="&#xb3;" 
d="M131 522q52 30 52 72q0 24 -12.5 33t-26.5 9t-27 -8.5t-13 -22.5q0 -10 7.5 -18t7.5 -10q0 -5 -10 -8l-31 -11q-12 -5 -21 -5q-14 0 -20 14t-6 25q0 29 39.5 54.5t98.5 25.5q49 0 82.5 -17t33.5 -48q0 -41 -76 -81q44 -4 64.5 -27.5t20.5 -56.5q0 -57 -52 -91.5
t-121 -34.5q-49 0 -77.5 16t-28.5 38q0 13 12.5 24.5t30.5 11.5q28 0 43 -31q7 -15 14.5 -20t21.5 -5q22 0 35.5 20.5t13.5 60.5q0 62 -23 62q-9 0 -22 -11q-12 -10 -24 -10q-8 0 -14.5 6.5t-6.5 13.5q0 2 1 4t2 3.5t3 3.5t4 3.5t5.5 3.5t5.5 3.5t6.5 4t7.5 4.5z" />
    <glyph glyph-name="acute" unicode="&#xb4;" 
d="M74 482l71 157h198l-227 -157h-42z" />
    <glyph glyph-name="mu" unicode="&#xb5;" horiz-adv-x="552" 
d="M62 400h136v-243q0 -34 0.5 -48.5t4.5 -30t12.5 -20.5t24.5 -5q44 0 80 60v287h136v-249q0 -25 0.5 -37t3.5 -27t10 -21t19 -6q30 0 37 70h21q-1 -40 -14 -69t-28.5 -43t-35.5 -22t-30 -9t-18 -1q-74 0 -97 77q-68 -77 -142 -77q-19 0 -32 4.5t-26 13.5t-15 10
q-1 -67 10 -116q2 -7 7 -24t8 -31t3 -27q0 -29 -15 -47t-43 -18q-52 0 -52 58q0 20 19 94q8 31 11.5 65.5t4 59t0.5 99.5v273z" />
    <glyph glyph-name="paragraph" unicode="&#xb6;" horiz-adv-x="542" 
d="M312 625v-874h-49v459q-138 6 -201 67q-61 61 -61 164q0 114 90 180q31 23 77 32t159 9h215v-21h-22q-26 0 -41 -6t-21 -22.5t-7.5 -29.5t-1.5 -42v-790h-48v874h-89z" />
    <glyph glyph-name="periodcentered" unicode="&#xb7;" horiz-adv-x="292" 
d="M57 330q0 37 26 62.5t63 25.5q36 0 62 -25.5t26 -62.5t-26 -63t-62 -26t-62.5 26t-26.5 63z" />
    <glyph glyph-name="cedilla" unicode="&#xb8;" 
d="M129 3h55q-4 -29 -8 -49q27 -3 46.5 -12.5t28.5 -20t14 -24.5t5.5 -20t0.5 -12q0 -49 -44.5 -75t-113.5 -26q-48 0 -83 13q6 32 8 50q44 -11 79 -11q45 0 45 34q0 35 -54 40q19 50 21 113z" />
    <glyph glyph-name="one.superior" unicode="&#xb9;" 
d="M68 323v34h20q19 0 24.5 5t5.5 22v189q0 27 -8.5 32t-47.5 5v33q73 0 123 30h38v-287q0 -12 1 -17t7.5 -8.5t20.5 -3.5h20v-34h-204z" />
    <glyph glyph-name="ordmasculine" unicode="&#xba;" horiz-adv-x="365" 
d="M24 545q0 63 48 96t110 33q25 0 50.5 -6.5t51 -20t41.5 -40.5t16 -62q0 -62 -47.5 -96t-111.5 -34q-21 0 -44.5 5t-51 18t-45 40.5t-17.5 66.5zM132 548q0 -30 1.5 -47t13.5 -35.5t36 -18.5q17 0 28 9t15.5 26t5.5 30t1 33q0 21 -1 33t-5 29.5t-15.5 26t-29.5 8.5t-29 -9
t-15 -26t-5 -28.5t-1 -30.5z" />
    <glyph glyph-name="guillemotright" unicode="&#xbb;" horiz-adv-x="562" 
d="M366 215l-78 215h56l194 -215l-193 -215h-56zM102 215l-77 215h55l195 -215l-193 -215h-57z" />
    <glyph glyph-name="onequarter" unicode="&#xbc;" horiz-adv-x="990" 
d="M710 115h-132v42l178 191h59v-192h51v-41h-51v-47q0 -14 1 -19.5t8 -10t22 -4.5h20v-34h-209v34h21q16 0 22.5 3.5t8 9t1.5 19.5v49zM289 0l341 664h70l-340 -664h-71zM630 156h80v85zM138 323v34h20q19 0 24.5 5t5.5 22v189q0 27 -8.5 32t-47.5 5v33q73 0 123 30h38
v-287q0 -12 1 -17t7.5 -8.5t20.5 -3.5h20v-34h-204z" />
    <glyph glyph-name="onehalf" unicode="&#xbd;" horiz-adv-x="990" 
d="M138 323v34h20q19 0 24.5 5t5.5 22v189q0 27 -8.5 32t-47.5 5v33q73 0 123 30h38v-287q0 -12 1 -17t7.5 -8.5t20.5 -3.5h20v-34h-204zM293 0l340 664h71l-341 -664h-70zM618 0v27q71 59 113 113.5t42 111.5q0 60 -46 60q-17 0 -29 -11.5t-12 -23.5q0 -9 6.5 -22t6.5 -15
q0 -3 -13 -8l-28 -11q-12 -4 -18 -4q-11 0 -17.5 16.5t-6.5 31.5q0 36 39 60t93 24q55 0 94 -25t39 -69q0 -28 -17 -53.5t-61 -68.5q-18 -17 -31.5 -30.5l-18.5 -18.5t-11 -10l-18 -17h162l-16 -77h-43q4 15 2 17q-2 3 -15 3h-196z" />
    <glyph glyph-name="threequarters" unicode="&#xbe;" horiz-adv-x="990" 
d="M710 115h-132v42l178 191h59v-192h51v-41h-51v-47q0 -14 1 -19.5t8 -10t22 -4.5h20v-34h-209v34h21q16 0 22.5 3.5t8 9t1.5 19.5v49zM289 0l341 664h70l-340 -664h-71zM630 156h80v85zM224 522q52 30 52 72q0 24 -12.5 33t-26.5 9t-27 -8.5t-13 -22.5q0 -10 7.5 -18
t7.5 -10q0 -5 -10 -8l-31 -11q-13 -5 -21 -5q-14 0 -20 14t-6 25q0 29 39.5 54.5t98.5 25.5q49 0 82.5 -17t33.5 -48q0 -41 -76 -81q44 -4 64.5 -27.5t20.5 -56.5q0 -57 -52 -91.5t-121 -34.5q-49 0 -77.5 16t-28.5 38q0 13 12.5 24.5t30.5 11.5q28 0 43 -31q7 -15 14.5 -20
t21.5 -5q22 0 35.5 20.5t13.5 60.5q0 62 -23 62q-9 0 -22 -11q-12 -10 -24 -10q-8 0 -14.5 6.5t-6.5 13.5q0 2 1 4t2 3.5t3 3.5t4 3.5t5.5 3.5t5.5 3.5t6.5 4t7.5 4.5z" />
    <glyph glyph-name="questiondown" unicode="&#xbf;" horiz-adv-x="479" 
d="M337 210v-162h-47q-13 17 -34 17q-20 0 -33 -12.5t-18 -32.5t-6 -31t-1 -22q0 -156 77 -156q41 0 52 44q10 39 28 50q12 7 30 7q19 0 36.5 -13.5t17.5 -34.5q0 -39 -49 -73.5t-129 -34.5q-104 0 -161.5 57.5t-57.5 142.5t53.5 130t117.5 45q30 0 63 -11v90h61zM395 357
q0 -37 -26 -62.5t-63 -25.5q-36 0 -62 25.5t-26 62.5t26 63t62 26t62.5 -26t26.5 -63z" />
    <glyph glyph-name="Agrave" unicode="&#xc0;" horiz-adv-x="631" 
d="M153 179l-12 -31q-14 -35 -14 -51q0 -20 13 -30t24.5 -11.5t31.5 -1.5v-54h-219v54q37 0 64 35.5t41 71.5l204 513h57l207 -513q10 -25 17 -39t19.5 -32.5t29.5 -27t38 -8.5v-54h-328v54q20 0 31 1t22.5 8t11.5 21q0 8 -2.5 15.5t-7 16.5t-5.5 13l-19 50h-204zM253 433
l-79 -198h161zM408 702h-42l-227 155v2h198z" />
    <glyph glyph-name="Aacute" unicode="&#xc1;" horiz-adv-x="631" 
d="M153 179l-12 -31q-14 -35 -14 -51q0 -20 13 -30t24.5 -11.5t31.5 -1.5v-54h-219v54q37 0 64 35.5t41 71.5l204 513h57l207 -513q10 -25 17 -39t19.5 -32.5t29.5 -27t38 -8.5v-54h-328v54q20 0 31 1t22.5 8t11.5 21q0 8 -2.5 15.5t-7 16.5t-5.5 13l-19 50h-204zM253 433
l-79 -198h161zM223 702l71 157h198l-227 -157h-42z" />
    <glyph glyph-name="Acircumflex" unicode="&#xc2;" horiz-adv-x="631" 
d="M153 179l-12 -31q-14 -35 -14 -51q0 -20 13 -30t24.5 -11.5t31.5 -1.5v-54h-219v54q37 0 64 35.5t41 71.5l204 513h57l207 -513q10 -25 17 -39t19.5 -32.5t29.5 -27t38 -8.5v-54h-328v54q20 0 31 1t22.5 8t11.5 21q0 8 -2.5 15.5t-7 16.5t-5.5 13l-19 50h-204zM253 433
l-79 -198h161zM318 789l-124 -90h-44l96 176h146l89 -176h-47z" />
    <glyph glyph-name="Atilde" unicode="&#xc3;" horiz-adv-x="631" 
d="M153 179l-12 -31q-14 -35 -14 -51q0 -20 13 -30t24.5 -11.5t31.5 -1.5v-54h-219v54q37 0 64 35.5t41 71.5l204 513h57l207 -513q10 -25 17 -39t19.5 -32.5t29.5 -27t38 -8.5v-54h-328v54q20 0 31 1t22.5 8t11.5 21q0 8 -2.5 15.5t-7 16.5t-5.5 13l-19 50h-204zM253 433
l-79 -198h161zM441 856h42q5 -59 -22 -106t-80 -47q-31 0 -94 19q-45 13 -64 13q-28 0 -37 -32h-40q-2 49 8 73q13 32 39.5 50t58.5 18q25 0 95 -19q42 -11 54 -11q36 0 40 42z" />
    <glyph glyph-name="Adieresis" unicode="&#xc4;" horiz-adv-x="631" 
d="M153 179l-12 -31q-14 -35 -14 -51q0 -20 13 -30t24.5 -11.5t31.5 -1.5v-54h-219v54q37 0 64 35.5t41 71.5l204 513h57l207 -513q10 -25 17 -39t19.5 -32.5t29.5 -27t38 -8.5v-54h-328v54q20 0 31 1t22.5 8t11.5 21q0 8 -2.5 15.5t-7 16.5t-5.5 13l-19 50h-204zM253 433
l-79 -198h161zM143 784q0 28 20.5 48.5t48.5 20.5q29 0 49 -20t20 -49t-20 -49t-49 -20q-28 0 -48.5 20.5t-20.5 48.5zM351 784q0 29 20 49t49 20q28 0 48.5 -20.5t20.5 -48.5t-20.5 -48.5t-48.5 -20.5t-48.5 20t-20.5 49z" />
    <glyph glyph-name="Aring" unicode="&#xc5;" horiz-adv-x="631" 
d="M153 179l-12 -31q-14 -35 -14 -51q0 -20 13 -30t24.5 -11.5t31.5 -1.5v-54h-219v54q37 0 64 35.5t41 71.5l204 513h57l207 -513q10 -25 17 -39t19.5 -32.5t29.5 -27t38 -8.5v-54h-328v54q20 0 31 1t22.5 8t11.5 21q0 8 -2.5 15.5t-7 16.5t-5.5 13l-19 50h-204zM253 433
l-79 -198h161zM315 853q-24 0 -40.5 -17t-16.5 -41t16.5 -41t40.5 -17t41 17t17 41t-17 41t-41 17zM315 890q40 0 68 -27.5t28 -67.5t-28 -68t-68 -28t-68 28t-28 68t28 67.5t68 27.5z" />
    <glyph glyph-name="AE" unicode="&#xc6;" horiz-adv-x="958" 
d="M399 316h-162l-90 -167q-22 -41 -22 -57q0 -38 53 -38v-54h-206v54q32 4 58.5 27.5t65.5 96.5l184 345q24 45 24 61q0 15 -10 19.5t-48 4.5h-26v54h651l11 -172h-55q-24 67 -46.5 90t-73.5 23h-135v-228h60q41 0 56 14.5t19 66.5h55v-222h-55q-2 46 -14 64t-51 18h-70
v-164q0 -31 2 -44t12.5 -27t33 -18t63.5 -4q24 0 37 1t38 9t41 23.5t34 47.5t29 78h55l-5 -218h-605v54q58 0 75 16.5t17 64.5v181zM270 375h129v248z" />
    <glyph glyph-name="Ccedilla" unicode="&#xc7;" horiz-adv-x="750" 
d="M419 -12l-5 -32q51 -1 82.5 -26.5t31.5 -62.5q0 -40 -37 -71.5t-120 -31.5q-54 0 -100 11q7 19 9 54q22 -4 44 -4q60 0 60 36q0 29 -47 29q17 50 22 97q-98 6 -171.5 58t-108 125t-34.5 155q0 59 20.5 118.5t60.5 112t109 85.5t155 33q119 0 205 -80q13 34 20 59h54
l6 -244h-53q-1 9 -6 27.5t-20.5 50t-37 58t-59.5 46t-85 19.5q-35 0 -62.5 -11.5t-45 -28.5t-30 -43.5t-19 -49.5t-10 -54.5t-4 -49.5t-0.5 -43q0 -175 50 -226q54 -54 127 -54q44 0 83 18.5t74.5 66.5t52.5 120h55v-249h-55q-10 38 -28 64q-70 -73 -183 -82z" />
    <glyph glyph-name="Egrave" unicode="&#xc8;" horiz-adv-x="667" 
d="M287 317v-164q0 -31 1.5 -43.5t11.5 -27t32 -19t61 -4.5q25 0 39 1t40 9t42.5 23.5t34.5 47.5t29 77h54l-4 -217h-605v54q57 0 74 16.5t17 64.5v392q0 48 -16.5 64.5t-74.5 16.5v54h563l10 -171h-54q-13 41 -27 65t-32.5 33.5t-31.5 11.5t-40 2h-124v-227h62q20 0 30.5 2
t22.5 9t17 24.5t5 45.5h55v-224h-55q0 54 -17 69t-56 15h-64zM426 702h-42l-227 155v2h198z" />
    <glyph glyph-name="Eacute" unicode="&#xc9;" horiz-adv-x="667" 
d="M287 317v-164q0 -31 1.5 -43.5t11.5 -27t32 -19t61 -4.5q25 0 39 1t40 9t42.5 23.5t34.5 47.5t29 77h54l-4 -217h-605v54q57 0 74 16.5t17 64.5v392q0 48 -16.5 64.5t-74.5 16.5v54h563l10 -171h-54q-13 41 -27 65t-32.5 33.5t-31.5 11.5t-40 2h-124v-227h62q20 0 30.5 2
t22.5 9t17 24.5t5 45.5h55v-224h-55q0 54 -17 69t-56 15h-64zM271 702l71 157h198l-227 -157h-42z" />
    <glyph glyph-name="Ecircumflex" unicode="&#xca;" horiz-adv-x="667" 
d="M287 317v-164q0 -31 1.5 -43.5t11.5 -27t32 -19t61 -4.5q25 0 39 1t40 9t42.5 23.5t34.5 47.5t29 77h54l-4 -217h-605v54q57 0 74 16.5t17 64.5v392q0 48 -16.5 64.5t-74.5 16.5v54h563l10 -171h-54q-13 41 -27 65t-32.5 33.5t-31.5 11.5t-40 2h-124v-227h62q20 0 30.5 2
t22.5 9t17 24.5t5 45.5h55v-224h-55q0 54 -17 69t-56 15h-64zM336 789l-124 -90h-44l96 176h146l89 -176h-47z" />
    <glyph glyph-name="Edieresis" unicode="&#xcb;" horiz-adv-x="667" 
d="M287 317v-164q0 -31 1.5 -43.5t11.5 -27t32 -19t61 -4.5q25 0 39 1t40 9t42.5 23.5t34.5 47.5t29 77h54l-4 -217h-605v54q57 0 74 16.5t17 64.5v392q0 48 -16.5 64.5t-74.5 16.5v54h563l10 -171h-54q-13 41 -27 65t-32.5 33.5t-31.5 11.5t-40 2h-124v-227h62q20 0 30.5 2
t22.5 9t17 24.5t5 45.5h55v-224h-55q0 54 -17 69t-56 15h-64zM161 784q0 28 20.5 48.5t48.5 20.5q29 0 49 -20t20 -49t-20 -49t-49 -20q-28 0 -48.5 20.5t-20.5 48.5zM369 784q0 29 20 49t49 20q28 0 48.5 -20.5t20.5 -48.5t-20.5 -48.5t-48.5 -20.5t-48.5 20t-20.5 49z" />
    <glyph glyph-name="Igrave" unicode="&#xcc;" horiz-adv-x="406" 
d="M27 608v54h351v-54q-57 0 -73.5 -17t-16.5 -64v-392q0 -47 16 -64t74 -17v-54h-351v54q56 0 72 17.5t16 63.5v392q0 45 -15.5 63t-72.5 18zM296 702h-42l-227 155v2h198z" />
    <glyph glyph-name="Iacute" unicode="&#xcd;" horiz-adv-x="406" 
d="M27 608v54h351v-54q-57 0 -73.5 -17t-16.5 -64v-392q0 -47 16 -64t74 -17v-54h-351v54q56 0 72 17.5t16 63.5v392q0 45 -15.5 63t-72.5 18zM111 702l71 157h198l-227 -157h-42z" />
    <glyph glyph-name="Icircumflex" unicode="&#xce;" horiz-adv-x="406" 
d="M27 608v54h351v-54q-57 0 -73.5 -17t-16.5 -64v-392q0 -47 16 -64t74 -17v-54h-351v54q56 0 72 17.5t16 63.5v392q0 45 -15.5 63t-72.5 18zM206 789l-124 -90h-44l96 176h146l89 -176h-47z" />
    <glyph glyph-name="Idieresis" unicode="&#xcf;" horiz-adv-x="406" 
d="M27 608v54h351v-54q-57 0 -73.5 -17t-16.5 -64v-392q0 -47 16 -64t74 -17v-54h-351v54q56 0 72 17.5t16 63.5v392q0 45 -15.5 63t-72.5 18zM31 784q0 28 20.5 48.5t48.5 20.5q29 0 49 -20t20 -49t-20 -49t-49 -20q-28 0 -48.5 20.5t-20.5 48.5zM239 784q0 29 20 49t49 20
q28 0 48.5 -20.5t20.5 -48.5t-20.5 -48.5t-48.5 -20.5t-48.5 20t-20.5 49z" />
    <glyph glyph-name="Eth" unicode="&#xd0;" horiz-adv-x="802" 
d="M116 364v163q0 46 -15.5 63.5t-71.5 17.5v54q2 1 50.5 2t113.5 2.5t104 1.5q121 0 190.5 -13t127.5 -54q136 -97 136 -274q0 -107 -53.5 -185.5t-144.5 -114.5q-40 -16 -97.5 -21.5t-187.5 -5.5h-239v54q55 0 71 18t16 63v170h-95v59h95zM289 305v-151q0 -29 1.5 -41.5
t8.5 -27.5t24 -20.5t47 -5.5q183 0 183 269q0 58 -10.5 104.5t-25.5 75.5t-40.5 50t-45.5 31t-51.5 15.5t-47.5 6t-43 0.5v-247h131v-59h-131z" />
    <glyph glyph-name="Ntilde" unicode="&#xd1;" horiz-adv-x="781" 
d="M181 474v-305q0 -19 0.5 -29.5t5.5 -29t14.5 -29t28.5 -19t46 -8.5v-54h-249v54q95 0 92 111v4v338q0 101 -95 101v54h223l364 -405v242q0 109 -92 109v54h238v-54q-84 0 -84 -110v-509h-63zM516 856h42q5 -59 -22 -106t-80 -47q-31 0 -94 19q-45 13 -64 13
q-28 0 -37 -32h-40q-2 49 8 73q13 32 39.5 50t58.5 18q25 0 95 -19q42 -11 54 -11q36 0 40 42z" />
    <glyph glyph-name="Ograve" unicode="&#xd2;" horiz-adv-x="833" 
d="M46 333q0 58 22 116.5t65 109.5t116 83t164 32q79 0 144.5 -22t107 -57.5t70 -82t40.5 -92.5t12 -92q0 -62 -22 -121t-65.5 -109.5t-116.5 -81t-165 -30.5q-172 0 -272 97.5t-100 249.5zM248 338q0 -288 165 -288q89 0 130 64.5t41 214.5q0 153 -43.5 217t-125.5 64
q-167 0 -167 -272zM509 702h-42l-227 155v2h198z" />
    <glyph glyph-name="Oacute" unicode="&#xd3;" horiz-adv-x="833" 
d="M46 333q0 58 22 116.5t65 109.5t116 83t164 32q79 0 144.5 -22t107 -57.5t70 -82t40.5 -92.5t12 -92q0 -62 -22 -121t-65.5 -109.5t-116.5 -81t-165 -30.5q-172 0 -272 97.5t-100 249.5zM248 338q0 -288 165 -288q89 0 130 64.5t41 214.5q0 153 -43.5 217t-125.5 64
q-167 0 -167 -272zM324 702l71 157h198l-227 -157h-42z" />
    <glyph glyph-name="Ocircumflex" unicode="&#xd4;" horiz-adv-x="833" 
d="M46 333q0 58 22 116.5t65 109.5t116 83t164 32q79 0 144.5 -22t107 -57.5t70 -82t40.5 -92.5t12 -92q0 -62 -22 -121t-65.5 -109.5t-116.5 -81t-165 -30.5q-172 0 -272 97.5t-100 249.5zM248 338q0 -288 165 -288q89 0 130 64.5t41 214.5q0 153 -43.5 217t-125.5 64
q-167 0 -167 -272zM419 789l-124 -90h-44l96 176h146l89 -176h-47z" />
    <glyph glyph-name="Otilde" unicode="&#xd5;" horiz-adv-x="833" 
d="M46 333q0 58 22 116.5t65 109.5t116 83t164 32q79 0 144.5 -22t107 -57.5t70 -82t40.5 -92.5t12 -92q0 -62 -22 -121t-65.5 -109.5t-116.5 -81t-165 -30.5q-172 0 -272 97.5t-100 249.5zM248 338q0 -288 165 -288q89 0 130 64.5t41 214.5q0 153 -43.5 217t-125.5 64
q-167 0 -167 -272zM542 856h42q5 -59 -22 -106t-80 -47q-31 0 -94 19q-45 13 -64 13q-28 0 -37 -32h-40q-2 49 8 73q13 32 39.5 50t58.5 18q25 0 95 -19q42 -11 54 -11q36 0 40 42z" />
    <glyph glyph-name="Odieresis" unicode="&#xd6;" horiz-adv-x="833" 
d="M46 333q0 58 22 116.5t65 109.5t116 83t164 32q79 0 144.5 -22t107 -57.5t70 -82t40.5 -92.5t12 -92q0 -62 -22 -121t-65.5 -109.5t-116.5 -81t-165 -30.5q-172 0 -272 97.5t-100 249.5zM248 338q0 -288 165 -288q89 0 130 64.5t41 214.5q0 153 -43.5 217t-125.5 64
q-167 0 -167 -272zM244 784q0 28 20 48.5t49 20.5t49 -20t20 -49t-20 -49t-49 -20q-28 0 -48.5 20.5t-20.5 48.5zM452 784q0 29 20 49t49 20t49 -20.5t20 -48.5t-20 -48.5t-49 -20.5q-28 0 -48.5 20t-20.5 49z" />
    <glyph glyph-name="multiply" unicode="&#xd7;" horiz-adv-x="667" 
d="M78 513l72 72l184 -184l184 184l72 -72l-184 -184l183 -183l-72 -71l-183 182l-182 -182l-72 71l182 183z" />
    <glyph glyph-name="Oslash" unicode="&#xd8;" horiz-adv-x="833" 
d="M261 195l291 330q-42 85 -137 85q-88 0 -127.5 -69t-39.5 -203q0 -91 13 -143zM199 43l-48 -56l-42 35l46 53q-109 101 -109 258q0 57 22.5 115t65.5 109.5t116 84t163 32.5q120 0 220 -57l51 58l39 -36l-48 -55q14 -13 28.5 -30t36 -49.5t34.5 -78.5t13 -98
q0 -62 -22 -121t-65 -109.5t-116 -81t-166 -30.5q-116 0 -219 57zM281 136q43 -86 132 -86t130 64.5t41 214.5q0 81 -13 136z" />
    <glyph glyph-name="Ugrave" unicode="&#xd9;" horiz-adv-x="771" 
d="M17 608v54h350v-54q-57 0 -73.5 -17t-16.5 -64v-261q0 -86 18 -127q17 -40 55.5 -62t84.5 -22q49 0 92.5 24t59.5 64q19 47 19 141v222q0 102 -98 102v54h245v-54q-85 0 -85 -100v-226q0 -48 -2 -74.5t-15.5 -66t-40.5 -70.5q-35 -40 -95 -62.5t-125 -22.5q-32 0 -66 6
t-72 19.5t-70.5 41t-50.5 66.5q-13 27 -19 54t-7 43.5t-1 49.5v261q0 45 -15.5 63t-71.5 18zM478 702h-42l-227 155v2h198z" />
    <glyph glyph-name="Uacute" unicode="&#xda;" horiz-adv-x="771" 
d="M17 608v54h350v-54q-57 0 -73.5 -17t-16.5 -64v-261q0 -86 18 -127q17 -40 55.5 -62t84.5 -22q49 0 92.5 24t59.5 64q19 47 19 141v222q0 102 -98 102v54h245v-54q-85 0 -85 -100v-226q0 -48 -2 -74.5t-15.5 -66t-40.5 -70.5q-35 -40 -95 -62.5t-125 -22.5q-32 0 -66 6
t-72 19.5t-70.5 41t-50.5 66.5q-13 27 -19 54t-7 43.5t-1 49.5v261q0 45 -15.5 63t-71.5 18zM333 702l71 157h198l-227 -157h-42z" />
    <glyph glyph-name="Ucircumflex" unicode="&#xdb;" horiz-adv-x="771" 
d="M17 608v54h350v-54q-57 0 -73.5 -17t-16.5 -64v-261q0 -86 18 -127q17 -40 55.5 -62t84.5 -22q49 0 92.5 24t59.5 64q19 47 19 141v222q0 102 -98 102v54h245v-54q-85 0 -85 -100v-226q0 -48 -2 -74.5t-15.5 -66t-40.5 -70.5q-35 -40 -95 -62.5t-125 -22.5q-32 0 -66 6
t-72 19.5t-70.5 41t-50.5 66.5q-13 27 -19 54t-7 43.5t-1 49.5v261q0 45 -15.5 63t-71.5 18zM388 789l-124 -90h-44l96 176h146l89 -176h-47z" />
    <glyph glyph-name="Udieresis" unicode="&#xdc;" horiz-adv-x="771" 
d="M17 608v54h350v-54q-57 0 -73.5 -17t-16.5 -64v-261q0 -86 18 -127q17 -40 55.5 -62t84.5 -22q49 0 92.5 24t59.5 64q19 47 19 141v222q0 102 -98 102v54h245v-54q-85 0 -85 -100v-226q0 -48 -2 -74.5t-15.5 -66t-40.5 -70.5q-35 -40 -95 -62.5t-125 -22.5q-32 0 -66 6
t-72 19.5t-70.5 41t-50.5 66.5q-13 27 -19 54t-7 43.5t-1 49.5v261q0 45 -15.5 63t-71.5 18zM213 784q0 28 20.5 48.5t48.5 20.5q29 0 49 -20t20 -49t-20 -49t-49 -20q-28 0 -48.5 20.5t-20.5 48.5zM421 784q0 29 20 49t49 20q28 0 48.5 -20.5t20.5 -48.5t-20.5 -48.5
t-48.5 -20.5t-48.5 20t-20.5 49z" />
    <glyph glyph-name="Yacute" unicode="&#xdd;" horiz-adv-x="688" 
d="M257 271l-150 250q-30 50 -50.5 68.5t-55.5 18.5v54h332v-54q-54 0 -54 -29q0 -17 20 -49l109 -180l91 152q24 41 24 61q0 45 -64 45v54h227v-54q-28 0 -52.5 -20t-56.5 -70l-147 -236v-147q0 -46 16 -63.5t75 -17.5v-54h-355v54q60 0 75.5 18t15.5 62v137zM292 702
l71 157h198l-227 -157h-42z" />
    <glyph glyph-name="Thorn" unicode="&#xde;" horiz-adv-x="635" 
d="M378 662v-54h-15q-29 0 -46 -5.5t-24 -20.5t-8.5 -26.5t-1.5 -37.5q104 0 151.5 -4.5t90.5 -23.5q49 -21 78 -62.5t29 -98.5q0 -59 -35 -103.5t-101 -65.5q-53 -17 -164 -17h-49q0 -25 1.5 -36.5t8.5 -26.5t24 -20.5t46 -5.5h15v-54h-359v54q57 0 74 16.5t17 64.5v392
q0 20 -1.5 30.5t-8 24.5t-24 20t-45.5 6h-16v54h363zM283 459v-257h33q19 0 32.5 1.5t33.5 8.5t32.5 19t21.5 37t9 59q0 38 -11 64.5t-24.5 39.5t-39.5 19.5t-41.5 7.5t-45.5 1z" />
    <glyph glyph-name="germandbls" unicode="&#xdf;" horiz-adv-x="625" 
d="M314 340v52q19 2 29.5 4.5t27.5 12.5t25.5 34.5t8.5 61.5q0 115 -81 115q-23 0 -38 -7t-23 -15.5t-12 -26.5t-4.5 -29.5t-0.5 -34.5v-401q0 -15 1 -22t4.5 -16t12.5 -12.5t24 -3.5v-52h-263v52q23 0 36.5 3.5t19 14t6.5 19t1 28.5v312v6q0 24 0.5 37t3 38t9 40.5t17 37
t28.5 35t42 26.5t59 19t78 6q119 0 175.5 -47t56.5 -115q0 -36 -17.5 -64.5t-43 -44.5t-45.5 -24t-34 -11q172 -43 172 -199q0 -79 -48.5 -128.5t-120.5 -49.5q-55 0 -78 24.5t-23 48.5q0 13 7 21t17 8q15 0 17 -16q6 -38 31 -38q12 0 19.5 7t10.5 23t3.5 28t0.5 34
q0 25 -0.5 39t-2.5 39.5t-6 41t-12 35t-19.5 30t-29.5 18t-41 6.5z" />
    <glyph glyph-name="agrave" unicode="&#xe0;" horiz-adv-x="563" 
d="M307 264v36v4v8t-0.5 8.5t-2 9.5t-4.5 9.5t-7.5 9.5t-11 7t-16 5t-20.5 2q-22 0 -36.5 -5t-20.5 -15t-8 -14.5t-3 -13.5q-9 -58 -65 -58q-30 0 -45.5 15.5t-15.5 34.5q0 46 59 77.5t169 31.5q62 0 102 -10t57 -30.5t22 -39t5 -47.5v-185q0 -43 26 -43q22 0 27 28h41
q-3 -56 -46 -80q-31 -18 -76 -18q-85 0 -121 51q-72 -51 -155 -51q-64 0 -88.5 28t-24.5 60q0 23 8.5 42.5t28.5 36.5t39 29.5t54.5 27.5t60 24t68.5 25zM307 95v114q-54 -23 -81.5 -45.5t-27.5 -52.5q0 -18 11.5 -33.5t33.5 -15.5q33 0 64 33zM374 462h-42l-227 155v2h198z
" />
    <glyph glyph-name="aacute" unicode="&#xe1;" horiz-adv-x="563" 
d="M307 264v36v4v8t-0.5 8.5t-2 9.5t-4.5 9.5t-7.5 9.5t-11 7t-16 5t-20.5 2q-22 0 -36.5 -5t-20.5 -15t-8 -14.5t-3 -13.5q-9 -58 -65 -58q-30 0 -45.5 15.5t-15.5 34.5q0 46 59 77.5t169 31.5q62 0 102 -10t57 -30.5t22 -39t5 -47.5v-185q0 -43 26 -43q22 0 27 28h41
q-3 -56 -46 -80q-31 -18 -76 -18q-85 0 -121 51q-72 -51 -155 -51q-64 0 -88.5 28t-24.5 60q0 23 8.5 42.5t28.5 36.5t39 29.5t54.5 27.5t60 24t68.5 25zM307 95v114q-54 -23 -81.5 -45.5t-27.5 -52.5q0 -18 11.5 -33.5t33.5 -15.5q33 0 64 33zM189 462l71 157h198
l-227 -157h-42z" />
    <glyph glyph-name="acircumflex" unicode="&#xe2;" horiz-adv-x="563" 
d="M307 264v36v4v8t-0.5 8.5t-2 9.5t-4.5 9.5t-7.5 9.5t-11 7t-16 5t-20.5 2q-22 0 -36.5 -5t-20.5 -15t-8 -14.5t-3 -13.5q-9 -58 -65 -58q-30 0 -45.5 15.5t-15.5 34.5q0 46 59 77.5t169 31.5q62 0 102 -10t57 -30.5t22 -39t5 -47.5v-185q0 -43 26 -43q22 0 27 28h41
q-3 -56 -46 -80q-31 -18 -76 -18q-85 0 -121 51q-72 -51 -155 -51q-64 0 -88.5 28t-24.5 60q0 23 8.5 42.5t28.5 36.5t39 29.5t54.5 27.5t60 24t68.5 25zM307 95v114q-54 -23 -81.5 -45.5t-27.5 -52.5q0 -18 11.5 -33.5t33.5 -15.5q33 0 64 33zM254 549l-124 -90h-44l96 176
h146l89 -176h-47z" />
    <glyph glyph-name="atilde" unicode="&#xe3;" horiz-adv-x="563" 
d="M307 264v36v4v8t-0.5 8.5t-2 9.5t-4.5 9.5t-7.5 9.5t-11 7t-16 5t-20.5 2q-22 0 -36.5 -5t-20.5 -15t-8 -14.5t-3 -13.5q-9 -58 -65 -58q-30 0 -45.5 15.5t-15.5 34.5q0 46 59 77.5t169 31.5q62 0 102 -10t57 -30.5t22 -39t5 -47.5v-185q0 -43 26 -43q22 0 27 28h41
q-3 -56 -46 -80q-31 -18 -76 -18q-85 0 -121 51q-72 -51 -155 -51q-64 0 -88.5 28t-24.5 60q0 23 8.5 42.5t28.5 36.5t39 29.5t54.5 27.5t60 24t68.5 25zM307 95v114q-54 -23 -81.5 -45.5t-27.5 -52.5q0 -18 11.5 -33.5t33.5 -15.5q33 0 64 33zM407 616h42q5 -59 -22 -106
t-80 -47q-31 0 -94 19q-45 13 -64 13q-28 0 -37 -32h-40q-2 49 8 73q13 32 39.5 50t58.5 18q25 0 95 -19q42 -11 54 -11q36 0 40 42z" />
    <glyph glyph-name="adieresis" unicode="&#xe4;" horiz-adv-x="563" 
d="M307 264v36v4v8t-0.5 8.5t-2 9.5t-4.5 9.5t-7.5 9.5t-11 7t-16 5t-20.5 2q-22 0 -36.5 -5t-20.5 -15t-8 -14.5t-3 -13.5q-9 -58 -65 -58q-30 0 -45.5 15.5t-15.5 34.5q0 46 59 77.5t169 31.5q62 0 102 -10t57 -30.5t22 -39t5 -47.5v-185q0 -43 26 -43q22 0 27 28h41
q-3 -56 -46 -80q-31 -18 -76 -18q-85 0 -121 51q-72 -51 -155 -51q-64 0 -88.5 28t-24.5 60q0 23 8.5 42.5t28.5 36.5t39 29.5t54.5 27.5t60 24t68.5 25zM307 95v114q-54 -23 -81.5 -45.5t-27.5 -52.5q0 -18 11.5 -33.5t33.5 -15.5q33 0 64 33zM79 544q0 28 20.5 48.5
t48.5 20.5q29 0 49 -20t20 -49t-20 -49t-49 -20q-28 0 -48.5 20.5t-20.5 48.5zM287 544q0 29 20 49t49 20q28 0 48.5 -20.5t20.5 -48.5t-20.5 -48.5t-48.5 -20.5t-48.5 20t-20.5 49z" />
    <glyph glyph-name="aring" unicode="&#xe5;" horiz-adv-x="563" 
d="M307 264v36v4v8t-0.5 8.5t-2 9.5t-4.5 9.5t-7.5 9.5t-11 7t-16 5t-20.5 2q-22 0 -36.5 -5t-20.5 -15t-8 -14.5t-3 -13.5q-9 -58 -65 -58q-30 0 -45.5 15.5t-15.5 34.5q0 46 59 77.5t169 31.5q62 0 102 -10t57 -30.5t22 -39t5 -47.5v-185q0 -43 26 -43q22 0 27 28h41
q-3 -56 -46 -80q-31 -18 -76 -18q-85 0 -121 51q-72 -51 -155 -51q-64 0 -88.5 28t-24.5 60q0 23 8.5 42.5t28.5 36.5t39 29.5t54.5 27.5t60 24t68.5 25zM307 95v114q-54 -23 -81.5 -45.5t-27.5 -52.5q0 -18 11.5 -33.5t33.5 -15.5q33 0 64 33zM281 613q-24 0 -40.5 -17
t-16.5 -41t16.5 -41t40.5 -17t41 17t17 41t-17 41t-41 17zM281 650q40 0 68 -27.5t28 -67.5t-28 -68t-68 -28t-68 28t-28 68t28 67.5t68 27.5z" />
    <glyph glyph-name="ae" unicode="&#xe6;" horiz-adv-x="750" 
d="M295 264v27q0 14 -1.5 22.5t-6.5 21.5t-19.5 20t-36.5 7q-19 0 -31 -3.5t-17.5 -12.5t-7.5 -16t-4 -21q-8 -49 -62 -49q-28 0 -45 13.5t-17 34.5q0 50 62.5 79t151.5 29q85 0 149 -24q49 24 104 24q30 0 61.5 -9t64.5 -30.5t55 -66t23 -105.5h-265q0 -153 104 -153
q52 0 100 52l46 -28q-61 -85 -189 -85q-105 0 -181 70q-103 -70 -177 -70q-49 0 -80.5 26t-31.5 65q0 22 10 42t31.5 37.5t42 31t54.5 28t55.5 22.5t57.5 21zM295 95v115q-24 -12 -33.5 -17t-30.5 -18.5t-30 -28.5t-9 -33q0 -19 12 -33.5t30 -14.5q31 0 61 30zM456 254h116
q-1 22 -2.5 35.5t-7 33.5t-18.5 30t-32 10q-60 0 -56 -109z" />
    <glyph glyph-name="ccedilla" unicode="&#xe7;" horiz-adv-x="490" 
d="M287 -15l-4 -27q44 -4 63.5 -28.5t19.5 -54.5q0 -48 -40.5 -78.5t-107.5 -30.5q-36 0 -67 9l6 49q27 -9 58 -9q21 0 33.5 7.5t15.5 14.5t3 14t-3 14t-15 14.5t-32 7.5l14 100q-78 6 -138 60t-60 144q0 102 75 163.5t188 61.5q27 0 53 -4.5t51.5 -14.5t41.5 -30t16 -48
q0 -25 -16 -44t-44 -19q-54 0 -69 75q-8 33 -43 33q-86 0 -86 -139q0 -94 26 -135.5t82 -41.5q26 0 47 8.5t34.5 24.5t18 22.5t10.5 19.5l50 -22q-40 -103 -181 -116z" />
    <glyph glyph-name="egrave" unicode="&#xe8;" horiz-adv-x="525" 
d="M429 103l46 -27q-30 -42 -81.5 -67t-113.5 -25q-100 0 -167 60.5t-67 157.5q0 99 66.5 156.5t161.5 57.5q35 0 69 -9.5t68.5 -31t55.5 -65.5t21 -105h-275q0 -160 111 -160q58 0 105 58zM213 254h125q-3 108 -63 108q-62 0 -62 -108zM355 462h-42l-227 155v2h198z" />
    <glyph glyph-name="eacute" unicode="&#xe9;" horiz-adv-x="525" 
d="M429 103l46 -27q-30 -42 -81.5 -67t-113.5 -25q-100 0 -167 60.5t-67 157.5q0 99 66.5 156.5t161.5 57.5q35 0 69 -9.5t68.5 -31t55.5 -65.5t21 -105h-275q0 -160 111 -160q58 0 105 58zM213 254h125q-3 108 -63 108q-62 0 -62 -108zM170 462l71 157h198l-227 -157h-42z
" />
    <glyph glyph-name="ecircumflex" unicode="&#xea;" horiz-adv-x="525" 
d="M429 103l46 -27q-30 -42 -81.5 -67t-113.5 -25q-100 0 -167 60.5t-67 157.5q0 99 66.5 156.5t161.5 57.5q35 0 69 -9.5t68.5 -31t55.5 -65.5t21 -105h-275q0 -160 111 -160q58 0 105 58zM213 254h125q-3 108 -63 108q-62 0 -62 -108zM265 549l-124 -90h-44l96 176h146
l89 -176h-47z" />
    <glyph glyph-name="edieresis" unicode="&#xeb;" horiz-adv-x="525" 
d="M429 103l46 -27q-30 -42 -81.5 -67t-113.5 -25q-100 0 -167 60.5t-67 157.5q0 99 66.5 156.5t161.5 57.5q35 0 69 -9.5t68.5 -31t55.5 -65.5t21 -105h-275q0 -160 111 -160q58 0 105 58zM213 254h125q-3 108 -63 108q-62 0 -62 -108zM90 544q0 28 20 48.5t49 20.5t49 -20
t20 -49t-20 -49t-49 -20q-28 0 -48.5 20.5t-20.5 48.5zM298 544q0 29 20 49t49 20t49 -20.5t20 -48.5t-20 -48.5t-49 -20.5q-28 0 -48.5 20t-20.5 49z" />
    <glyph glyph-name="igrave" unicode="&#xec;" 
d="M250 416v-299q0 -25 3 -36.5t17.5 -20t45.5 -8.5v-52h-298v52q47 0 60.5 12t13.5 53v145q0 40 -13 52.5t-61 12.5v52zM259 462h-42l-227 155v2h198z" />
    <glyph glyph-name="iacute" unicode="&#xed;" 
d="M250 416v-299q0 -25 3 -36.5t17.5 -20t45.5 -8.5v-52h-298v52q47 0 60.5 12t13.5 53v145q0 40 -13 52.5t-61 12.5v52zM74 462l71 157h198l-227 -157h-42z" />
    <glyph glyph-name="icircumflex" unicode="&#xee;" 
d="M250 416v-299q0 -25 3 -36.5t17.5 -20t45.5 -8.5v-52h-298v52q47 0 60.5 12t13.5 53v145q0 40 -13 52.5t-61 12.5v52zM169 549l-124 -90h-44l96 176h146l89 -176h-47z" />
    <glyph glyph-name="idieresis" unicode="&#xef;" 
d="M250 416v-299q0 -25 3 -36.5t17.5 -20t45.5 -8.5v-52h-298v52q47 0 60.5 12t13.5 53v145q0 40 -13 52.5t-61 12.5v52zM-6 544q0 28 20 48.5t49 20.5t49 -20t20 -49t-20 -49t-49 -20q-28 0 -48.5 20.5t-20.5 48.5zM202 544q0 29 20 49t49 20t49 -20.5t20 -48.5t-20 -48.5
t-49 -20.5q-28 0 -48.5 20t-20.5 49z" />
    <glyph glyph-name="eth" unicode="&#xf0;" horiz-adv-x="563" 
d="M279 526l-103 -69l-28 45l95 64q-25 24 -82 62l57 46q58 -18 103 -56l82 56l31 -43l-71 -48q167 -150 167 -342q0 -49 -13.5 -93t-41 -81.5t-76.5 -60t-114 -22.5q-119 0 -183.5 62.5t-64.5 153.5q0 71 36.5 122t86.5 72.5t105 21.5q42 0 80 -19q-13 59 -66 129zM204 206
q0 -29 0.5 -45t4.5 -43t11.5 -42t23.5 -26.5t38 -11.5q26 0 42.5 14.5t23.5 43t8.5 50t1.5 54.5q0 23 -0.5 36t-2.5 35.5t-7 35.5t-13 27.5t-21.5 21t-32.5 6.5q-22 0 -37.5 -11.5t-23 -26t-11.5 -40t-4.5 -40t-0.5 -38.5z" />
    <glyph glyph-name="ntilde" unicode="&#xf1;" horiz-adv-x="604" 
d="M237 275v-159q0 -18 2.5 -30t14 -23t33.5 -11v-52h-274v52q44 0 55 13.5t11 50.5v137q0 19 -1.5 28t-7.5 19t-20 13.5t-37 3.5v52l217 36q8 -22 10 -59q66 70 141 70q70 0 108.5 -39t38.5 -102v-159q0 -18 1 -26.5t6.5 -19t19.5 -14.5t37 -4v-52h-272v52q23 0 34.5 11
t13.5 22t2 31v146q0 70 -45 70q-41 0 -88 -57zM428 616h42q5 -59 -22 -106t-80 -47q-31 0 -94 19q-45 13 -64 13q-28 0 -37 -32h-40q-2 49 8 73q13 32 39.5 50t58.5 18q25 0 95 -19q42 -11 54 -11q36 0 40 42z" />
    <glyph glyph-name="ograve" unicode="&#xf2;" horiz-adv-x="563" 
d="M37 201q0 45 15 82.5t39.5 61.5t57 40.5t65.5 23.5t66 7q38 0 77.5 -10.5t78.5 -33.5t64 -67.5t25 -103.5q0 -71 -38 -122t-92 -73t-114 -22q-25 0 -53 4.5t-63.5 19t-62.5 37t-46 63.5t-19 93zM204 206q0 -29 0.5 -45t4.5 -43t11.5 -42t23.5 -26.5t38 -11.5
q26 0 42.5 14.5t23.5 43t8.5 50t1.5 54.5q0 23 -0.5 36t-2.5 35.5t-7 35.5t-13 27.5t-21.5 21t-32.5 6.5q-22 0 -37.5 -11.5t-23 -26t-11.5 -40t-4.5 -40t-0.5 -38.5zM374 462h-42l-227 155v2h198z" />
    <glyph glyph-name="oacute" unicode="&#xf3;" horiz-adv-x="563" 
d="M37 201q0 45 15 82.5t39.5 61.5t57 40.5t65.5 23.5t66 7q38 0 77.5 -10.5t78.5 -33.5t64 -67.5t25 -103.5q0 -71 -38 -122t-92 -73t-114 -22q-25 0 -53 4.5t-63.5 19t-62.5 37t-46 63.5t-19 93zM204 206q0 -29 0.5 -45t4.5 -43t11.5 -42t23.5 -26.5t38 -11.5
q26 0 42.5 14.5t23.5 43t8.5 50t1.5 54.5q0 23 -0.5 36t-2.5 35.5t-7 35.5t-13 27.5t-21.5 21t-32.5 6.5q-22 0 -37.5 -11.5t-23 -26t-11.5 -40t-4.5 -40t-0.5 -38.5zM189 462l71 157h198l-227 -157h-42z" />
    <glyph glyph-name="ocircumflex" unicode="&#xf4;" horiz-adv-x="563" 
d="M37 201q0 45 15 82.5t39.5 61.5t57 40.5t65.5 23.5t66 7q38 0 77.5 -10.5t78.5 -33.5t64 -67.5t25 -103.5q0 -71 -38 -122t-92 -73t-114 -22q-25 0 -53 4.5t-63.5 19t-62.5 37t-46 63.5t-19 93zM204 206q0 -29 0.5 -45t4.5 -43t11.5 -42t23.5 -26.5t38 -11.5
q26 0 42.5 14.5t23.5 43t8.5 50t1.5 54.5q0 23 -0.5 36t-2.5 35.5t-7 35.5t-13 27.5t-21.5 21t-32.5 6.5q-22 0 -37.5 -11.5t-23 -26t-11.5 -40t-4.5 -40t-0.5 -38.5zM284 549l-124 -90h-44l96 176h146l89 -176h-47z" />
    <glyph glyph-name="otilde" unicode="&#xf5;" horiz-adv-x="563" 
d="M37 201q0 45 15 82.5t39.5 61.5t57 40.5t65.5 23.5t66 7q38 0 77.5 -10.5t78.5 -33.5t64 -67.5t25 -103.5q0 -71 -38 -122t-92 -73t-114 -22q-25 0 -53 4.5t-63.5 19t-62.5 37t-46 63.5t-19 93zM204 206q0 -29 0.5 -45t4.5 -43t11.5 -42t23.5 -26.5t38 -11.5
q26 0 42.5 14.5t23.5 43t8.5 50t1.5 54.5q0 23 -0.5 36t-2.5 35.5t-7 35.5t-13 27.5t-21.5 21t-32.5 6.5q-22 0 -37.5 -11.5t-23 -26t-11.5 -40t-4.5 -40t-0.5 -38.5zM407 616h42q5 -59 -22 -106t-80 -47q-31 0 -94 19q-45 13 -64 13q-28 0 -37 -32h-40q-2 49 8 73
q13 32 39.5 50t58.5 18q25 0 95 -19q42 -11 54 -11q36 0 40 42z" />
    <glyph glyph-name="odieresis" unicode="&#xf6;" horiz-adv-x="563" 
d="M37 201q0 45 15 82.5t39.5 61.5t57 40.5t65.5 23.5t66 7q38 0 77.5 -10.5t78.5 -33.5t64 -67.5t25 -103.5q0 -71 -38 -122t-92 -73t-114 -22q-25 0 -53 4.5t-63.5 19t-62.5 37t-46 63.5t-19 93zM204 206q0 -29 0.5 -45t4.5 -43t11.5 -42t23.5 -26.5t38 -11.5
q26 0 42.5 14.5t23.5 43t8.5 50t1.5 54.5q0 23 -0.5 36t-2.5 35.5t-7 35.5t-13 27.5t-21.5 21t-32.5 6.5q-22 0 -37.5 -11.5t-23 -26t-11.5 -40t-4.5 -40t-0.5 -38.5zM109 544q0 28 20.5 48.5t48.5 20.5q29 0 49 -20t20 -49t-20 -49t-49 -20q-28 0 -48.5 20.5t-20.5 48.5z
M317 544q0 29 20 49t49 20q28 0 48.5 -20.5t20.5 -48.5t-20.5 -48.5t-48.5 -20.5t-48.5 20t-20.5 49z" />
    <glyph glyph-name="divide" unicode="&#xf7;" horiz-adv-x="667" 
d="M394 125q0 -25 -18 -43t-43 -18t-43 18t-18 43t18 43t43 18t43 -18t18 -43zM394 535q0 -25 -18 -43t-43 -18t-43 18t-18 43t18 43t43 18t43 -18t18 -43zM62 381h542v-102h-542v102z" />
    <glyph glyph-name="oslash" unicode="&#xf8;" horiz-adv-x="563" 
d="M205 155l140 160q-16 47 -64 47q-27 0 -44 -14.5t-23.5 -43t-8 -47.5t-1.5 -51q0 -35 1 -51zM216 87q22 -49 66 -49q26 0 42.5 14.5t23.5 43t8.5 50t1.5 54.5q0 39 -1 48zM106 41q-69 64 -69 160q0 56 23 99.5t59.5 67.5t77.5 36t83 12q72 0 128 -29l46 52l39 -35
l-39 -45q71 -61 71 -158q0 -71 -38 -122t-91.5 -73t-114.5 -22q-71 0 -129 29l-44 -51l-40 35z" />
    <glyph glyph-name="ugrave" unicode="&#xf9;" horiz-adv-x="604" 
d="M77 130v153q0 17 -1 25.5t-6 19.5t-18 15.5t-35 4.5v52h218v-261q0 -14 1 -22.5t5 -21.5t15 -20t28 -7q38 0 84 62v153q0 18 -1.5 27t-7 19.5t-19.5 14.5t-38 4v52h224v-283q0 -19 1.5 -28.5t7.5 -19.5t20 -13.5t38 -3.5v-52q-121 0 -225 -16v71q-65 -71 -148 -71
q-25 0 -48 6.5t-45.5 21.5t-36 45t-13.5 73zM395 462h-42l-227 155v2h198z" />
    <glyph glyph-name="uacute" unicode="&#xfa;" horiz-adv-x="604" 
d="M77 130v153q0 17 -1 25.5t-6 19.5t-18 15.5t-35 4.5v52h218v-261q0 -14 1 -22.5t5 -21.5t15 -20t28 -7q38 0 84 62v153q0 18 -1.5 27t-7 19.5t-19.5 14.5t-38 4v52h224v-283q0 -19 1.5 -28.5t7.5 -19.5t20 -13.5t38 -3.5v-52q-121 0 -225 -16v71q-65 -71 -148 -71
q-25 0 -48 6.5t-45.5 21.5t-36 45t-13.5 73zM210 462l71 157h198l-227 -157h-42z" />
    <glyph glyph-name="ucircumflex" unicode="&#xfb;" horiz-adv-x="604" 
d="M77 130v153q0 17 -1 25.5t-6 19.5t-18 15.5t-35 4.5v52h218v-261q0 -14 1 -22.5t5 -21.5t15 -20t28 -7q38 0 84 62v153q0 18 -1.5 27t-7 19.5t-19.5 14.5t-38 4v52h224v-283q0 -19 1.5 -28.5t7.5 -19.5t20 -13.5t38 -3.5v-52q-121 0 -225 -16v71q-65 -71 -148 -71
q-25 0 -48 6.5t-45.5 21.5t-36 45t-13.5 73zM305 549l-124 -90h-44l96 176h146l89 -176h-47z" />
    <glyph glyph-name="udieresis" unicode="&#xfc;" horiz-adv-x="604" 
d="M77 130v153q0 17 -1 25.5t-6 19.5t-18 15.5t-35 4.5v52h218v-261q0 -14 1 -22.5t5 -21.5t15 -20t28 -7q38 0 84 62v153q0 18 -1.5 27t-7 19.5t-19.5 14.5t-38 4v52h224v-283q0 -19 1.5 -28.5t7.5 -19.5t20 -13.5t38 -3.5v-52q-121 0 -225 -16v71q-65 -71 -148 -71
q-25 0 -48 6.5t-45.5 21.5t-36 45t-13.5 73zM130 544q0 28 20 48.5t49 20.5t49 -20t20 -49t-20 -49t-49 -20q-28 0 -48.5 20.5t-20.5 48.5zM338 544q0 29 20 49t49 20t49 -20.5t20 -48.5t-20 -48.5t-49 -20.5q-28 0 -48.5 20t-20.5 49z" />
    <glyph glyph-name="yacute" unicode="&#xfd;" horiz-adv-x="531" 
d="M321 138l59 125q23 46 23 60q0 10 -10 18t-32 7v52h160v-52q-25 -2 -39 -16.5t-42 -73.5l-170 -354q-22 -46 -33 -67t-29 -45t-37 -32.5t-45 -8.5q-33 0 -53 19.5t-20 46.5q0 47 66 63q22 5 32.5 8t27 10.5t27.5 19t20 29.5l18 35l-176 302q-29 50 -36 56q-11 7 -33 8v52
h260v-52q-14 -1 -20.5 -2t-12.5 -5.5t-6 -12.5q0 -6 16 -35zM173 462l71 157h198l-227 -157h-42z" />
    <glyph glyph-name="thorn" unicode="&#xfe;" horiz-adv-x="615" 
d="M238 40v-159q0 -18 1 -26.5t6.5 -19t19 -15t36.5 -4.5h16v-52h-304v52q43 0 55 14t12 51v638q0 25 -3 36.5t-18 19.5t-46 8v52l222 39v-328q67 70 153 70q77 0 134 -57t57 -154q0 -100 -60 -160.5t-141 -60.5q-73 0 -140 56zM238 280v-181q38 -41 86 -41q88 0 88 139
q0 146 -82 146q-28 0 -53 -18t-39 -45z" />
    <glyph glyph-name="ydieresis" unicode="&#xff;" horiz-adv-x="531" 
d="M321 138l59 125q23 46 23 60q0 10 -10 18t-32 7v52h160v-52q-25 -2 -39 -16.5t-42 -73.5l-170 -354q-22 -46 -33 -67t-29 -45t-37 -32.5t-45 -8.5q-33 0 -53 19.5t-20 46.5q0 47 66 63q22 5 32.5 8t27 10.5t27.5 19t20 29.5l18 35l-176 302q-29 50 -36 56q-11 7 -33 8v52
h260v-52q-14 -1 -20.5 -2t-12.5 -5.5t-6 -12.5q0 -6 16 -35zM93 544q0 28 20.5 48.5t48.5 20.5q29 0 49 -20t20 -49t-20 -49t-49 -20q-28 0 -48.5 20.5t-20.5 48.5zM301 544q0 29 20 49t49 20q28 0 48.5 -20.5t20.5 -48.5t-20.5 -48.5t-48.5 -20.5t-48.5 20t-20.5 49z" />
    <glyph glyph-name="dotlessi" unicode="&#x131;" 
d="M250 416v-299q0 -25 3 -36.5t17.5 -20t45.5 -8.5v-52h-298v52q47 0 60.5 12t13.5 53v145q0 40 -13 52.5t-61 12.5v52z" />
    <glyph glyph-name="Lslash" unicode="&#x141;" horiz-adv-x="635" 
d="M284 334v-185q0 -29 1.5 -41t11 -26t31 -18.5t59.5 -4.5q20 0 34 1t41 9.5t46 24t38.5 48t29.5 78.5h52l-3 -220h-603v54q54 0 71.5 14t17.5 67v65l-98 -75v89l98 75v238q0 47 -16 64t-73 17v54h355v-54q-58 0 -75.5 -16t-17.5 -65v-104l129 98v-89z" />
    <glyph glyph-name="lslash" unicode="&#x142;" horiz-adv-x="313" 
d="M237 350v-233q0 -37 11.5 -51t56.5 -14v-52h-297v52q46 0 58.5 13t12.5 52v112l-79 -61v79l79 61v213q0 39 -12.5 52t-58.5 13v52l229 36v-245l76 59v-79z" />
    <glyph glyph-name="OE" unicode="&#x152;" horiz-adv-x="1000" 
d="M647 316v-162q0 -3 -0.5 -15.5t0 -17t2 -15.5t5 -15.5t10 -12t16 -10.5t24 -6t32.5 -3q27 0 46.5 4t45.5 18t47 48.5t35 87.5h54l-4 -217h-515q-158 0 -247 45q-69 35 -112.5 112t-43.5 168q0 97 49 182.5t126 118.5q40 17 89 25.5t78.5 9.5t89.5 1h445l10 -173h-55
q-13 42 -26.5 66t-32.5 34t-32.5 12t-42.5 2h-93v-228h59q35 0 48 18.5t15 64.5h55v-224h-55q-1 27 -4 41t-17 27.5t-41 13.5h-60zM474 154v369q0 18 -1.5 28.5t-7.5 24.5t-21 20.5t-39 6.5q-40 0 -70.5 -17t-48 -47.5t-28.5 -59.5t-15 -65.5t-5 -53t-1 -34.5
q0 -66 13 -116.5t31 -78t43 -45t44.5 -22.5t38.5 -5q20 0 33.5 6t20 12t10 22.5t3.5 24v30.5z" />
    <glyph glyph-name="oe" unicode="&#x153;" horiz-adv-x="802" 
d="M712 104l43 -27q-34 -45 -86.5 -65.5t-101.5 -20.5q-72 0 -134 37q-68 -37 -151 -37q-97 0 -171 54.5t-74 157.5q0 46 16 83.5t41 61t58 39.5t65 22.5t64 6.5q95 0 152 -39q61 39 133 39q17 0 36 -2.5t50.5 -15t56 -33.5t43.5 -63.5t21 -99.5h-260q0 -30 2.5 -51
t10.5 -48t28.5 -41.5t52.5 -14.5q59 0 105 57zM204 216q0 -36 2 -60t8.5 -52.5t22.5 -43.5t41 -15q77 0 77 156q0 31 -2 53t-8.5 50t-23 43t-41.5 15q-76 0 -76 -146zM513 251h117q1 21 0 34.5t-6 33.5t-18.5 30t-35.5 10q-60 0 -57 -108z" />
    <glyph glyph-name="Scaron" unicode="&#x160;" horiz-adv-x="563" 
d="M55 11v227h59q7 -32 19.5 -62.5t33.5 -60t53.5 -47.5t71.5 -18q44 0 68 25.5t24 57.5q0 57 -89 101q-50 25 -74 37.5t-58 32.5t-49 35t-31.5 37t-22 46t-5.5 54q0 84 62 141t141 57q85 0 143 -57q14 23 17 45h55v-195h-55q-17 74 -59.5 111t-87.5 37t-64.5 -24t-19.5 -50
q0 -41 29 -63t131 -70q88 -41 135 -90t47 -127q0 -91 -66.5 -148t-153.5 -57q-45 0 -94 19t-85 60q-11 -24 -16 -54h-59zM284 797l116 90h47l-89 -176h-146l-96 176h44z" />
    <glyph glyph-name="scaron" unicode="&#x161;" horiz-adv-x="479" 
d="M50 -16l-3 133h47q38 -83 140 -83q41 0 69.5 14.5t28.5 33.5q0 18 -18.5 26.5t-66.5 17.5q-38 7 -61 12.5t-55.5 18t-51 27t-32 39.5t-13.5 56q0 61 49 99t136 38q61 0 130 -25q14 14 18 25h41l4 -121h-39q-19 38 -60 56.5t-90 18.5q-35 0 -59 -11.5t-24 -31.5
q0 -11 5 -18.5t22 -13.5t32 -9.5t51 -10.5t55 -11.5t50 -16t47 -25.5t29 -38t13 -55q0 -67 -58.5 -106t-136.5 -39q-62 0 -136 27q-13 -10 -19 -27h-44zM242 557l116 90h47l-89 -176h-146l-96 176h44z" />
    <glyph glyph-name="Ydieresis" unicode="&#x178;" horiz-adv-x="688" 
d="M257 271l-150 250q-30 50 -50.5 68.5t-55.5 18.5v54h332v-54q-54 0 -54 -29q0 -17 20 -49l109 -180l91 152q24 41 24 61q0 45 -64 45v54h227v-54q-28 0 -52.5 -20t-56.5 -70l-147 -236v-147q0 -46 16 -63.5t75 -17.5v-54h-355v54q60 0 75.5 18t15.5 62v137zM172 784
q0 28 20 48.5t49 20.5t49 -20t20 -49t-20 -49t-49 -20q-28 0 -48.5 20.5t-20.5 48.5zM380 784q0 29 20 49t49 20t49 -20.5t20 -48.5t-20 -48.5t-49 -20.5q-28 0 -48.5 20t-20.5 49z" />
    <glyph glyph-name="Zcaron" unicode="&#x17d;" horiz-adv-x="677" 
d="M34 0v43l371 560h-107q-96 0 -134.5 -20t-57.5 -97h-54l10 176h558v-44l-375 -559h152q30 0 46.5 1.5t41 8.5t40 21t32 41t28.5 66h55l-11 -197h-595zM341 797l116 90h47l-89 -176h-146l-96 176h44z" />
    <glyph glyph-name="zcaron" unicode="&#x17e;" horiz-adv-x="490" 
d="M28 0v41l224 307h-92q-22 0 -32.5 -11t-32.5 -60h-53l10 123h400v-46l-223 -302h89q18 0 28.5 3t27 22.5t32.5 59.5h53l-13 -137h-418zM248 557l116 90h47l-89 -176h-146l-96 176h44z" />
    <glyph glyph-name="florin" unicode="&#x192;" horiz-adv-x="500" 
d="M347 377l-49 -244q-29 -143 -50 -199.5t-48 -87.5q-54 -68 -124 -68q-35 0 -55.5 17t-20.5 40q0 17 13.5 32.5t36.5 15.5q16 0 30.5 -8.5t14.5 -29.5q0 -6 -3 -15.5t-3 -10.5q0 -11 14 -11q15 0 26 15.5t11 47.5q0 9 -2 45.5t-2 42.5q0 55 20 156l53 262h-69l12 59
q49 0 73.5 21.5t49.5 89.5q25 67 60.5 96t85.5 29q32 0 55.5 -15.5t23.5 -47.5q0 -23 -14 -39.5t-38 -16.5q-21 0 -32 14t-11 26q0 9 7.5 26t7.5 19q0 11 -13 11q-17 0 -31.5 -17t-14.5 -51q0 -12 2 -46t2 -39q0 -26 -6 -60h75l-12 -59h-75z" />
    <glyph glyph-name="circumflex" unicode="&#x2c6;" 
d="M169 569l-124 -90h-44l96 176h146l89 -176h-47z" />
    <glyph glyph-name="caron" unicode="&#x2c7;" 
d="M169 577l116 90h47l-89 -176h-146l-96 176h44z" />
    <glyph glyph-name="uni02C9" unicode="&#x2c9;" 
d="M-11 511v111h354v-111h-354z" />
    <glyph glyph-name="breve" unicode="&#x2d8;" 
d="M18 642h34q26 -80 118 -80q85 0 114 80h32q-1 -66 -41.5 -116.5t-106.5 -50.5q-70 0 -110 54t-40 113z" />
    <glyph glyph-name="dotaccent" unicode="&#x2d9;" 
d="M97 564q0 28 20.5 48.5t48.5 20.5q29 0 49.5 -20t20.5 -49t-20.5 -49t-49.5 -20q-28 0 -48.5 20.5t-20.5 48.5z" />
    <glyph glyph-name="ring" unicode="&#x2da;" 
d="M166 633q-24 0 -40.5 -17t-16.5 -41t16.5 -41t40.5 -17t41 17t17 41t-17 41t-41 17zM166 670q40 0 68 -27.5t28 -67.5t-28 -68t-68 -28t-68 28t-28 68t28 67.5t68 27.5z" />
    <glyph glyph-name="ogonek" unicode="&#x2db;" 
d="M78 0h24q-12 -33 -12 -51q0 -40 30 -65.5t73 -25.5q23 0 59 12l10 -14q-62 -40 -112 -40q-54 0 -83 28.5t-29 68.5q0 47 40 87z" />
    <glyph glyph-name="tilde" unicode="&#x2dc;" 
d="M292 636h42q5 -59 -22 -106t-80 -47q-31 0 -94 19q-45 13 -64 13q-28 0 -37 -32h-40q-2 49 8 73q13 32 39.5 50t58.5 18q25 0 95 -19q42 -11 54 -11q36 0 40 42z" />
    <glyph glyph-name="hungarumlaut" unicode="&#x2dd;" 
d="M-49 482l71 157h198l-226 -157h-43zM178 482l70 157h198l-226 -157h-42z" />
    <glyph glyph-name="uni03A9" unicode="&#x3a9;" horiz-adv-x="654" 
d="M615 0h-255v177q37 26 53 94t16 142q0 131 -28.5 193t-74.5 62q-55 0 -82 -69t-27 -184q0 -92 21 -159.5t59 -84.5v-171h-257v195h37q0 -23 1 -34.5t7 -29t22 -26t41 -8.5h90v34q-38 14 -69.5 35.5t-61 54.5t-46 82.5t-16.5 110.5q0 127 75 212.5t206 85.5
q87 0 153.5 -44.5t98.5 -111t32 -140.5q0 -98 -53.5 -176t-137.5 -103v-40h87q26 0 41.5 8.5t21.5 26t7.5 29.5t1.5 34h37v-195z" />
    <glyph glyph-name="uni03BC" unicode="&#x3bc;" horiz-adv-x="552" 
d="M62 400h136v-243q0 -34 0.5 -48.5t4.5 -30t12.5 -20.5t24.5 -5q44 0 80 60v287h136v-249q0 -25 0.5 -37t3.5 -27t10 -21t19 -6q30 0 37 70h21q-1 -40 -14 -69t-28.5 -43t-35.5 -22t-30 -9t-18 -1q-74 0 -97 77q-68 -77 -142 -77q-19 0 -32 4.5t-26 13.5t-15 10
q-1 -67 10 -116q2 -7 7 -24t8 -31t3 -27q0 -29 -15 -47t-43 -18q-52 0 -52 58q0 20 19 94q8 31 11.5 65.5t4 59t0.5 99.5v273z" />
    <glyph glyph-name="pi" unicode="&#x3c0;" horiz-adv-x="360" 
d="M353 121q-22 -133 -69 -133q-31 0 -44 33q-17 33 -17 123v223h-63v-148q0 -146 -28 -199q-16 -32 -43 -32q-14 0 -26 12t-12 34q0 32 27 48q18 12 22.5 45.5t4.5 114.5v125h-10q-17 0 -24 -12t-12 -45l-34 10q1 76 26 119t60 43h223v-115h-57v-159q0 -76 6 -100
q6 -30 17 -30q2 0 4.5 1t4 3t3 4.5t3 6.5t2.5 7t2.5 8.5t2.5 9.5t2.5 11t2.5 11z" />
    <glyph glyph-name="figuredash" unicode="&#x2012;" horiz-adv-x="542" 
d="M-6 341h554v-64h-554v64z" />
    <glyph glyph-name="endash" unicode="&#x2013;" horiz-adv-x="500" 
d="M-6 295h512v-90h-512v90z" />
    <glyph glyph-name="emdash" unicode="&#x2014;" horiz-adv-x="1000" 
d="M-6 295h1012v-90h-1012v90z" />
    <glyph glyph-name="quoteleft" unicode="&#x2018;" 
d="M259 674v-58q-60 -5 -92.5 -35.5t-32.5 -64.5q0 -25 20 -25q6 0 18 3.5t21 3.5q27 0 51 -22t24 -60q0 -35 -23.5 -63t-68.5 -28q-52 0 -82.5 39.5t-30.5 106.5q0 53 19 94t49.5 63.5t62.5 33.5t65 12z" />
    <glyph glyph-name="quoteright" unicode="&#x2019;" 
d="M74 325v58q60 5 92.5 35.5t32.5 64.5q0 25 -20 25q-5 0 -18 -3.5t-21 -3.5q-27 0 -51 22t-24 60q0 35 23.5 63t68.5 28q52 0 82.5 -39.5t30.5 -106.5q0 -53 -19 -94t-49.5 -63.5t-62.5 -33.5t-65 -12z" />
    <glyph glyph-name="quotesinglbase" unicode="&#x201a;" 
d="M74 -194v58q60 5 92.5 35.5t32.5 64.5q0 25 -20 25l-18 -3q-12 -4 -21 -4q-27 0 -51 22t-24 60q0 35 23.5 63t68.5 28q52 0 82.5 -39.5t30.5 -106.5q0 -53 -19 -94t-49.5 -63.5t-62.5 -33.5t-65 -12z" />
    <glyph glyph-name="quotedblleft" unicode="&#x201c;" horiz-adv-x="594" 
d="M526 674v-58q-60 -5 -92.5 -35.5t-32.5 -64.5q0 -25 20 -25q5 0 18 3.5t21 3.5q27 0 51 -22t24 -60q0 -35 -23.5 -63t-68.5 -28q-52 0 -82.5 39.5t-30.5 106.5q0 53 19 94t49.5 63.5t62.5 33.5t65 12zM256 674v-58q-60 -5 -92.5 -35.5t-32.5 -64.5q0 -25 20 -25
q5 0 18 3.5t21 3.5q27 0 51 -22t24 -60q0 -35 -23.5 -63t-68.5 -28q-52 0 -82.5 39.5t-30.5 106.5q0 53 19 94t49.5 63.5t62.5 33.5t65 12z" />
    <glyph glyph-name="quotedblright" unicode="&#x201d;" horiz-adv-x="594" 
d="M68 325v58q60 5 92.5 35.5t32.5 64.5q0 25 -20 25q-5 0 -18 -3.5t-21 -3.5q-27 0 -51 22t-24 60q0 35 23.5 63t68.5 28q52 0 82.5 -39.5t30.5 -106.5q0 -53 -19 -94t-49.5 -63.5t-62.5 -33.5t-65 -12zM338 325v58q60 5 92.5 35.5t32.5 64.5q0 25 -20 25q-5 0 -18 -3.5
t-21 -3.5q-27 0 -51 22t-24 60q0 35 23.5 63t68.5 28q52 0 82.5 -39.5t30.5 -106.5q0 -53 -19 -94t-49.5 -63.5t-62.5 -33.5t-65 -12z" />
    <glyph glyph-name="quotedblbase" unicode="&#x201e;" horiz-adv-x="594" 
d="M68 -194v58q60 5 92.5 35.5t32.5 64.5q0 25 -20 25l-18 -3q-12 -4 -21 -4q-27 0 -51 22t-24 60q0 35 23.5 63t68.5 28q52 0 82.5 -39.5t30.5 -106.5q0 -53 -19 -94t-49.5 -63.5t-62.5 -33.5t-65 -12zM338 -194v58q60 5 92.5 35.5t32.5 64.5q0 25 -20 25l-18 -3
q-12 -4 -21 -4q-27 0 -51 22t-24 60q0 35 23.5 63t68.5 28q52 0 82.5 -39.5t30.5 -106.5q0 -53 -19 -94t-49.5 -63.5t-62.5 -33.5t-65 -12z" />
    <glyph glyph-name="dagger" unicode="&#x2020;" horiz-adv-x="531" 
d="M237 -243v80q0 86 -12 245.5t-12 160.5q0 76 24 124q-11 -2 -63.5 -21.5t-80.5 -19.5q-8 0 -16.5 2t-21.5 8t-21 22t-8 39q0 40 20 56.5t43 16.5q29 0 80.5 -21.5t67.5 -24.5q-1 2 -9.5 23.5t-12.5 33t-10.5 32.5t-9.5 39.5t-3 36.5q0 35 15 55.5t29.5 25t29.5 4.5
q29 0 51.5 -19.5t22.5 -59.5q0 -51 -45 -171q20 6 48.5 18t51.5 19t46 7q32 0 48.5 -21t16.5 -50q0 -30 -16 -51t-49 -21q-28 0 -82 20.5t-59 21.5q20 -40 20 -125q0 -24 -12.5 -162.5t-12.5 -244.5v-78h-58z" />
    <glyph glyph-name="daggerdbl" unicode="&#x2021;" horiz-adv-x="552" 
d="M313 251h-71q0 14 -8.5 45.5t-8.5 38.5q0 25 23 70q-9 -2 -65.5 -22t-82.5 -20q-27 0 -45.5 20.5t-18.5 52.5q0 33 19 52.5t48 19.5q32 0 109 -31q22 -9 36 -13q-3 17 -21 61q-21 50 -21 83q0 22 9 36.5t22.5 20t23 7.5t17.5 2q38 0 54 -19t16 -45q0 -34 -17 -77
q-21 -55 -24 -69q29 10 61 24q49 21 80 21q29 0 49 -19.5t20 -53.5q0 -25 -8.5 -41.5t-22.5 -22.5t-21.5 -7.5t-13.5 -1.5q-34 0 -78 18q-60 22 -66 24q22 -35 22 -70q0 -19 -8 -45.5t-8 -38.5zM242 178h71q2 -21 9 -46q7 -21 7 -37q0 -34 -22 -72q5 2 74 27q41 16 71 16
q22 0 43.5 -16t21.5 -56q0 -42 -22 -58t-46 -16q-40 0 -83 22q-26 14 -59 22q4 -16 20 -60q21 -63 21 -85q0 -28 -17 -46t-49 -18q-76 0 -76 66q0 37 22 84q15 31 20 59q-12 -2 -36 -12q-79 -32 -109 -32q-29 0 -48 20t-19 53q0 32 18.5 52.5t45.5 20.5q23 0 78 -19
q62 -22 70 -24q-23 45 -23 71q0 10 7 34q8 27 10 50z" />
    <glyph glyph-name="bullet" unicode="&#x2022;" horiz-adv-x="354" 
d="M177 468q57 0 98 -40t41 -99q0 -58 -40.5 -99t-98.5 -41t-99 41t-41 99q0 59 41 99t99 40z" />
    <glyph glyph-name="onedotenleader" unicode="&#x2024;" horiz-adv-x="500" 
d="M164 73q0 37 26 62.5t63 25.5q36 0 62 -25.5t26 -62.5t-26 -63t-62 -26t-62.5 26t-26.5 63z" />
    <glyph glyph-name="twodotenleader" unicode="&#x2025;" horiz-adv-x="500" 
d="M286 73q0 37 26 62.5t63 25.5q36 0 62 -25.5t26 -62.5t-26 -63t-62 -26t-62.5 26t-26.5 63zM37 73q0 37 26 62.5t63 25.5q36 0 62 -25.5t26 -62.5t-26 -63t-62 -26t-62.5 26t-26.5 63z" />
    <glyph glyph-name="ellipsis" unicode="&#x2026;" horiz-adv-x="1000" 
d="M256 71q0 -37 -26 -63t-62 -26q-37 0 -63 26t-26 63q0 36 26 62t63 26q36 0 62 -26t26 -62zM589 71q0 -37 -26 -63t-63 -26t-62.5 26t-25.5 63q0 36 25.5 62t62.5 26t63 -26t26 -62zM922 71q0 -37 -25.5 -63t-62.5 -26t-63 26t-26 63q0 36 26 62t63 26t62.5 -26t25.5 -62
z" />
    <glyph glyph-name="perthousand" unicode="&#x2030;" horiz-adv-x="1167" 
d="M945 163q0 -74 7.5 -108.5t33.5 -34.5q38 0 38 121q0 70 -6.5 107t-14.5 44.5t-21 7.5q-23 0 -30 -29t-7 -108zM820 157q0 82 43 129.5t119 47.5q45 0 78 -15.5t49.5 -36.5t26 -48.5t11.5 -43.5t2 -30q0 -69 -40.5 -121.5t-124.5 -52.5q-47 0 -81.5 18t-51 46t-24 54.5
t-7.5 52.5zM184 0l339 662h71l-340 -662h-70zM18 497q0 82 43 129.5t119 47.5q45 0 78 -15.5t49.5 -36.5t26 -48.5t11.5 -43.5t2 -30q0 -69 -40.5 -121.5t-124.5 -52.5q-47 0 -81.5 18t-51 46t-24 54.5t-7.5 52.5zM143 503q0 -74 7.5 -108.5t33.5 -34.5q38 0 38 121
q0 70 -6.5 107t-14.5 44.5t-21 7.5q-23 0 -30 -29t-7 -108zM431 157q0 82 43 129.5t119 47.5q45 0 78 -15.5t49.5 -36.5t26 -48.5t11.5 -43.5t2 -30q0 -69 -40.5 -121.5t-124.5 -52.5q-47 0 -81.5 18t-51 46t-24 54.5t-7.5 52.5zM556 163q0 -74 7.5 -108.5t33.5 -34.5
q38 0 38 121q0 70 -6.5 107t-14.5 44.5t-21 7.5q-23 0 -30 -29t-7 -108z" />
    <glyph glyph-name="guilsinglleft" unicode="&#x2039;" horiz-adv-x="302" 
d="M198 215l77 -215h-55l-194 215l193 215h56z" />
    <glyph glyph-name="guilsinglright" unicode="&#x203a;" horiz-adv-x="302" 
d="M104 215l-77 215h55l194 -215l-193 -215h-56z" />
    <glyph glyph-name="fraction" unicode="&#x2044;" horiz-adv-x="177" 
d="M-117 0l339 662h71l-339 -662h-71z" />
    <glyph glyph-name="zero.superior" unicode="&#x2070;" 
d="M23 497q0 81 37 128t106 47q54 0 95 -36q47 -41 47 -141q0 -111 -62 -155q-34 -24 -80 -24q-57 0 -96 37q-47 45 -47 144zM131 497q0 -107 14 -132q9 -15 22 -15t18 11q5 7 8 15t5 35.5t2 77.5q0 107 -12 133q-7 16 -22 16q-14 0 -22 -15q-13 -28 -13 -126z" />
    <glyph glyph-name="four.superior" unicode="&#x2074;" 
d="M153 438h-132v42l178 192h60v-193h50v-41h-50v-47q0 -14 1 -19.5t8 -10t21 -4.5h20v-34h-208v34h20q16 0 22.5 3.5t8 9t1.5 19.5v49zM73 479h80v85z" />
    <glyph glyph-name="five.superior" unicode="&#x2075;" 
d="M52 493l7 175h208q-20 -44 -28.5 -51t-37.5 -7h-101l-2 -68q28 15 64 15q46 0 90 -28t44 -87q0 -61 -51.5 -93.5t-116.5 -32.5q-44 0 -77.5 15t-33.5 41q0 13 12.5 22.5t28.5 9.5q5 0 10 -1t8.5 -3t6.5 -4t5.5 -4t4 -3.5l2.5 -2.5l1 -2q7 -13 11 -18t12 -10.5t19 -5.5
q21 0 32 15t13.5 32t2.5 44q0 23 -2 37.5t-13 27.5t-32 13q-15 0 -22.5 -5.5t-17.5 -20.5h-47z" />
    <glyph glyph-name="six.superior" unicode="&#x2076;" 
d="M143 536q22 8 47 8q42 0 82.5 -25.5t40.5 -83.5q0 -56 -42.5 -87.5t-95.5 -31.5q-55 0 -99 36.5t-44 114.5q0 101 56.5 153t130.5 52q37 0 61 -12.5t24 -30.5q0 -12 -11 -22t-28 -10q-23 0 -41 23q-14 16 -29 16q-18 0 -31 -19.5t-17.5 -41.5t-3.5 -39zM137 432
q0 -82 37 -82q18 0 24.5 17t6.5 55q0 47 -8 67.5t-27 20.5q-12 0 -19 -6t-10 -20t-3.5 -23.5t-0.5 -28.5z" />
    <glyph glyph-name="seven.superior" unicode="&#x2077;" 
d="M234 599h-126q-19 0 -25.5 -3.5t-12.5 -22.5h-43l41 108h43q-1 -3 -1.5 -5t-0.5 -4q-1 -3 0.5 -3.5t10.5 -0.5h188l-111 -305q-9 -25 -20.5 -36t-33.5 -11q-19 0 -33 8.5t-14 24.5q0 11 21 49z" />
    <glyph glyph-name="eight.superior" unicode="&#x2078;" 
d="M228 505l14 -3q10 -2 19 -6t22 -13t21 -26t8 -39q0 -50 -43 -76t-101 -26q-22 0 -44.5 4.5t-46.5 14.5t-39 31.5t-15 50.5q0 68 72 85l13 2v2q-74 20 -74 77q0 47 40 68t93 21q52 0 93 -21t41 -68q0 -34 -23.5 -52t-49.5 -24v-2zM131 425q0 -41 6.5 -58t30.5 -17
q22 0 29 16.5t7 49.5q0 42 -7.5 56t-30.5 14q-24 0 -29.5 -14.5t-5.5 -46.5zM137 586q0 -36 5.5 -51t25.5 -15q30 0 30 63q0 29 -6.5 42t-24.5 13q-20 0 -25 -12.5t-5 -39.5z" />
    <glyph glyph-name="nine.superior" unicode="&#x2079;" 
d="M197 435l1 15q-20 -9 -44 -9q-47 0 -86 28.5t-39 83.5q0 57 42.5 88t96.5 31q19 0 38 -4.5t45 -18.5t42.5 -48t16.5 -84q0 -87 -50 -144t-138 -57q-39 0 -61.5 12t-22.5 31q0 12 12 21t27 9q22 0 41 -22q10 -15 28 -15q25 0 37 26.5t14 56.5zM137 554q0 -77 34 -77t34 69
q0 92 -35 92q-16 0 -23.5 -11.5t-8.5 -25.5t-1 -47z" />
    <glyph glyph-name="parenleft.superior" unicode="&#x207d;" horiz-adv-x="219" 
d="M212 183h-60q-1 1 -7 8.5t-11.5 14t-6.5 8.5q-72 111 -72 241q0 163 97 275h60q-29 -41 -44.5 -67t-33 -84t-17.5 -123q0 -48 8.5 -90.5t25.5 -78.5t28.5 -55t32.5 -49z" />
    <glyph glyph-name="parenright.superior" unicode="&#x207e;" horiz-adv-x="219" 
d="M8 183q21 30 32.5 49t28.5 55t25.5 78.5t8.5 90.5q0 65 -17.5 123t-33 84t-44.5 67h60q97 -112 97 -275q0 -122 -72 -241q-1 -2 -6.5 -8.5t-11.5 -14t-7 -8.5h-60z" />
    <glyph glyph-name="n.superior" unicode="&#x207f;" horiz-adv-x="385" 
d="M158 493v-103q0 -12 1.5 -18.5t7.5 -11.5t17 -5v-32h-173v32q29 0 36.5 7.5t7.5 27.5v89q0 21 -7 28.5t-37 7.5v32l140 28q4 -8 7 -45q47 45 90 45q35 0 64 -19t29 -67v-99q0 -14 2 -20t11 -10.5t29 -4.5v-32h-172v32q19 0 23 6.5t4 26.5v99q0 21 -5 29.5t-22 8.5
q-21 0 -53 -32z" />
    <glyph glyph-name="zero.inferior" unicode="&#x2080;" 
d="M23 174q0 81 37 128t106 47q54 0 95 -36q47 -41 47 -141q0 -111 -62 -155q-34 -24 -80 -24q-57 0 -96 37q-47 45 -47 144zM131 174q0 -107 14 -132q9 -15 22 -15t18 11q5 7 8 15t5 35.5t2 77.5q0 107 -12 133q-7 16 -22 16q-14 0 -22 -15q-13 -28 -13 -126z" />
    <glyph glyph-name="one.inferior" unicode="&#x2081;" 
d="M68 0v34h20q19 0 24.5 5t5.5 22v187q0 27 -8.5 32t-47.5 5v34q73 2 115 24q6 6 8 6h38v-286q0 -12 1 -17t7.5 -8.5t20.5 -3.5h20v-34h-204z" />
    <glyph glyph-name="two.inferior" unicode="&#x2082;" 
d="M41 0v27q71 59 113 113.5t42 111.5q0 24 -11 42.5t-35 18.5q-17 0 -29 -11t-12 -25t9 -29l2 -4l2 -4q0 -4 -26.5 -13.5t-32.5 -9.5q-11 0 -17.5 16.5t-6.5 31.5q0 36 39 60t93 24q55 0 94 -25t39 -69q0 -31 -25.5 -65.5t-80.5 -85.5l-51 -47h162l-16 -77h-43q3 9 3 11
q0 7 -2.5 8t-13.5 1h-196z" />
    <glyph glyph-name="three.inferior" unicode="&#x2083;" 
d="M234 205v-2q83 -11 83 -84q0 -59 -52 -92.5t-121 -33.5q-47 0 -76.5 16t-29.5 38q0 17 14 26.5t29 9.5q31 0 44 -33q4 -8 6.5 -12t8 -7.5t14.5 -3.5q55 0 55 81q0 62 -23 62q-11 0 -20 -9q-14 -12 -26 -12q-10 0 -15.5 6.5t-5.5 13.5t6 11.5t34 21.5q47 28 47 69
q0 24 -12.5 33t-26.5 9t-27 -8.5t-13 -22.5t10 -20q5 -5 5 -8q0 -4 -27 -14t-35 -10q-14 0 -20 14t-6 25q0 34 42 57t96 23q44 0 80.5 -16.5t36.5 -48.5q0 -44 -75 -79z" />
    <glyph glyph-name="four.inferior" unicode="&#x2084;" 
d="M153 115h-132v42l178 192h60v-193h50v-41h-50v-47q0 -14 1 -19.5t8 -10t21 -4.5h20v-34h-208v34h20q16 0 22.5 3.5t8 9t1.5 19.5v49zM73 156h80v85z" />
    <glyph glyph-name="five.inferior" unicode="&#x2085;" 
d="M49 170l7 175h208q-20 -43 -28.5 -50.5t-37.5 -7.5h-101l-2 -68q28 15 64 15q46 0 90 -28t44 -87q0 -61 -51.5 -93.5t-116.5 -32.5q-44 0 -77.5 15t-33.5 41q0 13 12.5 22.5t28.5 9.5q5 0 10 -1t8.5 -3t6.5 -4t5.5 -4t4 -3.5t2.5 -3.5l1 -1q7 -13 11 -18t12 -10.5
t19 -5.5q21 0 32 15t13.5 32t2.5 44q0 23 -2 37.5t-13 27.5t-32 13q-15 0 -22.5 -5.5t-17.5 -20.5h-47z" />
    <glyph glyph-name="six.inferior" unicode="&#x2086;" 
d="M143 213q22 8 47 8q42 0 82.5 -25.5t40.5 -83.5q0 -56 -42.5 -87.5t-95.5 -31.5q-55 0 -99 36.5t-44 114.5q0 101 56.5 153t130.5 52q37 0 61 -12.5t24 -30.5q0 -12 -11 -22t-28 -10q-23 0 -41 23q-14 16 -29 16q-18 0 -31 -19.5t-17.5 -41.5t-3.5 -39zM137 109
q0 -82 37 -82q18 0 24.5 17t6.5 55q0 47 -8 67.5t-27 20.5q-12 0 -19 -6t-10 -20t-3.5 -23.5t-0.5 -28.5z" />
    <glyph glyph-name="seven.inferior" unicode="&#x2087;" 
d="M234 276h-126q-19 0 -25.5 -3.5t-12.5 -22.5h-43l41 108h43q-1 -3 -1.5 -5.5t-0.5 -3.5q-1 -3 0.5 -3.5t10.5 -0.5h188l-111 -305q-9 -25 -20.5 -36t-33.5 -11q-19 0 -33 8.5t-14 24.5q0 14 21 49z" />
    <glyph glyph-name="eight.inferior" unicode="&#x2088;" 
d="M228 182l14 -3q10 -2 19 -6t22 -13t21 -26t8 -39q0 -50 -43 -76t-101 -26q-22 0 -44.5 4.5t-46.5 14.5t-39 31.5t-15 50.5q0 68 72 85l13 2v2q-74 20 -74 77q0 47 40 68t93 21q52 0 93 -21t41 -68q0 -34 -23.5 -52t-49.5 -24v-2zM131 102q0 -41 6.5 -58t30.5 -17
q22 0 29 16.5t7 49.5q0 42 -7.5 56t-30.5 14q-24 0 -29.5 -14.5t-5.5 -46.5zM137 263q0 -36 5.5 -51t25.5 -15q30 0 30 63q0 29 -6.5 42t-24.5 13q-20 0 -25 -12.5t-5 -39.5z" />
    <glyph glyph-name="nine.inferior" unicode="&#x2089;" 
d="M197 112l1 15q-20 -9 -44 -9q-47 0 -86 28.5t-39 83.5q0 57 42.5 88t96.5 31q19 0 38 -4.5t45 -18.5t42.5 -48t16.5 -84q0 -87 -50 -144t-138 -57q-39 0 -61.5 12t-22.5 31q0 12 12 21t27 9q22 0 41 -22q10 -15 28 -15q25 0 37 26.5t14 56.5zM137 231q0 -77 34 -77t34 69
q0 92 -35 92q-23 0 -28 -18.5t-5 -65.5z" />
    <glyph glyph-name="parenleft.inferior" unicode="&#x208d;" horiz-adv-x="219" 
d="M212 -141h-60q-2 3 -12.5 16t-12.5 16q-72 109 -72 240q0 164 97 276h60q-29 -41 -44.5 -67t-33 -84t-17.5 -123q0 -49 8.5 -91.5t25.5 -78.5t28.5 -55t32.5 -49z" />
    <glyph glyph-name="parenright.inferior" unicode="&#x208e;" horiz-adv-x="219" 
d="M8 -141q21 30 32.5 49t28.5 55t25.5 78.5t8.5 91.5q0 65 -17.5 123t-33 84t-44.5 67h60q97 -112 97 -276q0 -118 -72 -240q-2 -3 -12.5 -16t-12.5 -16h-60z" />
    <glyph glyph-name="colonmonetary" unicode="&#x20a1;" horiz-adv-x="750" 
d="M521 646l31 124h60l-40 -156l23 -20q13 34 20 59h54l6 -244h-53q-21 89 -67 139l-126 -497q78 5 128.5 58.5t72.5 145.5h55v-249h-55q-10 38 -28 64q-14 -15 -34 -30t-63 -32t-92 -21l-30 -119h-60l31 120q-34 2 -76 13l-34 -133h-59l39 155q-89 47 -133.5 130t-44.5 172
q0 46 12 93.5t39 93.5t66 82t97.5 58t128.5 22l25 96h59l-25 -101q35 -6 73 -23zM372 58l134 529q-32 19 -74 23l-130 -514q29 -28 70 -38zM261 163l111 442q-42 -10 -70 -38.5t-40.5 -71t-16.5 -80.5t-4 -88q0 -105 18 -164h2z" />
    <glyph glyph-name="Euro" unicode="&#x20ac;" horiz-adv-x="542" 
d="M425 408l-8 -54h-205v-21q0 -4 -0.5 -13t-0.5 -15h198l-8 -54h-190q2 -142 28 -173q1 -1 4 -5.5t4.5 -6l5.5 -5.5t7 -6t8 -4.5t10 -4t12 -2.5t15 -1q45 0 77 50t44 110l46 -8q-11 -65 -32 -109t-49.5 -64.5t-54 -28t-57.5 -7.5q-109 0 -171 101q-44 70 -56 164h-49l8 54
h37q-1 7 -1 21q0 18 1 28h-45l8 54h42q14 88 55 160q60 104 175 104q81 0 125 -54q1 8 1 15.5t3 19.5h53l2 -191h-53q-12 52 -15.5 63.5t-15.5 37.5q-26 54 -74 54q-31 0 -49.5 -18.5t-31.5 -55.5q-14 -43 -16 -135h213z" />
    <glyph glyph-name="afii61289" unicode="&#x2113;" horiz-adv-x="251" 
d="M297 137q-12 -78 -42 -113.5t-83 -35.5q-54 0 -89 32q-21 19 -32 53t-11 64v33q-3 -5 -9.5 -13.5t-14.5 -18.5t-11 -14l-24 37q51 59 59 71v223q0 63 16 119t55 97t93 41q91 0 91 -100q0 -109 -55 -225q-26 -55 -45 -78v-169q0 -76 23 -76q21 0 34 85zM251 605
q0 58 -25 58q-31 0 -31 -127v-142q1 2 10 23.5t14 33.5q13 33 22.5 79.5t9.5 74.5z" />
    <glyph glyph-name="trademark" unicode="&#x2122;" horiz-adv-x="1000" 
d="M-1 662h379v-110h-17q-4 85 -95 85h-18v-287q0 -41 8 -53t42 -12v-17h-222v17q34 0 42 12t8 55v285h-16q-24 0 -42 -6t-27.5 -14t-15.5 -20.5t-8 -22t-3 -22.5h-15v110zM432 662h179l113 -242l112 242h169v-18q-33 0 -41 -13t-8 -53v-230q0 -35 9 -49t40 -14v-17h-225v17
q35 0 45.5 11t10.5 52v251l-156 -331h-12l-155 331v-250q0 -38 9 -51t47 -13v-17h-137v17q34 0 43.5 11.5t9.5 54.5v228q0 42 -8 53.5t-45 11.5v18z" />
    <glyph glyph-name="Omega" unicode="&#x2126;" horiz-adv-x="654" 
d="M615 0h-255v177q37 26 53 94t16 142q0 131 -28.5 193t-74.5 62q-55 0 -82 -69t-27 -184q0 -92 21 -159.5t59 -84.5v-171h-257v195h37q0 -23 1 -34.5t7 -29t22 -26t41 -8.5h90v34q-38 14 -69.5 35.5t-61 54.5t-46 82.5t-16.5 110.5q0 127 75 212.5t206 85.5
q87 0 153.5 -44.5t98.5 -111t32 -140.5q0 -98 -53.5 -176t-137.5 -103v-40h87q26 0 41.5 8.5t21.5 26t7.5 29.5t1.5 34h37v-195z" />
    <glyph glyph-name="estimated" unicode="&#x212e;" horiz-adv-x="567" 
d="M527 246h-381v-179q55 -56 136 -56q55 0 105 30t82 87l25 -14q-44 -64 -93.5 -95t-118.5 -31q-111 0 -176 73t-65 185q0 111 65 184.5t173 73.5q113 0 177.5 -71.5t70.5 -186.5zM416 271v150q-55 59 -138 59q-76 0 -132 -56v-153h270z" />
    <glyph glyph-name="onethird" unicode="&#x2153;" horiz-adv-x="990" 
d="M821 205v-2q83 -11 83 -84q0 -59 -52 -92.5t-121 -33.5q-47 0 -76.5 16t-29.5 38q0 17 13.5 26.5t29.5 9.5q31 0 44 -33q4 -8 6.5 -12t8 -7.5t14.5 -3.5q55 0 55 81q0 62 -23 62q-11 0 -20 -9q-14 -12 -26 -12q-10 0 -15.5 6.5t-5.5 13.5t6 11.5t34 21.5q47 28 47 69
q0 24 -12.5 33t-26.5 9t-27 -8.5t-13 -22.5t10 -20q5 -5 5 -8q0 -4 -27 -14t-35 -10q-14 0 -20 14t-6 25q0 34 42 57t96 23q44 0 80.5 -16.5t36.5 -48.5q0 -44 -75 -79zM290 0l340 664h71l-341 -664h-70zM126 323v34h20q19 0 24.5 5t5.5 22v188q0 27 -8.5 32t-47.5 5v34
q73 2 115 24q6 6 8 6h38v-287q0 -12 1 -17t7.5 -8.5t20.5 -3.5h20v-34h-204z" />
    <glyph glyph-name="twothirds" unicode="&#x2154;" horiz-adv-x="990" 
d="M821 205v-2q83 -11 83 -84q0 -59 -52 -92.5t-121 -33.5q-47 0 -76.5 16t-29.5 38q0 17 13.5 26.5t29.5 9.5q31 0 44 -33q4 -8 6.5 -12t8 -7.5t14.5 -3.5q55 0 55 81q0 62 -23 62q-11 0 -20 -9q-14 -12 -26 -12q-10 0 -15.5 6.5t-5.5 13.5t6 11.5t34 21.5q47 28 47 69
q0 24 -12.5 33t-26.5 9t-27 -8.5t-13 -22.5t10 -20q5 -5 5 -8q0 -4 -27 -14t-35 -10q-14 0 -20 14t-6 25q0 34 42 57t96 23q44 0 80.5 -16.5t36.5 -48.5q0 -44 -75 -79zM290 0l340 664h71l-340 -664h-71zM100 323v27q71 59 113 113.5t42 111.5q0 24 -11 42.5t-35 18.5
q-17 0 -29 -11t-12 -25t9 -29q0 -1 2 -4t2 -4q0 -4 -26.5 -13.5t-32.5 -9.5q-11 0 -17.5 16.5t-6.5 31.5q0 36 39 60t93 24q55 0 94 -25t39 -69q0 -19 -5.5 -32.5t-37 -50.5t-96.5 -98l-18 -17h162l-16 -77h-43q3 9 3 11q0 6 -2.5 7.5t-13.5 1.5h-196z" />
    <glyph glyph-name="oneeighth" unicode="&#x215b;" horiz-adv-x="990" 
d="M815 183l14 -3q13 -3 26 -9t28 -26.5t15 -49.5q0 -50 -42.5 -76t-100.5 -26q-31 0 -60.5 7t-56.5 31.5t-27 62.5q0 35 20 57t51 29l13 2v2q-74 20 -74 77q0 47 40 68.5t93 21.5q52 0 93 -21.5t41 -68.5q0 -34 -23.5 -52t-49.5 -24v-2zM718 102q0 -41 6.5 -58t30.5 -17
q22 0 29 16.5t7 49.5q0 43 -7.5 57.5t-30.5 14.5q-16 0 -24.5 -10t-9.5 -20.5t-1 -32.5zM724 264q0 -36 5.5 -51t25.5 -15q29 0 29 63q0 30 -6.5 43t-23.5 13q-20 0 -25 -12.5t-5 -40.5zM126 323v34h20q19 0 24.5 5t5.5 22v188q0 27 -8.5 32t-47.5 5v34q73 2 115 24q6 6 8 6
h38v-287q0 -12 1 -17t7.5 -8.5t20.5 -3.5h20v-34h-204zM289 0l341 664h70l-340 -664h-71z" />
    <glyph glyph-name="threeeighths" unicode="&#x215c;" horiz-adv-x="990" 
d="M815 183l14 -3q13 -3 26 -9t28 -26.5t15 -49.5q0 -50 -42.5 -76t-100.5 -26q-31 0 -60.5 7t-56.5 31.5t-27 62.5q0 35 20 57t51 29l13 2v2q-74 20 -74 77q0 47 40 68.5t93 21.5q52 0 93 -21.5t41 -68.5q0 -34 -23.5 -52t-49.5 -24v-2zM718 102q0 -41 6.5 -58t30.5 -17
q22 0 29 16.5t7 49.5q0 43 -7.5 57.5t-30.5 14.5q-16 0 -24.5 -10t-9.5 -20.5t-1 -32.5zM724 264q0 -36 5.5 -51t25.5 -15q29 0 29 63q0 30 -6.5 43t-23.5 13q-20 0 -25 -12.5t-5 -40.5zM293 528v-2q83 -11 83 -84q0 -59 -52 -92.5t-121 -33.5q-47 0 -76.5 16t-29.5 38
q0 17 13.5 26.5t29.5 9.5q31 0 44 -33q4 -8 6.5 -12t8 -7.5t14.5 -3.5q55 0 55 81q0 62 -23 62q-11 0 -20 -9q-14 -12 -26 -12q-10 0 -15.5 6.5t-5.5 13.5t6 11.5t34 21.5q47 28 47 69q0 24 -12.5 33t-26.5 9t-27 -8.5t-13 -22.5t10 -20q5 -5 5 -8q0 -4 -27 -14t-35 -10
q-14 0 -20 14t-6 25q0 34 42 57t96 23q44 0 80.5 -16.5t36.5 -48.5q0 -44 -75 -79zM289 0l341 664h70l-340 -664h-71z" />
    <glyph glyph-name="fiveeighths" unicode="&#x215d;" horiz-adv-x="990" 
d="M815 183l14 -3q13 -3 26 -9t28 -26.5t15 -49.5q0 -50 -42.5 -76t-100.5 -26q-31 0 -60.5 7t-56.5 31.5t-27 62.5q0 35 20 57t51 29l13 2v2q-74 20 -74 77q0 47 40 68.5t93 21.5q52 0 93 -21.5t41 -68.5q0 -34 -23.5 -52t-49.5 -24v-2zM718 102q0 -41 6.5 -58t30.5 -17
q22 0 29 16.5t7 49.5q0 43 -7.5 57.5t-30.5 14.5q-16 0 -24.5 -10t-9.5 -20.5t-1 -32.5zM724 264q0 -36 5.5 -51t25.5 -15q29 0 29 63q0 30 -6.5 43t-23.5 13q-20 0 -25 -12.5t-5 -40.5zM119 493l7 175h208q-20 -44 -28.5 -51t-37.5 -7h-101l-2 -68q28 15 64 15q46 0 90 -28
t44 -87q0 -61 -51.5 -93.5t-116.5 -32.5q-44 0 -77.5 15t-33.5 41q0 13 12.5 22.5t28.5 9.5q5 0 10 -1t8.5 -3t6.5 -4t5.5 -4t4 -3.5l2.5 -2.5l1 -2q7 -13 11 -18t12 -10.5t19 -5.5q21 0 32 15t13.5 32t2.5 44q0 23 -2 37.5t-13 27.5t-32 13q-15 0 -22.5 -5.5t-17.5 -20.5
h-47zM289 0l341 664h70l-340 -664h-71z" />
    <glyph glyph-name="seveneighths" unicode="&#x215e;" horiz-adv-x="990" 
d="M816 183l14 -3q13 -3 26 -9t28 -26.5t15 -49.5q0 -50 -42.5 -76t-100.5 -26q-31 0 -60.5 7t-56.5 31.5t-27 62.5q0 35 20 57t51 29l13 2v2q-74 20 -74 77q0 47 40 68.5t93 21.5q52 0 93 -21.5t41 -68.5q0 -34 -23.5 -52t-49.5 -24v-2zM719 102q0 -41 6.5 -58t30.5 -17
q22 0 29 16.5t7 49.5q0 43 -7.5 57.5t-30.5 14.5q-16 0 -24.5 -10t-9.5 -20.5t-1 -32.5zM725 264q0 -36 5.5 -51t25.5 -15q29 0 29 63q0 30 -6.5 43t-23.5 13q-20 0 -25 -12.5t-5 -40.5zM304 599h-126q-19 0 -25.5 -3.5t-12.5 -22.5h-43l41 108h43q-1 -3 -1.5 -5t-0.5 -4
q-1 -3 0.5 -3.5t10.5 -0.5h188l-111 -305q-9 -25 -20.5 -36t-33.5 -11q-19 0 -33 8.5t-14 24.5q0 14 21 49zM273 0l340 664h71l-340 -664h-71z" />
    <glyph glyph-name="partialdiff" unicode="&#x2202;" horiz-adv-x="445" 
d="M420 497q0 -54 -16.5 -135t-35.5 -132q-56 -142 -101.5 -192t-105.5 -50q-70 0 -107 50.5t-37 144.5q0 115 59.5 199t154.5 84q81 0 104 -83h1q2 25 2 76q0 63 -26.5 120.5t-79.5 57.5q-61 0 -110 -60l-18 24q66 126 178 126q42 0 70 -17t42.5 -50.5t20 -71.5t5.5 -91z
M330 329q-10 56 -28 71q-13 11 -31 11q-44 0 -74.5 -79t-30.5 -186q0 -48 15.5 -73.5t37.5 -25.5q38 0 67.5 85t43.5 197z" />
    <glyph glyph-name="Delta" unicode="&#x2206;" horiz-adv-x="483" 
d="M462 0h-437l154 712h131zM295 54l-94 452l-101 -452h195z" />
    <glyph glyph-name="product" unicode="&#x220f;" horiz-adv-x="582" 
d="M553 -131h-238v37h9q32 0 32 86v653h-132v-653q0 -86 29 -86h11v-37h-235v37h10q31 0 31 86v585q0 86 -30 86h-11v37h524v-37h-10q-32 0 -32 -86v-585q0 -86 31 -86h11v-37z" />
    <glyph glyph-name="summation" unicode="&#x2211;" horiz-adv-x="405" 
d="M397 75l-11 -206h-372v43l156 341l-151 404v43h356l7 -169h-36q-4 69 -14.5 91t-38.5 22h-135l113 -306l-163 -349h196q30 0 40 19t15 71z" />
    <glyph glyph-name="minus" unicode="&#x2212;" horiz-adv-x="667" 
d="M62 381h542v-102h-542v102z" />
    <glyph glyph-name="uni2215" unicode="&#x2215;" horiz-adv-x="177" 
d="M-117 0l339 662h71l-339 -662h-71z" />
    <glyph glyph-name="uni2219" unicode="&#x2219;" horiz-adv-x="292" 
d="M57 330q0 37 26 62.5t63 25.5q36 0 62 -25.5t26 -62.5t-26 -63t-62 -26t-62.5 26t-26.5 63z" />
    <glyph glyph-name="radical" unicode="&#x221a;" horiz-adv-x="258" 
d="M250 728l-77 -740h-62l-82 316l-25 -21l-25 34l96 72l67 -293h1l68 632h39z" />
    <glyph glyph-name="infinity" unicode="&#x221e;" horiz-adv-x="565" 
d="M408 153q-43 0 -68.5 17t-48.5 54h-1q-51 -71 -132 -71q-52 0 -87 36t-35 89q0 55 33.5 91.5t86.5 36.5q71 0 115 -72h1q46 72 132 72q51 0 86 -35.5t35 -89.5t-33.5 -91t-83.5 -37zM410 359q-10 0 -19 -2.5t-16 -5.5t-14 -10.5t-11 -12t-10.5 -15t-8.5 -14.5l-8.5 -17
t-7.5 -16q31 -67 92 -67q34 0 53.5 24.5t19.5 57.5q0 34 -17.5 56t-52.5 22zM158 359q-32 0 -54.5 -21t-22.5 -59q0 -35 19.5 -57.5t54.5 -22.5q9 0 18 3t15.5 6.5t14 11.5t11.5 12.5t10.5 16t8.5 15t8.5 16.5t6.5 14q-34 65 -90 65z" />
    <glyph glyph-name="integral" unicode="&#x222b;" horiz-adv-x="229" 
d="M230 688q0 -46 -33 -46q-22 0 -33 16q-9 11 -24 11q-14 0 -14 -16t4.5 -37.5t13.5 -52t12 -45.5q10 -37 18 -113t8 -126q0 -180 -13 -258q-22 -126 -32 -153q-28 -79 -78 -79q-25 0 -43.5 16t-18.5 42q0 20 10.5 33.5t30.5 13.5q16 0 29 -19q6 -8 20 -8t14 25
q0 11 -6.5 37t-16 63t-14.5 62q-19 102 -19 223q0 98 10 195q12 123 29 185q13 43 35.5 66.5t46.5 23.5q31 0 47.5 -17t16.5 -42z" />
    <glyph glyph-name="approxequal" unicode="&#x2248;" horiz-adv-x="667" 
d="M598 423q-65 -92 -156 -92q-60 0 -116 31q-55 33 -97 33q-45 0 -92 -67l-67 77q33 45 68 68.5t87 23.5q57 0 116 -31q59 -33 98 -33q47 0 92 67zM598 190q-66 -92 -156 -92q-61 0 -116 32q-58 33 -97 33q-46 0 -92 -68l-67 78q33 45 68 68.5t87 23.5q59 0 116 -32
q59 -33 98 -33q47 0 92 68z" />
    <glyph glyph-name="notequal" unicode="&#x2260;" horiz-adv-x="667" 
d="M568 131h-264l-54 -109h-112l54 109h-92v102h143l66 132h-209v102h260l62 125h112l-62 -125h96v-102h-147l-66 -132h213v-102z" />
    <glyph glyph-name="lessequal" unicode="&#x2264;" horiz-adv-x="667" 
d="M568 0h-468v102h468v-102zM568 143l-468 188v92l468 187v-107l-331 -126v-2l331 -126v-106z" />
    <glyph glyph-name="greaterequal" unicode="&#x2265;" horiz-adv-x="667" 
d="M568 0h-468v102h468v-102zM568 331l-468 -187v107l331 125v2l-331 126v107l468 -188v-92z" />
    <glyph glyph-name="lozenge" unicode="&#x25ca;" horiz-adv-x="235" 
d="M260 349l-125 -361h-36l-124 361l124 363h36zM205 349l-87 273l-88 -273l88 -272z" />
    <glyph glyph-name="uni2014.alt" unicode="&#xe000;" horiz-adv-x="750" 
d="M-5 341h760v-64h-760v64z" />
    <glyph glyph-name="one.fitted" unicode="&#xf6dc;" horiz-adv-x="417" 
d="M48 0v53h24q38 0 49 13.5t11 45.5v371q0 54 -14 66.5t-79 12.5v53q129 7 201 59h52v-559q0 -17 1 -25t6 -18.5t18 -14.5t34 -4h24v-53h-327z" />
    <glyph glyph-name="R_p" unicode="&#xf6dd;" horiz-adv-x="1333" 
d="M286 292v-157q0 -47 16.5 -64t74.5 -17v-54h-357v54q58 0 75.5 16t17.5 65v392q0 48 -17 64.5t-76 16.5v54l266 1q113 0 147 -1.5t64 -9.5q79 -20 111 -69t32 -99q0 -117 -134 -160q25 -18 46 -45.5t82 -121.5q36 -56 61 -79.5t60 -23.5v-54h-207q-35 44 -122 203
q-35 64 -56 76t-84 13zM286 602v-250h38.5t35.5 2.5t32 6.5t27.5 13.5t21 23t13.5 34t5 47.5q0 44 -12.5 70.5t-39.5 37.5t-52.5 13.5t-68.5 1.5zM954 40v-159q0 -18 1 -26.5t6.5 -19t19 -15t36.5 -4.5h16v-52h-304v52q44 0 55.5 14t11.5 51v383q0 19 -1.5 28.5t-8 19
t-20.5 13.5t-37 4v51l212 36q10 -34 10 -70q30 32 70 50q40 20 83 20q77 0 134 -57t57 -154q0 -100 -60 -160.5t-141 -60.5q-70 0 -140 56zM954 280v-181q40 -41 86 -41q89 0 89 139q0 146 -82 146q-28 0 -53.5 -18.5t-39.5 -44.5z" />
    <glyph glyph-name="cent.inferior" unicode="&#xf6df;" horiz-adv-x="302" 
d="M168 -8l-20 -88h-43l21 93l-15 4q-26 5 -55 30t-29 70q0 41 34 76t117 41l22 99h43l-23 -101q72 -12 72 -50q0 -16 -11 -26t-33 -10q-18 0 -31 13t-21 26t-17 13q-42 0 -42 -59q0 -93 60 -93q41 0 60 41l40 -15q-29 -64 -129 -64z" />
    <glyph glyph-name="cent.superior" unicode="&#xf6e0;" horiz-adv-x="302" 
d="M168 316l-20 -88h-43l21 93l-15 4q-26 5 -55 30t-29 70q0 41 34 76t117 41l22 99h43l-23 -101q72 -12 72 -50q0 -16 -11 -26t-33 -10q-18 0 -31 13t-21 26t-17 13q-42 0 -42 -59q0 -93 60 -93q41 0 60 41l40 -15q-29 -64 -129 -64z" />
    <glyph glyph-name="comma.inferior" unicode="&#xf6e1;" horiz-adv-x="208" 
d="M34 -112v41q33 3 56.5 16.5t23.5 39.5q0 11 -6 11h-4q-5 -1 -9 -1q-10 -2 -13 -2q-19 0 -36 13.5t-17 37.5q0 23 17 40t47 17q36 0 57.5 -24t21.5 -66q0 -52 -35.5 -86.5t-102.5 -36.5z" />
    <glyph glyph-name="comma.superior" unicode="&#xf6e2;" horiz-adv-x="208" 
d="M34 211v41q33 3 56.5 16.5t23.5 39.5q0 11 -6 11l-4 -1h-9q-10 -2 -13 -2q-19 0 -36 13.5t-17 37.5q0 23 17 40t47 17q36 0 57.5 -24t21.5 -66q0 -52 -35.5 -86.5t-102.5 -36.5z" />
    <glyph glyph-name="dollar.inferior" unicode="&#xf6e3;" horiz-adv-x="323" 
d="M133 30v106q-24 10 -37.5 16t-31 18.5t-26 29.5t-8.5 39q0 34 26.5 60t62.5 31l14 2v17h44v-15q40 -3 66 -16.5t34 -25.5t8 -23q0 -14 -11 -23t-26 -9q-27 0 -40 28q-9 20 -13.5 25t-17.5 9v-88q37 -14 59 -25t42.5 -34.5t20.5 -53.5q0 -33 -27 -64t-95 -41v-61h-44v60
q-28 3 -49 9t-31.5 12t-16.5 14.5t-7.5 13t-1.5 9.5q0 12 10 21.5t28 9.5q29 0 43 -29q8 -15 25 -22zM133 228v70q-27 -8 -27 -33q0 -23 27 -37zM177 117v-88q42 8 42 41q0 18 -10.5 27.5t-31.5 19.5z" />
    <glyph glyph-name="dollar.superior" unicode="&#xf6e4;" horiz-adv-x="323" 
d="M133 354v106q-24 10 -37.5 16t-31 18.5t-26 29.5t-8.5 39q0 34 26.5 60t62.5 31l14 2v17h44v-15q40 -3 66 -16.5t34 -25.5t8 -23q0 -14 -11 -23t-26 -9q-27 0 -40 28q-9 20 -13.5 25t-17.5 9v-88q37 -14 59 -25t42.5 -34.5t20.5 -53.5q0 -33 -27 -64t-95 -41v-61h-44v60
q-28 3 -49 9t-31.5 12t-16.5 14.5t-7.5 13t-1.5 9.5q0 12 10 21.5t28 9.5q29 0 43 -29q8 -15 25 -22zM133 552v70q-27 -8 -27 -33q0 -23 27 -37zM177 441v-88q42 8 42 41q0 18 -10.5 27.5t-31.5 19.5z" />
    <glyph glyph-name="hyphen.inferior" unicode="&#xf6e5;" horiz-adv-x="219" 
d="M13 81v85h196v-85h-196z" />
    <glyph glyph-name="hyphen.superior" unicode="&#xf6e6;" horiz-adv-x="219" 
d="M13 405v84h196v-84h-196z" />
    <glyph glyph-name="period.inferior" unicode="&#xf6e7;" horiz-adv-x="208" 
d="M41 48q0 23 18.5 39t43.5 16q26 0 44.5 -16t18.5 -39t-18.5 -39t-44.5 -16q-25 0 -43.5 16t-18.5 39z" />
    <glyph glyph-name="period.superior" unicode="&#xf6e8;" horiz-adv-x="208" 
d="M41 371q0 23 18.5 39t43.5 16q26 0 44.5 -16t18.5 -39t-18.5 -39t-44.5 -16q-25 0 -43.5 16t-18.5 39z" />
    <glyph glyph-name="a.superior" unicode="&#xf6e9;" horiz-adv-x="365" 
d="M200 484v22q0 7 -1 11.5t-4.5 11.5t-12.5 10.5t-23 3.5q-19 0 -29 -5t-12 -10t-4 -16q-5 -32 -42 -32q-17 0 -28 8.5t-11 22.5q0 24 37 44t113 20q67 0 93.5 -18t26.5 -58v-115q0 -26 16 -26q14 0 18 17h26q-1 -35 -33 -50q-20 -9 -48 -9q-54 0 -76 31q-47 -31 -101 -31
q-74 0 -74 54q0 37 44 62.5t125 51.5zM200 379v72q-71 -27 -71 -63q0 -11 7.5 -20t20.5 -9q22 0 43 20z" />
    <glyph glyph-name="b.superior" unicode="&#xf6ea;" horiz-adv-x="396" 
d="M133 359l-56 -43h-26v319q0 15 -1.5 20.5t-11 10t-30.5 4.5v37l146 20v-180q28 16 44.5 22t42.5 6q56 0 93.5 -35.5t37.5 -93.5q0 -60 -39.5 -95t-93.5 -35q-57 0 -106 43zM154 501v-108q27 -31 55 -31q55 0 55 82q0 84 -53 84q-28 0 -57 -27z" />
    <glyph glyph-name="d.superior" unicode="&#xf6eb;" horiz-adv-x="396" 
d="M242 548v84q0 14 -1.5 20t-11 10.5t-29.5 4.5v37l145 21v-323q0 -23 6.5 -29t35.5 -7v-38q-111 -7 -137 -12q-7 15 -9 37q-20 -14 -30.5 -20.5t-27.5 -11.5t-38 -5q-17 0 -34 4t-38 15.5t-34 38.5t-13 66q0 40 13.5 69t35.5 42t41.5 18.5t38.5 5.5q36 0 87 -27zM242 399
v106q-31 22 -55 22q-53 0 -53 -78q0 -84 49 -84q15 0 27 5.5t17.5 11.5t14.5 17z" />
    <glyph glyph-name="e.superior" unicode="&#xf6ec;" 
d="M283 388l30 -17q-43 -55 -127 -55q-65 0 -108.5 36.5t-43.5 93.5q0 60 43 94.5t105 34.5q23 0 45.5 -5.5t44.5 -19t35.5 -40t13.5 -62.5h-177q0 -96 70 -96q38 0 69 36zM144 478h80q-4 65 -41 65q-43 0 -39 -65z" />
    <glyph glyph-name="i.superior" unicode="&#xf6ed;" horiz-adv-x="219" 
d="M164 575v-181q0 -15 2 -22t11.5 -12t29.5 -5v-32h-194v32q31 0 39.5 7.5t8.5 31.5v88q0 24 -8.5 31.5t-39.5 7.5v32zM57 674q0 21 16.5 37t40.5 16q23 0 40 -15.5t17 -37.5t-17 -37.5t-40 -15.5q-24 0 -40.5 16t-16.5 37z" />
    <glyph glyph-name="l.superior" unicode="&#xf6ee;" horiz-adv-x="198" 
d="M153 727v-333q0 -23 7.5 -31t36.5 -8v-32h-193v32q30 0 38 7.5t8 31.5v240q0 24 -8 31.5t-38 7.5v32z" />
    <glyph glyph-name="m.superior" unicode="&#xf6ef;" horiz-adv-x="625" 
d="M161 487v-94q0 -10 0.5 -15t4 -11.5t12.5 -9t23 -2.5v-32h-192v32q31 0 40 7t9 31v83q0 25 -8.5 32t-40.5 7v32l136 28h10q6 -16 6 -45q43 45 109 45q73 0 94 -51q39 51 108 51q57 0 87 -34q20 -23 20 -69v-79q0 -23 8 -30.5t38 -7.5v-32h-188v32q18 0 27 6t10.5 12.5
t1.5 19.5v86q0 49 -40 49q-37 0 -66 -41v-94q0 -10 0.5 -15t4 -11.5t12.5 -9t23 -2.5v-32h-181v32q25 0 31.5 9t6.5 29v85q0 49 -40 49q-35 0 -66 -40z" />
    <glyph glyph-name="o.superior" unicode="&#xf6f0;" horiz-adv-x="365" 
d="M24 446q0 64 48 96.5t110 32.5q25 0 50.5 -6.5t51 -20t41.5 -40t16 -62.5q0 -62 -47.5 -96t-111.5 -34q-21 0 -44.5 5.5t-51 18t-45 40t-17.5 66.5zM132 449q0 -30 1.5 -47t13.5 -35.5t36 -18.5q17 0 28 9t15.5 26t5.5 30t1 33q0 21 -1 33t-5 29.5t-15.5 26t-29.5 8.5
t-29 -9t-15 -26t-5 -28.5t-1 -30.5z" />
    <glyph glyph-name="r.superior" unicode="&#xf6f1;" horiz-adv-x="312" 
d="M162 422v-28q0 -24 8 -31.5t39 -7.5v-32h-193v32q29 0 36 9t7 30v84q0 11 -1 16.5t-4.5 11.5t-12.5 8.5t-25 2.5v32l131 26q8 -21 10 -60h2q34 60 92 60q28 0 41.5 -16t13.5 -33t-10.5 -30t-31.5 -13q-18 0 -36 20q-15 12 -25 12q-27 0 -36 -38q-5 -20 -5 -55z" />
    <glyph glyph-name="s.superior" unicode="&#xf6f2;" horiz-adv-x="312" 
d="M31 316l-2 77h31q18 -23 25 -28q27 -19 65 -19q27 0 46 8.5t19 20.5q0 11 -11 15.5t-58 13.5q-23 5 -34 7.5t-32 10t-31.5 16t-19 23t-8.5 32.5q0 37 32.5 59.5t87.5 22.5q39 0 84 -15q8 6 13 15h26l3 -70h-26q-28 42 -97 42q-22 0 -38 -7t-16 -18q0 -13 12.5 -18
t53.5 -13q3 -1 5 -1q26 -5 36.5 -7t32 -9.5t31 -15.5t18 -22.5t8.5 -33.5q0 -39 -37.5 -62.5t-89.5 -23.5q-36 0 -88 16q-6 -4 -12 -16h-29z" />
    <glyph glyph-name="t.superior" unicode="&#xf6f3;" horiz-adv-x="240" 
d="M155 534v-125q0 -21 1 -30t6 -15.5t16 -6.5q20 0 33 24l32 -9q-24 -56 -104 -56q-87 0 -87 78v140h-38v32q48 -2 75 22t32 57h34v-79h78v-32h-78z" />
    <glyph glyph-name="dollar.oldstyle" unicode="&#xf724;" horiz-adv-x="365" 
d="M149 43v143q-51 23 -70 39q-49 41 -49 101q0 15 4.5 31.5t15.5 37.5t37 37t62 22v24h51v-21q53 -3 89.5 -30.5t36.5 -58.5q0 -20 -13.5 -32.5t-29.5 -12.5q-32 0 -50 51q-6 16 -12.5 22t-20.5 10v-116q31 -13 50 -23.5t43.5 -29t36.5 -44t12 -57.5q0 -16 -4.5 -33.5
t-17.5 -41.5t-44 -43t-76 -26v-83h-51v82q-68 6 -96 30.5t-28 48.5q0 17 12 31t33 14q14 0 24 -6.5t14.5 -14t11.5 -22.5q9 -19 29 -29zM149 312v94q-33 -11 -33 -44q0 -32 33 -50zM200 161v-119q50 11 50 56q0 23 -12.5 36t-37.5 27z" />
    <glyph glyph-name="zero.oldstyle" unicode="&#xf730;" horiz-adv-x="542" 
d="M37 217q0 85 63 153t170 68q102 0 168.5 -63t66.5 -163q0 -94 -61 -160.5t-170 -66.5q-114 0 -175.5 67t-61.5 165zM199 217q0 -33 0.5 -52t3 -42.5t7 -36t12.5 -24t20.5 -16.5t29.5 -5q42 0 56.5 42t14.5 138q0 39 -2.5 64.5t-9.5 49.5t-22 35.5t-39 11.5q-17 0 -30 -6
t-20.5 -19.5t-12 -26t-6 -35.5t-2 -37t-0.5 -41z" />
    <glyph glyph-name="one.oldstyle" unicode="&#xf731;" horiz-adv-x="479" 
d="M88 422h303v-53q-27 0 -42 -3t-22 -13.5t-8 -20t-1 -31.5v-181l1 -19q0 -25 13.5 -37t58.5 -11v-53h-303v53q46 0 58 11.5t12 47.5v193q0 21 -1 29.5t-7.5 18.5t-21 13t-40.5 3v53z" />
    <glyph glyph-name="two.oldstyle" unicode="&#xf732;" horiz-adv-x="552" 
d="M497 103l-23 -141h-49q2 10 2 20q0 18 -22 18h-338v53q101 57 171 115q94 77 94 135q0 26 -20.5 50t-59.5 24q-30 0 -58 -16.5t-28 -54.5q0 -20 16 -48q0 -1 0.5 -2.5t0.5 -2.5q0 -4 -1 -6l-89 -37q-25 18 -25 71q0 73 68 115t168 42q95 0 141.5 -36t46.5 -88
q0 -64 -79 -119q-26 -18 -181 -90v-2h265z" />
    <glyph glyph-name="three.oldstyle" unicode="&#xf733;" horiz-adv-x="531" 
d="M158 247l-43 -19q-21 -9 -28 -9q-12 0 -23.5 20.5t-11.5 47.5q0 62 66 106.5t159 44.5q71 0 127 -29t56 -87q0 -28 -12 -52.5t-35.5 -44.5t-41.5 -31.5t-47 -27.5v-2q65 -6 100 -36q54 -47 54 -126q0 -73 -43 -128t-106.5 -81t-135.5 -26q-77 0 -122.5 29t-45.5 76
q0 23 17 40.5t44 17.5q26 0 40.5 -15.5t26.5 -46.5q5 -14 9.5 -22t17 -15.5t31.5 -7.5q103 0 103 158q0 67 -10 96t-40 29q-14 0 -22.5 -5t-30.5 -25q-11 -10 -24 -10q-10 0 -17 6.5t-8.5 13t-1.5 11.5q0 18 21 33q54 38 75 55.5t37.5 45.5t16.5 64q0 42 -22 62.5t-54 20.5
q-29 0 -53 -16.5t-24 -45.5q0 -26 16 -44q7 -7 7 -11t-22 -14z" />
    <glyph glyph-name="four.oldstyle" unicode="&#xf734;" horiz-adv-x="552" 
d="M337 442h83v-376h84v-66h-84v-105q0 -48 13 -57.5t71 -11.5v-53h-332v53q58 -1 73 10t15 54v110h-221v73zM102 66h158v196h-2z" />
    <glyph glyph-name="five.oldstyle" unicode="&#xf735;" horiz-adv-x="490" 
d="M83 423h327q-29 -80 -43 -94q-4 -7 -11 -8t-36 -1h-187l-5 -148q58 39 119 39q35 0 71.5 -13t69 -37.5t53 -66.5t20.5 -95q0 -101 -74.5 -168.5t-197.5 -67.5q-87 0 -131 31t-44 70q0 26 18 43t40 17q16 0 29 -9.5t19 -19t16 -28.5q26 -48 69 -48q94 0 94 160
q0 37 -2.5 62t-11 52.5t-27.5 42t-48 14.5q-49 0 -79 -52h-59z" />
    <glyph glyph-name="six.oldstyle" unicode="&#xf736;" horiz-adv-x="552" 
d="M215 397q48 23 89 23q87 0 142.5 -57t55.5 -148q0 -100 -62.5 -163.5t-160.5 -63.5q-99 0 -164.5 74.5t-65.5 212.5q0 181 87.5 286.5t217.5 105.5q63 0 98.5 -23t35.5 -54q0 -19 -14 -37.5t-40 -18.5q-17 0 -29.5 9t-30.5 31q-15 18 -26 26t-29 8q-29 0 -49.5 -19.5
t-31 -55.5t-15.5 -65.5t-8 -70.5zM205 218q0 -86 14.5 -130t59.5 -44q38 0 50.5 36t12.5 113q0 57 -4.5 91t-20 57t-44.5 23q-16 0 -28.5 -6.5t-19.5 -20t-11.5 -26t-6 -32.5t-2 -31t-0.5 -30z" />
    <glyph glyph-name="seven.oldstyle" unicode="&#xf737;" horiz-adv-x="510" 
d="M31 250l70 213h51q-6 -18 -6 -22q0 -12 9 -15t29 -3h296l-175 -551q-20 -63 -39 -88.5t-52 -25.5q-29 0 -50 17t-21 43t42 104l200 377h-212q-50 0 -62.5 -6.5t-28.5 -42.5h-51z" />
    <glyph glyph-name="eight.oldstyle" unicode="&#xf738;" horiz-adv-x="573" 
d="M366 341v-2q152 -32 152 -166q0 -80 -57.5 -134t-174.5 -54q-119 0 -175.5 55t-56.5 133q0 134 153 166v2q-20 6 -38 14.5t-42.5 25.5t-39 45t-14.5 64q0 69 57.5 117.5t156.5 48.5t156 -49t57 -117q0 -108 -134 -149zM227 487q0 -68 13 -95t49 -27q33 0 46 26t13 90
q0 24 -0.5 37t-3.5 31.5t-9 27.5t-17.5 16t-28.5 7q-36 0 -49 -28.5t-13 -84.5zM214 184q0 -87 16 -115t57 -28q40 0 56.5 29.5t16.5 113.5q0 62 -14.5 93.5t-57.5 31.5q-42 0 -58 -30.5t-16 -94.5z" />
    <glyph glyph-name="nine.oldstyle" unicode="&#xf739;" horiz-adv-x="552" 
d="M339 26q-55 -24 -98 -24q-77 0 -133.5 55t-56.5 150q0 97 66 163.5t156 66.5q100 0 167.5 -78t67.5 -218q0 -101 -33 -184.5t-107.5 -138.5t-179.5 -55q-42 0 -70.5 10t-39.5 25.5t-14.5 25.5t-3.5 20q0 22 17.5 37t39.5 15q13 0 23.5 -6t16 -12.5t17.5 -22.5
q20 -30 54 -30q52 0 80 53t31 148zM215 249q0 -38 0.5 -55t2 -43t5 -37.5t10.5 -24.5t17.5 -17.5t25.5 -4.5q24 0 39 11t22 33.5t9 44.5t2 55q0 83 -13.5 125.5t-54.5 42.5q-65 0 -65 -130z" />
    <glyph glyph-name="cent.oldstyle" unicode="&#xf7a2;" 
d="M186 -11l-24 -120h-48l25 127q-47 12 -73 36q-43 38 -43 107q0 68 50 112.5t127 47.5l26 134h49l-28 -137q31 -3 57.5 -22t26.5 -48q0 -21 -14.5 -35t-35.5 -14q-37 0 -50 40l-33 -168q14 -4 21 -4q49 0 74 54l45 -20q-34 -86 -152 -90zM158 91l31 157q-39 -12 -39 -86
q0 -43 8 -71z" />
    </font>
</defs>
</svg>
